<?xml version="1.0" encoding="UTF-8" standalone="no"?>
<!-- Created with Inkscape (http://www.inkscape.org/) -->

<svg
   xmlns:dc="http://purl.org/dc/elements/1.1/"
   xmlns:cc="http://creativecommons.org/ns#"
   xmlns:rdf="http://www.w3.org/1999/02/22-rdf-syntax-ns#"
   xmlns:svg="http://www.w3.org/2000/svg"
   xmlns="http://www.w3.org/2000/svg"
   xmlns:sodipodi="http://sodipodi.sourceforge.net/DTD/sodipodi-0.dtd"
   xmlns:inkscape="http://www.inkscape.org/namespaces/inkscape"
   id="svg2"
   version="1.1"
   inkscape:version="0.91 r13725"
   width="168.75"
   height="42.1875"
   viewBox="0 0 168.75 42.1875"
   sodipodi:docname="firetitle.svg">
  <metadata
     id="metadata8">
    <rdf:RDF>
      <cc:Work
         rdf:about="">
        <dc:format>image/svg+xml</dc:format>
        <dc:type
           rdf:resource="http://purl.org/dc/dcmitype/StillImage" />
        <dc:title></dc:title>
      </cc:Work>
    </rdf:RDF>
  </metadata>
  <defs
     id="defs6" />
  <sodipodi:namedview
     pagecolor="#ffffff"
     bordercolor="#666666"
     borderopacity="1"
     objecttolerance="10"
     gridtolerance="10"
     guidetolerance="10"
     inkscape:pageopacity="0"
     inkscape:pageshadow="2"
     inkscape:window-width="1263"
     inkscape:window-height="672"
     id="namedview4"
     showgrid="true"
     inkscape:zoom="1.5881481"
     inkscape:cx="-15.061779"
     inkscape:cy="49.578033"
     inkscape:window-x="14"
     inkscape:window-y="34"
     inkscape:window-maximized="0"
     inkscape:current-layer="svg2">
    <inkscape:grid
       empspacing="3"
       type="xygrid"
       id="grid4138" />
  </sodipodi:namedview>
  <flowRoot
     xml:space="preserve"
     id="flowRoot4188"
     style="font-style:normal;font-weight:normal;font-size:40px;line-height:125%;font-family:sans-serif;letter-spacing:0px;word-spacing:0px;fill:#000000;fill-opacity:1;stroke:none;stroke-width:1px;stroke-linecap:butt;stroke-linejoin:miter;stroke-opacity:1"><flowRegion
       id="flowRegion4190"><rect
         id="rect4192"
         width="168"
         height="42"
         x="0"
         y="0.1875" /></flowRegion><flowPara
       id="flowPara4194">fdddd在</flowPara></flowRoot>  <path
     style="fill:#a0dfad;fill-rule:evenodd;stroke:#000000;stroke-width:1px;stroke-linecap:butt;stroke-linejoin:miter;stroke-opacity:1;fill-opacity:1"
     d="m 18,9.1875 c 3,3 9,6 9,6 l -3,-9 6,0 0,6 9,-3 0,9 -9,3 c 0,0 9,6 9,6 l 9,3 -12,6 -9,-9 -9,9 -3,-6 9,-9 z"
     id="path4196"
     inkscape:connector-curvature="0" />
  <path
     style="fill:#a0dfad;fill-rule:evenodd;stroke:#000000;stroke-width:1px;stroke-linecap:butt;stroke-linejoin:miter;stroke-opacity:1;fill-opacity:1"
     d="m 57,12.1875 c 3,0 12,-3 12,-3 l 6,-6 6,3 -6,6 3,6 -12,18 0,-9 3,0 3,-9 -15,18 -3,-6 12,-12 z"
     id="path4198"
     inkscape:connector-curvature="0" />
  <path
     style="fill:#a0dfad;fill-rule:evenodd;stroke:#000000;stroke-width:1px;stroke-linecap:butt;stroke-linejoin:miter;stroke-opacity:1;fill-opacity:1"
     d="m 99,6.1875 18,0 -3,6 -12,3 -3,21 -6,-3 z"
     id="path4200"
     inkscape:connector-curvature="0" />
  <path
     style="fill:#a0dfad;fill-rule:evenodd;stroke:#000000;stroke-width:1px;stroke-linecap:butt;stroke-linejoin:miter;stroke-opacity:1;fill-opacity:1"
     d="m 102,18.1875 6,0 0,-3 3,0 3,3 6,-3 0,6 -6,0 0,3 6,0 -3,6 c 0,0 -15,0 -15,0 l 0,-3 6,-3 z"
     id="path4202"
     inkscape:connector-curvature="0" />
  <path
     style="fill:#a0dfad;fill-rule:evenodd;stroke:#000000;stroke-width:1px;stroke-linecap:butt;stroke-linejoin:miter;stroke-opacity:1;fill-opacity:1"
     d="M 135 6.1875 L 138 15.1875 L 129 18.1875 L 135 21.1875 L 135 27.1875 L 138 33.1875 L 141 27.1875 L 144 24.1875 L 144 30.1875 L 147 33.1875 L 153 24.1875 L 147 18.1875 L 144 15.1875 L 147 9.1875 L 144 6.1875 L 141 12.1875 L 141 6.1875 L 135 6.1875 z M 138 18.1875 L 144 18.1875 L 141 24.1875 L 138 18.1875 z M 147 21.1875 L 150 24.1875 L 147 27.1875 L 147 21.1875 z "
     id="path4204" />
  <path
     style="fill:#a0dfad;fill-rule:evenodd;stroke:#000000;stroke-width:1px;stroke-linecap:butt;stroke-linejoin:miter;stroke-opacity:1;fill-opacity:1"
     d="m 150,12.1875 3,9 3,-3 -3,-12 -3,6 0,0 z"
     id="path4210"
     inkscape:connector-curvature="0" />
  <path
     style="fill:#a0dfad;fill-rule:evenodd;stroke:#000000;stroke-width:1px;stroke-linecap:butt;stroke-linejoin:miter;stroke-opacity:1;fill-opacity:1"
     d="m 156,6.1875 3,21 -3,9 6,-3 0,-30 -3,0 z"
     id="path4212"
     inkscape:connector-curvature="0" />
</svg>
