<?xml version="1.0" encoding="UTF-8" standalone="no"?>
<!-- Created with Inkscape (http://www.inkscape.org/) -->

<svg
   xmlns:dc="http://purl.org/dc/elements/1.1/"
   xmlns:cc="http://creativecommons.org/ns#"
   xmlns:rdf="http://www.w3.org/1999/02/22-rdf-syntax-ns#"
   xmlns:svg="http://www.w3.org/2000/svg"
   xmlns="http://www.w3.org/2000/svg"
   xmlns:xlink="http://www.w3.org/1999/xlink"
   xmlns:sodipodi="http://sodipodi.sourceforge.net/DTD/sodipodi-0.dtd"
   xmlns:inkscape="http://www.inkscape.org/namespaces/inkscape"
   id="svg2"
   version="1.1"
   inkscape:version="0.91 r13725"
   width="245.625"
   height="50.625"
   viewBox="0 0 245.625 50.625"
   sodipodi:docname="gameover.svg">
  <metadata
     id="metadata8">
    <rdf:RDF>
      <cc:Work
         rdf:about="">
        <dc:format>image/svg+xml</dc:format>
        <dc:type
           rdf:resource="http://purl.org/dc/dcmitype/StillImage" />
        <dc:title></dc:title>
      </cc:Work>
    </rdf:RDF>
  </metadata>
  <defs
     id="defs6">
    <linearGradient
       inkscape:collect="always"
       id="linearGradient4165">
      <stop
         style="stop-color:#909a85;stop-opacity:1;"
         offset="0"
         id="stop4167" />
      <stop
         style="stop-color:#909a85;stop-opacity:0;"
         offset="1"
         id="stop4169" />
    </linearGradient>
    <linearGradient
       inkscape:collect="always"
       xlink:href="#linearGradient4165"
       id="linearGradient4187"
       x1="229.5"
       y1="-0.375"
       x2="228"
       y2="52.625"
       gradientUnits="userSpaceOnUse" />
    <linearGradient
       inkscape:collect="always"
       xlink:href="#linearGradient4165"
       id="linearGradient4189"
       x1="199.875"
       y1="0"
       x2="198"
       y2="68.625"
       gradientUnits="userSpaceOnUse" />
    <linearGradient
       inkscape:collect="always"
       xlink:href="#linearGradient4165"
       id="linearGradient4191"
       x1="174"
       y1="-0.375"
       x2="174"
       y2="68.625"
       gradientUnits="userSpaceOnUse" />
    <linearGradient
       inkscape:collect="always"
       xlink:href="#linearGradient4165"
       id="linearGradient4193"
       x1="144"
       y1="-0.375"
       x2="144"
       y2="74.625"
       gradientUnits="userSpaceOnUse" />
    <linearGradient
       inkscape:collect="always"
       xlink:href="#linearGradient4165"
       id="linearGradient4195"
       x1="111"
       y1="-0.375"
       x2="108"
       y2="68.625"
       gradientUnits="userSpaceOnUse" />
    <linearGradient
       inkscape:collect="always"
       xlink:href="#linearGradient4165"
       id="linearGradient4197"
       x1="78"
       y1="-0.375"
       x2="78"
       y2="68.625"
       gradientUnits="userSpaceOnUse" />
    <linearGradient
       inkscape:collect="always"
       xlink:href="#linearGradient4165"
       id="linearGradient4199"
       x1="43.5"
       y1="-0.375"
       x2="42"
       y2="68.625"
       gradientUnits="userSpaceOnUse" />
    <linearGradient
       inkscape:collect="always"
       xlink:href="#linearGradient4165"
       id="linearGradient4201"
       x1="14.0625"
       y1="0"
       x2="15"
       y2="65.625"
       gradientUnits="userSpaceOnUse" />
  </defs>
  <sodipodi:namedview
     pagecolor="#ffffff"
     bordercolor="#666666"
     borderopacity="1"
     objecttolerance="10"
     gridtolerance="10"
     guidetolerance="10"
     inkscape:pageopacity="0"
     inkscape:pageshadow="2"
     inkscape:window-width="1241"
     inkscape:window-height="705"
     id="namedview4"
     showgrid="true"
     inkscape:snap-bbox="true"
     inkscape:bbox-paths="true"
     inkscape:snap-bbox-edge-midpoints="true"
     inkscape:bbox-nodes="true"
     inkscape:snap-bbox-midpoints="true"
     inkscape:object-paths="true"
     inkscape:snap-intersection-paths="true"
     inkscape:object-nodes="true"
     inkscape:snap-smooth-nodes="true"
     inkscape:snap-midpoints="true"
     inkscape:snap-object-midpoints="true"
     inkscape:snap-center="true"
     inkscape:snap-text-baseline="true"
     inkscape:snap-page="true"
     inkscape:snap-grids="true"
     inkscape:snap-to-guides="false"
     inkscape:zoom="1.5430401"
     inkscape:cx="142.88229"
     inkscape:cy="-5.3261924"
     inkscape:window-x="13"
     inkscape:window-y="52"
     inkscape:window-maximized="0"
     inkscape:current-layer="svg2">
    <inkscape:grid
       type="xygrid"
       id="grid4138"
       empspacing="3" />
  </sodipodi:namedview>
  <path
     style="fill:url(#linearGradient4201);fill-rule:evenodd;stroke:none;stroke-width:1px;stroke-linecap:butt;stroke-linejoin:miter;stroke-opacity:1;fill-opacity:1"
     d="m 15,17.625 12,0 0,-12 -12,-6 -15,6 0,33 15,9 6,-9 0,9 6,0 0,-24 -12,0 0,15 -3,0 0,-30 3,0 z"
     id="path4140"
     inkscape:connector-curvature="0"
     sodipodi:nodetypes="ccccccccccccccccc" />
  <path
     style="fill:url(#linearGradient4199);fill-rule:evenodd;stroke:none;stroke-width:1px;stroke-linecap:butt;stroke-linejoin:miter;stroke-opacity:1;fill-opacity:1"
     d="M 36 -0.375 L 30 44.625 L 39 50.625 L 42 38.625 L 45 38.625 L 48 50.625 L 57 44.625 L 51 -0.375 L 36 -0.375 z M 44 11.625 L 45 29.625 L 42 29.625 L 44 11.625 z "
     id="path4142" />
  <path
     style="fill:url(#linearGradient4197);fill-rule:evenodd;stroke:none;stroke-width:1px;stroke-linecap:butt;stroke-linejoin:miter;stroke-opacity:1;fill-opacity:1"
     d="m 69,-0.375 -9,9 0,39 10,0 2,-27 5,27 3,0 4,-27 3,27 9,0 0,-39 -8,-9 -10,18 z"
     id="path4146"
     inkscape:connector-curvature="0"
     sodipodi:nodetypes="cccccccccccccc" />
  <path
     style="fill:url(#linearGradient4195);fill-rule:evenodd;stroke:none;stroke-width:1px;stroke-linecap:butt;stroke-linejoin:miter;stroke-opacity:1;fill-opacity:1"
     d="m 102,2.625 15,-3 6,6 -6,6 -3,0 0,9 6,3 0,3 -3,3 -3,0 0,6 6,3 3,6 -6,3 -18,-6 z"
     id="path4148"
     inkscape:connector-curvature="0" />
  <path
     style="fill:url(#linearGradient4193);fill-rule:evenodd;stroke:none;stroke-width:1px;stroke-linecap:butt;stroke-linejoin:miter;stroke-opacity:1;fill-opacity:1"
     d="M 144 -0.375 L 135 5.625 L 135 41.625 L 147 50.625 L 159 41.625 L 159 5.625 L 150 -0.375 L 144 -0.375 z M 150 8.625 L 150 32.625 L 144 38.625 L 144 14.625 L 150 8.625 z "
     id="path4150" />
  <path
     style="fill:url(#linearGradient4191);fill-rule:evenodd;stroke:none;stroke-width:1px;stroke-linecap:butt;stroke-linejoin:miter;stroke-opacity:1;fill-opacity:1"
     d="m 174,-0.375 -12,0 10,51 13,0 7,-51 -10,0 -4,27 z"
     id="path4154"
     inkscape:connector-curvature="0"
     sodipodi:nodetypes="cccccccc" />
  <path
     style="fill:url(#linearGradient4189);fill-rule:evenodd;stroke:none;stroke-width:1px;stroke-linecap:butt;stroke-linejoin:miter;stroke-opacity:1;fill-opacity:1"
     d="m 192,5.625 6,-6 15,3 -3,9 -6,3 3,6 6,3 -6,6 0,3 6,6 -6,6 -6,3 -9,-9 z"
     id="path4156"
     inkscape:connector-curvature="0" />
  <path
     style="fill:url(#linearGradient4187);fill-rule:evenodd;stroke:none;stroke-width:1px;stroke-linecap:butt;stroke-linejoin:miter;stroke-opacity:1;fill-opacity:1"
     d="M 222 -0.375 L 216 44.625 L 228 47.625 L 231 26.625 L 237 50.625 L 246 44.625 L 237 23.625 L 246 11.625 L 237 -0.375 L 222 -0.375 z M 231 8.625 L 234 17.625 L 228 20.625 L 231 8.625 z "
     id="path4158" />
</svg>
