<?xml version="1.0" encoding="UTF-8" standalone="no"?>
<!-- Created with Inkscape (http://www.inkscape.org/) -->

<svg
   xmlns:dc="http://purl.org/dc/elements/1.1/"
   xmlns:cc="http://creativecommons.org/ns#"
   xmlns:rdf="http://www.w3.org/1999/02/22-rdf-syntax-ns#"
   xmlns:svg="http://www.w3.org/2000/svg"
   xmlns="http://www.w3.org/2000/svg"
   xmlns:xlink="http://www.w3.org/1999/xlink"
   xmlns:sodipodi="http://sodipodi.sourceforge.net/DTD/sodipodi-0.dtd"
   xmlns:inkscape="http://www.inkscape.org/namespaces/inkscape"
   id="svg2"
   version="1.1"
   inkscape:version="0.91 r13725"
   width="140.625"
   height="95.625"
   viewBox="0 0 140.625 95.625"
   sodipodi:docname="land1.svg">
  <metadata
     id="metadata8">
    <rdf:RDF>
      <cc:Work
         rdf:about="">
        <dc:format>image/svg+xml</dc:format>
        <dc:type
           rdf:resource="http://purl.org/dc/dcmitype/StillImage" />
        <dc:title></dc:title>
      </cc:Work>
    </rdf:RDF>
  </metadata>
  <defs
     id="defs6">
    <linearGradient
       inkscape:collect="always"
       id="linearGradient4199">
      <stop
         style="stop-color:#5bfdff;stop-opacity:1;"
         offset="0"
         id="stop4201" />
      <stop
         style="stop-color:#5bfdff;stop-opacity:0;"
         offset="1"
         id="stop4203" />
    </linearGradient>
    <radialGradient
       inkscape:collect="always"
       xlink:href="#linearGradient4199"
       id="radialGradient4205"
       cx="64.627914"
       cy="53.079979"
       fx="64.627914"
       fy="53.079979"
       r="28.160751"
       gradientTransform="matrix(0.68262128,0.03116008,-0.03217655,0.70488903,22.219455,13.650674)"
       gradientUnits="userSpaceOnUse" />
  </defs>
  <sodipodi:namedview
     pagecolor="#ffffff"
     bordercolor="#666666"
     borderopacity="1"
     objecttolerance="10"
     gridtolerance="10"
     guidetolerance="10"
     inkscape:pageopacity="0"
     inkscape:pageshadow="2"
     inkscape:window-width="1237"
     inkscape:window-height="696"
     id="namedview4"
     showgrid="true"
     inkscape:snap-bbox="true"
     inkscape:bbox-paths="true"
     inkscape:bbox-nodes="true"
     inkscape:snap-bbox-edge-midpoints="true"
     inkscape:snap-bbox-midpoints="true"
     inkscape:object-paths="true"
     inkscape:snap-intersection-paths="true"
     inkscape:object-nodes="true"
     inkscape:snap-smooth-nodes="true"
     inkscape:snap-midpoints="true"
     inkscape:snap-object-midpoints="true"
     inkscape:snap-center="true"
     inkscape:snap-text-baseline="true"
     inkscape:snap-page="true"
     inkscape:snap-global="false"
     inkscape:zoom="2.4710132"
     inkscape:cx="49.876785"
     inkscape:cy="69.664887"
     inkscape:window-x="43"
     inkscape:window-y="38"
     inkscape:window-maximized="0"
     inkscape:current-layer="svg2">
    <inkscape:grid
       type="xygrid"
       id="grid4138"
       empspacing="1" />
  </sodipodi:namedview>
  <g
     id="g4165"
     style="fill:#cddcec;fill-opacity:1;stroke:#286a84;stroke-opacity:1">
    <path
       style="fill:#dae5f0;fill-opacity:1;stroke:#61443c;stroke-width:5.2;stroke-miterlimit:4;stroke-dasharray:none;stroke-opacity:0.99607843"
       d="M 33.345703,1.7167969 C 20.665843,2.0260004 10.61072,12.350527 10.820312,24.845703 c 0.01905,0.675013 0.06858,1.348857 0.148438,2.019531 -6.5724863,2.604337 -10.9080916,9.144277 -10.89453125,16.433594 0.02085238,9.69018 7.61601815,17.530971 16.97070325,17.519531 0.818118,-0.0065 1.634706,-0.07442 2.443359,-0.203125 -0.01958,0.303129 -0.0313,0.606589 -0.03516,0.910157 0.220754,11.344136 11.160397,20.41546 24.507813,20.322265 0.860804,-0.0146 1.720087,-0.06806 2.574218,-0.160156 5.004798,4.253696 12.287156,6.680911 19.929688,6.642578 7.211803,-0.05245 14.073596,-2.29731 18.960937,-6.203125 1.461164,0.08441 2.932938,0.126812 4.40625,0.126953 6.889115,-0.03159 13.598719,-0.986115 19.261719,-2.740234 1.30857,0.206211 2.63178,0.309403 3.95703,0.308594 13.68248,-0.110403 24.7151,-11.053219 24.71484,-24.513672 L 137.75195,54.5 C 137.42132,44.888435 131.4082,36.35488 122.375,32.677734 c 0.79893,-2.05075 1.20665,-4.18881 1.20898,-6.339843 l -0.0156,-0.695313 C 123.09914,14.079541 111.2426,4.9868263 97.007812,5.2734375 86.094925,5.5047684 76.528897,11.264218 73.080078,19.679688 71.462854,14.827277 67.128687,11.632934 62.326172,11.753906 59.561273,11.831514 56.922099,13.009431 54.921875,15.058594 51.093318,6.7530642 42.60154,1.5021058 33.345703,1.7167969 Z"
       id="path4163"
       inkscape:connector-curvature="0"
       sodipodi:nodetypes="cccccccccccccccccccccccc" />
    <path
       style="fill:url(#radialGradient4205);fill-opacity:1;stroke:none;stroke-width:5.2;stroke-miterlimit:4;stroke-dasharray:none;stroke-opacity:0.99607843"
       id="path4197"
       sodipodi:type="arc"
       sodipodi:cx="64.627914"
       sodipodi:cy="53.079979"
       sodipodi:rx="28.160751"
       sodipodi:ry="21.475105"
       sodipodi:start="0"
       sodipodi:end="6.2501637"
       sodipodi:open="true"
       d="M 92.788666,53.079979 A 28.160751,21.475105 0 0 1 64.86039,74.554352 28.160751,21.475105 0 0 1 36.471001,53.434534 28.160751,21.475105 0 0 1 63.930551,31.611459 28.160751,21.475105 0 0 1 92.773314,52.370965" />
    <path
       style="fill:#8995ff;fill-rule:evenodd;stroke:#fcfdfe;stroke-width:0.551;stroke-linecap:butt;stroke-linejoin:miter;stroke-opacity:1;stroke-miterlimit:4;stroke-dasharray:none;fill-opacity:1"
       d="m 111.74437,27.926143 -0.77209,1.538134 c -0.12866,0.256614 -0.3287,0.488665 -0.38512,0.769996 -0.11169,0.55693 -0.0907,1.835459 0.38512,2.309984 0.091,0.09073 0.25833,0 0.38698,0 0.12865,0 0.27004,0.05738 0.38511,0 0.20615,-0.102789 0.95587,-0.951418 1.15908,-1.154063 0.2032,-0.202647 1.05415,-0.950342 1.15721,-1.155921 0.20651,-0.411889 -0.41418,-1.325827 -0.7721,-1.539991 -0.49336,-0.295219 -1.02957,-0.511527 -1.54419,-0.768139 z m -32.827976,1.890663 c -0.596039,-0.01076 -1.628377,0.0334 -1.908841,0.0334 -0.173825,0 -1.03975,-0.05858 -1.157212,0 -0.16274,0.08114 -0.258321,0.255764 -0.386978,0.384071 -0.128655,0.128305 -0.303747,0.223629 -0.385116,0.385925 -0.05074,0.101211 0,1.338709 0,1.539991 0,0.256613 -0.08137,0.526551 0,0.769994 0.318795,0.953786 1.238389,1.619093 1.929306,2.30813 l 0.385117,0.385925 c 0.128657,0.128307 0.224239,0.302922 0.386978,0.38407 0.117462,0.05858 0.983387,0 1.157212,0 0.451081,0 1.115074,-0.08559 1.544189,0 0.487777,0.09729 1.029786,0.211396 1.540469,0.395202 l 0.0037,-0.0093 c 7.37e-4,0.0037 0.0012,0.0074 0.0019,0.01113 0.6175,0.223061 1.1879,0.553822 1.542329,1.142932 0.148013,0.246015 -0.227399,0.531277 -0.386977,0.769995 -0.100927,0.150978 -0.284191,0.233092 -0.385118,0.384069 0.159579,0.238716 0.225539,0.531279 0.385118,0.769996 0.109065,0.163152 0.999378,1.07629 1.159072,1.15592 0.427829,0.213334 1.306719,-0.417541 1.54233,-0.769995 0.159578,-0.238717 0.258322,-0.513382 0.386977,-0.769996 0.128656,-0.256612 0.294142,-0.497815 0.385117,-0.769994 0.04068,-0.121722 -0.04068,-0.264203 0,-0.385925 0.09097,-0.272178 0.296003,-0.495961 0.386977,-0.76814 0.08075,-0.241595 0,-1.230117 0,-1.539991 0,-0.80651 0.112314,-1.179012 -0.386977,-1.925915 -0.12566,-0.187976 -1.353842,-1.412817 -1.542329,-1.538134 -0.305418,-0.203058 -1.975533,-1.042646 -2.316285,-1.155921 -0.122054,-0.04057 -0.264923,0.04057 -0.386977,0 -0.272922,-0.09073 -0.499174,-0.293344 -0.772095,-0.38407 -0.122055,-0.04057 -0.263063,0.04057 -0.385117,0 l -0.772097,-0.385902 c -0.128656,0 -0.263062,0.04057 -0.385117,0 -0.27292,-0.09073 -0.499174,-0.293343 -0.772094,-0.384071 -0.05754,-0.01912 -0.208763,-0.02981 -0.407444,-0.0334 z m 3.880939,8.885557 c -0.100926,-0.150977 -0.329443,-0.211927 -0.386977,-0.384069 -0.206262,-0.617104 -0.25623,-1.27484 -0.383257,-1.912927 -0.0019,-6.68e-4 -0.0037,-0.0012 -0.0056,-0.0019 l -1.540469,4.994764 1.157212,-1.15592 c 0.257312,-0.256613 0.570242,-0.46804 0.772095,-0.769995 0.159579,-0.238717 0.227399,-0.53128 0.386977,-0.769996 z m 24.900527,-8.874425 c -0.066,0.0072 -0.13474,0.02227 -0.19908,0.02227 -1.28297,0 -0.69923,-0.09566 -1.92931,1.539992 l 1.44187,6.104298 c -0.0946,0.0171 -0.14946,0.03122 -0.26233,0.05009 0.0304,-0.01205 0.0333,-0.107032 -0.40744,-0.766283 -0.0799,-0.119576 -0.69217,-0.650419 -0.7721,-0.769996 l 0,1.539991 c -0.40131,0.0667 -0.76436,0.285663 -1.15906,0.38407 -0.12481,0.03112 -0.26307,-0.04057 -0.38512,0 -0.81876,0.272177 -1.45069,0.996482 -2.31628,1.155919 -0.50894,0.38066 -0.57677,0.422887 -0.7721,0.560334 l 0,-0.176263 -0.33674,0.419323 c -0.23091,0.163356 -0.3432,0.260621 -0.820468,0.736597 -0.128655,0.128306 -0.386984,0.202617 -0.386984,0.38407 0,0.08902 0.05446,0.163684 0.128371,0.22636 l -0.128371,0.159565 c -0.128655,0.256612 -0.225543,0.531278 -0.385113,0.769995 -0.470814,0.704301 -0.492247,0.03771 -0.772098,1.154066 -0.06241,0.248951 0.08137,0.526551 0,0.769994 -0.05753,0.172143 -0.327579,0.211929 -0.385116,0.38407 -0.08137,0.243444 0.08137,0.526552 0,0.769995 -0.05754,0.172141 -0.34285,0.209891 -0.386978,0.385925 -0.09361,0.373427 0.06345,0.774384 0,1.154066 -0.06689,0.400219 -0.318232,0.753846 -0.385117,1.154065 -0.06345,0.379682 0.07569,0.778476 0,1.15592 -0.05642,0.281331 -0.330557,0.488666 -0.386977,0.769996 -0.07569,0.377445 0.07569,0.77662 0,1.154064 -0.05642,0.281331 -0.328698,0.488664 -0.385118,0.769995 -0.07569,0.377444 0,0.769146 0,1.154066 0,0.256612 0.08137,0.52655 0,0.769995 -0.05753,0.172141 -0.329441,0.213784 -0.386977,0.385925 -0.128657,-0.128307 -0.20317,-0.385925 -0.385118,-0.385925 -0.181946,0 -0.258322,0.257618 -0.386977,0.385925 l -1.157212,1.154064 0,-2.694055 0,-6.928101 0,-1.925915 0,-0.384069 c 0,-0.128307 -0.05754,-0.271164 0,-0.385925 0.08137,-0.162297 0.305608,-0.221774 0.386977,-0.384071 0.04148,-0.08272 0.03728,-0.229726 0.02419,-0.38778 0.110764,-0.04047 0.240589,0.0037 0.360932,0.0037 0.257312,-0.128307 0.532728,-0.22678 0.772094,-0.385925 0.15139,-0.100651 0.222379,-0.302922 0.385118,-0.38407 0.115074,-0.05738 0.271904,0.05738 0.386977,0 0.102479,-0.0511 1.105973,-1.053719 1.157212,-1.15592 0.05074,-0.101211 0,-1.33871 0,-1.539991 0,-0.128306 0.04068,-0.262347 0,-0.384069 -0.09098,-0.272178 -0.25646,-0.513383 -0.385117,-0.769995 -0.128655,-0.256613 -0.183553,-0.567124 -0.386977,-0.769995 -0.01225,-0.01222 -1.025917,-3.09e-4 -1.142328,0 -9.8e-4,-0.302057 -0.01488,-0.656735 -0.01488,-0.769996 l 0,-3.078125 0,-0.769994 c 0,-0.128306 0.124815,-0.417044 0,-0.385926 -0.558188,0.139168 -1.029565,0.513383 -1.544189,0.769994 -0.915283,2.281985 -0.772095,1.234275 -0.772095,3.079981 0,0.256613 0.08137,0.526552 0,0.769995 -0.05753,0.172141 -0.327581,0.211931 -0.385117,0.384071 -0.04207,0.125867 -0.03492,0.26848 -0.0186,0.413756 -0.240684,0.14747 -0.482718,0.288729 -0.75349,0.356239 -0.24963,0.06224 -0.527986,-0.08114 -0.772094,0 -0.04795,0.01595 -1.124104,1.088027 -1.157212,1.154064 -0.164138,0.327383 0.308634,1.041509 0.385117,1.155921 0.100926,0.150978 0.284191,0.233093 0.385117,0.38407 0.159579,0.238717 0.227399,0.531278 0.386978,0.769995 0.100926,0.150977 0.28419,0.234948 0.385116,0.385925 0.159578,0.238716 0.2274,0.531278 0.386978,0.769995 -0.06612,0.197829 -0.182179,0.374128 -0.28093,0.558478 l -1.263259,0.209663 1.157211,0 c -0.04068,0.121722 0.04068,0.264202 0,0.385925 -0.09098,0.272179 -0.294143,0.497815 -0.385116,0.769994 -0.07671,0.229518 0,1.937051 0,2.309985 l 0,5.002186 0,2.309986 c 0,0.173351 -0.05873,1.038776 0,1.15592 0.08137,0.162297 0.303746,0.221774 0.385116,0.384069 0.05754,0.11476 0,0.25762 0,0.385925 0.128657,0.256614 0.227401,0.529424 0.386978,0.768141 0.100927,0.150977 0.25646,0.257618 0.385117,0.385925 0.190061,0.189544 0.312074,0.29329 0.418605,0.358093 -0.01002,0.0089 -0.02228,0.01666 -0.03163,0.02598 -0.149751,0.149343 -1.108511,1.029862 -1.159073,1.15592 -0.19701,0.491184 -0.256461,1.026766 -0.385116,1.539991 1.824579,0.454904 1.018026,1.247221 2.316283,0.38407 0.188488,-0.125317 1.416671,-1.352016 1.54233,-1.539991 0.159578,-0.238717 0.273782,-0.504434 0.386977,-0.769995 l 0,0.769995 c 0,0.173351 -0.05873,1.038777 0,1.155921 0.08137,0.162296 0.20317,0.38407 0.385118,0.38407 0.181947,0 0.28605,-0.233093 0.386977,-0.38407 0.159578,-0.238717 0.22554,-0.53128 0.385118,-0.769996 0.169048,-0.252882 1.089439,-0.947587 1.159072,-1.15592 0.08137,-0.243445 -0.08137,-0.526551 0,-0.769995 0.115075,-0.344282 0.657019,-0.425713 0.772087,-0.769995 0.0814,-0.243445 -0.0624,-0.51919 0,-0.768141 0.06974,-0.278335 0.294142,-0.497816 0.385123,-0.769994 0.04065,-0.121721 -0.04065,-0.264204 0,-0.385925 0.931902,-2.788128 -0.111121,0.607557 0.772097,-1.154065 0.05074,-0.101212 0,-1.33871 0,-1.539991 l 0,-3.07998 0,-1.154065 c 0,-0.256613 -0.0814,-0.526552 0,-0.769995 l 0.385121,-0.769996 c 0,-0.128306 -0.0407,-0.262347 0,-0.38407 0.091,-0.272178 0.3172,-0.49166 0.38697,-0.769995 0.0624,-0.248951 -0.0624,-0.521043 0,-0.769995 0.0698,-0.278336 0.29415,-0.497815 0.38512,-0.769994 0.0726,-0.217171 0,-0.901133 0,-1.154066 l 0,-0.769995 1.93117,0 2.86884,0 c 0.0728,0.128128 0.15211,0.253285 0.21768,0.38407 0.12865,0.384919 0.30719,0.756205 0.38697,1.154066 0.0504,0.25163 -0.0624,0.521043 0,0.769994 0.0698,0.278336 0.3287,0.488664 0.38512,0.769995 0.0757,0.377444 0,0.771001 0,1.15592 0,0.256613 -0.0814,0.526552 0,0.769995 0.0575,0.172142 0.30562,0.221776 0.38698,0.384071 0.11387,0.22711 -0.0885,0.889306 0,1.154065 0.091,0.272178 0.29414,0.497817 0.38511,0.769995 0.0406,0.121723 -0.0406,0.264204 0,0.385925 0.091,0.27218 0.29601,0.497816 0.38698,0.769996 0.0406,0.121721 0,0.255763 0,0.384069 0.12866,0.384919 0.20318,0.79116 0.38512,1.154065 0.0524,0.104559 0.14995,0.177574 0.24372,0.252336 -0.22255,0.422337 -0.36318,0.890259 -0.62884,1.287655 -0.37862,0.566397 -1.16555,0.973591 -1.54419,1.53999 -0.15958,0.238716 -0.25832,0.513383 -0.38697,0.769994 -0.12866,0.256614 -0.29415,0.497817 -0.38513,0.769996 -0.0406,0.121722 0.0407,0.262346 0,0.38407 -0.091,0.272178 -0.296,0.497816 -0.38697,0.769995 -0.0726,0.217171 0,0.902987 0,1.15592 0,0.267727 -0.0698,1.784861 0,1.924061 0.10307,0.205578 0.95587,0.951418 1.15907,1.154064 0.12866,0.128306 0.20317,0.385925 0.38512,0.385925 0.39748,0 1.31276,-0.809703 1.54419,-1.155919 0.15958,-0.238717 0.22554,-0.529423 0.38512,-0.76814 0.47083,-0.704301 0.49224,-0.03956 0.77209,-1.155921 0.0624,-0.248951 -0.0814,-0.526551 0,-0.769995 0.0575,-0.172142 0.32943,-0.211929 0.38697,-0.38407 0.0814,-0.243444 -0.0813,-0.526552 0,-0.769995 0.0575,-0.172141 0.25646,-0.257618 0.38513,-0.385925 0.12865,-0.256613 0.33056,-0.48681 0.38697,-0.768141 0,-1.075225 -0.0405,-1.136183 -0.0168,-1.137365 0.16114,0.15475 0.34819,0.340611 0.40186,0.367371 0.11507,0.05738 0.26493,-0.04057 0.38698,0 0.27292,0.09074 0.49917,0.293343 0.77209,0.384069 0.24294,0.08075 1.58142,0 1.92931,0 0.20184,0 1.4427,0.0506 1.54419,0 1.74182,-0.868543 -0.96973,0.09855 0.7721,-0.769994 0.95061,-0.474019 -0.34912,1.118167 1.1572,-0.38407 0.091,-0.09072 0,-0.257618 0,-0.385925 0,-0.128306 0.0575,-0.26931 0,-0.38407 -0.0813,-0.162296 -0.28419,-0.234948 -0.38511,-0.385925 -0.93469,-1.398202 0.11286,-0.27151 -0.77209,-1.154066 -0.12866,-0.128306 -0.22425,-0.304777 -0.38698,-0.385925 -0.23015,-0.11476 -0.54196,0.114761 -0.7721,0 -0.16274,-0.08114 -0.22238,-0.302921 -0.38512,-0.38407 -0.11508,-0.05738 -0.25831,0 -0.38698,0 -0.12865,-0.128306 -0.22237,-0.302923 -0.38511,-0.38407 -0.11746,-0.05858 -0.98339,0 -1.15721,0 -0.15021,0 -0.68203,0.01898 -1.15536,0.02598 -0.0215,-0.140351 -0.0471,-0.282037 -0.004,-0.4119 0.091,-0.272179 0.29602,-0.497816 0.38699,-0.769994 0.0406,-0.121723 -0.0406,-0.262348 0,-0.384071 0.26847,-0.803221 0.88874,-1.122694 1.15721,-1.925915 0.0406,-0.121722 -0.10292,-0.307086 0,-0.38407 -0.12865,0.128306 -0.23372,0.283418 -0.38512,0.38407 -0.23937,0.159143 -0.53273,0.226781 -0.77209,0.385925 -0.15139,0.100652 -0.25832,0.255763 -0.38699,0.38407 l -1.15721,1.15592 c -0.0999,0.09967 -0.25776,0.241465 -0.40372,0.374793 0.002,-0.300803 0.0168,-0.648912 0.0168,-0.760718 l 0,-7.312171 1.54418,0 c 0.38598,0 0.78061,0.07548 1.15908,0 0.2821,-0.05626 0.49733,-0.295202 0.77024,-0.385925 0.34737,-0.115475 0.81169,0.115476 1.15906,0 1.39925,-0.465148 0.27401,-0.182787 1.15722,-0.769995 0.23938,-0.159144 0.53272,-0.224925 0.77209,-0.38407 0.51649,-0.34339 0.7721,-0.946659 0.7721,-1.53999 0,-0.128307 0.091,-0.295195 0,-0.385925 -0.20342,-0.20287 -0.51478,-0.255764 -0.7721,-0.38407 -0.25731,-0.128307 -0.49916,-0.293348 -0.77209,-0.38407 -0.2441,-0.08114 -0.52799,0.08114 -0.7721,0 -0.27292,-0.09072 -0.48999,-0.329658 -0.77209,-0.385925 -0.41483,-0.08274 -2.09235,0 -2.70141,0 -0.25153,0 -1.01367,-0.04054 -1.51256,-0.0334 0.01,-0.3132 0.009,-0.616807 -0.0316,-0.736599 -0.091,-0.272178 -0.3287,-0.488665 -0.38512,-0.769995 0,-2.189032 0.1716,-0.25288 -0.38698,-1.92406 -0.0814,-0.243444 0.0814,-0.526551 0,-0.769996 -0.091,-0.272177 -0.29414,-0.497815 -0.38511,-0.769994 -0.0406,-0.121722 0.0406,-0.262348 0,-0.384069 -0.23367,-0.699102 -0.33049,-0.715515 -0.7721,-1.155921 -0.12865,-0.128307 -0.22238,-0.302922 -0.38512,-0.384071 -0.0575,-0.02869 -0.12188,-0.02944 -0.1879,-0.02227 z m 5.5907,16.958447 c 0.46031,-0.344283 1.28688,-0.25677 1.54419,-0.769996 l -1.54419,0.769996 z m 1.54419,-0.769996 c 0.23723,-0.47317 -0.28294,-1.021242 -0.38698,-1.53999 -0.0253,-0.125815 0.0407,-0.262348 0,-0.38407 -0.18193,-0.544357 -0.51476,-1.026765 -0.77208,-1.53999 l 1.15906,3.46405 z M 91.288516,59.874447 c -0.158096,-0.03942 -0.321171,-0.03774 -0.485583,-0.02598 0.204252,0.144374 0.385731,0.225136 0.485583,0.02598 z m 0,0 c 0.0843,-0.168149 0.03225,-0.318018 -0.07814,-0.461998 l 0.07814,0.461998 z m -0.07814,-0.461998 -0.308838,-1.847988 -0.385117,0.38407 c -0.128657,0.128306 -0.452692,0.217451 -0.385117,0.385925 0.168898,0.421098 0.812757,0.730644 1.079072,1.077993 z m -0.407443,0.436022 c -0.322094,-0.227671 -0.717027,-0.658857 -1.058607,-0.74402 -0.124815,-0.03112 0,0.255765 0,0.384071 0,0.128306 -0.124815,0.354803 0,0.385925 0.341164,0.08505 0.703811,-6.02e-4 1.058607,-0.02598 z m 14.766537,-23.840163 0,-4.618114 c -1.23509,1.642319 -1.15906,0.897609 -1.15906,1.924059 0,0.128306 -0.0406,0.262347 0,0.38407 0.091,0.272178 0.296,0.497817 0.38698,0.769995 0.0407,0.121722 -0.0575,0.271164 0,0.385925 0.0814,0.162296 0.28419,0.233093 0.38511,0.38407 0.15957,0.238716 0.22739,0.531278 0.38697,0.769995 z m -52.491275,-5.00404 c 0.05533,0.03066 0.101058,0.06663 0.15442,0.09834 -0.02824,-0.0578 -0.07326,-0.09834 -0.15442,-0.09834 z m 0,0 c -0.322601,0 -0.268272,0.492353 -0.32,0.879464 l 0.32,-0.879464 z m -0.32,0.879464 -0.126512,0.346961 c 0.01883,-0.02437 0.04557,-0.04264 0.05954,-0.0705 0.03767,-0.07515 0.05347,-0.175364 0.06698,-0.276457 z m -0.126512,0.346961 c -0.09083,0.117592 -0.219012,0.207283 -0.325582,0.313564 -0.496836,0.495488 -0.923697,0.835784 -1.159072,1.539991 -0.08075,0.241595 0,1.230118 0,1.53999 0,0.201283 -0.05074,1.43878 0,1.539991 0.08137,0.162296 0.258321,0.255763 0.386977,0.38407 0.128657,0.128306 0.233728,0.283418 0.385117,0.38407 0.103573,0.06886 0.219877,0.117778 0.334884,0.166987 -0.123683,0.0818 -0.141395,0.09029 -0.334884,0.218938 -0.151389,0.100652 -0.222378,0.302921 -0.385117,0.384069 -0.115073,0.05738 -0.271903,-0.05738 -0.386977,0 -0.162739,0.08114 -0.233728,0.285274 -0.385118,0.385925 -0.239367,0.159145 -0.624082,0.138055 -0.772095,0.384071 -0.27292,0.453631 -0.258322,1.026765 -0.386977,1.53999 -0.128657,0.513225 -0.281086,1.021243 -0.385118,1.53999 -0.05047,0.25163 0,0.513383 0,0.769996 l 0,2.309984 c 0,0.528156 -0.203475,1.244638 0.385118,1.538136 0.42088,0.209867 0.503093,-0.205223 0.772095,-0.38407 0.478734,-0.318288 1.065454,-0.451707 1.544189,-0.769996 0.567942,-0.377598 0.976247,-1.162391 1.544189,-1.53999 0.239368,-0.159145 0.568673,-0.181199 0.772095,-0.38407 0.09097,-0.09072 -0.05753,-0.271165 0,-0.385925 0.08137,-0.162297 0.303749,-0.221773 0.385117,-0.384069 0.05754,-0.114761 -0.04068,-0.264203 0,-0.385925 0.09098,-0.272179 0.2274,-0.529425 0.386978,-0.768141 0.105711,-0.158135 0.998646,-1.050496 1.157212,-1.15592 0.239368,-0.159145 0.532728,-0.224925 0.772095,-0.38407 0.151389,-0.100651 0.22424,-0.304777 0.386977,-0.385925 0.117465,-0.05858 0.983389,0 1.157212,0 l 0.385117,0 c 0.128657,0 0.271904,-0.05738 0.386978,0 0.162738,0.08114 0.256461,0.257619 0.385117,0.385925 l 0.386977,0.38407 1.157213,1.15592 c 0.257313,0.256613 0.469317,0.566837 0.772094,0.768141 0.239369,0.159145 0.532728,0.226781 0.772095,0.385925 0.753675,0.501083 0.01842,0.268912 0.772095,0.769994 0.239368,0.159146 0.532728,0.224925 0.772095,0.38407 0.151389,0.100652 0.222379,0.304777 0.385116,0.385925 0.115075,0.05738 0.264924,-0.04057 0.386979,0 0.27292,0.09073 0.499173,0.293345 0.772095,0.38407 0.347371,0.115475 0.809841,-0.115475 1.157212,0 1.330516,0.4423 0.285218,0.385925 1.157212,0.385925 0.128657,0 0.271903,0.05738 0.386978,0 0.162737,-0.08114 0.222378,-0.304776 0.385116,-0.385925 0.230147,-0.11476 0.527987,0.08114 0.772095,0 0.27292,-0.09072 0.514782,-0.255764 0.772095,-0.38407 2.798495,-1.395442 -0.609103,0.405583 1.159072,-0.769995 0.239367,-0.159142 0.530867,-0.226781 0.770235,-0.385925 0.378519,-0.251662 0.638173,-0.753396 0.772095,-1.154065 0.02691,-0.0805 0.02691,-1.843558 0,-1.92406 -0.09402,-0.281295 -0.418811,-0.979758 -0.772095,-1.15592 -0.115075,-0.05738 -0.263064,0.04057 -0.385117,0 -0.272922,-0.09072 -0.499175,-0.293343 -0.772095,-0.384071 -0.122055,-0.04057 -0.256461,0 -0.385118,0 -0.257312,-0.128305 -0.499174,-0.295199 -0.772095,-0.385925 -0.242929,-0.08075 -1.583268,0 -1.931166,0 -0.347898,0 -1.686379,0.08076 -1.929307,0 -0.272921,-0.09073 -0.499173,-0.293342 -0.772096,-0.384069 -0.244107,-0.08114 -0.527986,0.08114 -0.772095,0 -0.545841,-0.181454 -0.998345,-0.588543 -1.544188,-0.769995 -0.217764,-0.07239 -0.903589,0 -1.157213,0 l -2.701401,0 -2.316284,0 c 0.05074,-0.101211 0,-1.338708 0,-1.539991 l 0,-0.38407 c 0,-0.128306 0.05753,-0.271165 0,-0.385925 -0.406426,-0.810639 -0.365668,0.04064 -0.772095,-0.769995 -0.887011,-1.769196 0.0999,-0.668511 -0.772095,-1.538135 -0.684958,-0.683096 -1.304895,-1.31953 -2.160004,-1.827579 0.106077,0.217054 -0.09464,0.759506 -0.15442,1.057585 -0.05642,0.28133 -0.258321,0.513381 -0.386978,0.769994 l -1.157211,2.30813 1.097677,-3.00762 z m -11.698632,2.211649 c -0.230552,0.009 -0.466677,0.02598 -0.593488,0.02598 l -1.929307,0 -3.08652,0 c -0.173822,0 -1.041608,-0.05858 -1.159071,0 -0.16274,0.08115 -0.222379,0.304779 -0.385117,0.385925 -0.230148,0.114762 -0.527987,-0.08114 -0.772095,0 -0.545843,0.181453 -0.998348,0.588544 -1.54419,0.769995 -1.148951,0.381975 0.792625,-0.912287 -1.157212,0.38407 -0.15139,0.100652 -0.235589,0.285274 -0.386978,0.385925 -0.239367,0.159144 -0.532728,0.224928 -0.772094,0.384071 -0.15139,0.100652 -0.233728,0.285273 -0.385117,0.385925 -0.239368,0.159145 -0.514783,0.255763 -0.772095,0.38407 l -1.929307,1.539989 c 0,0.513226 -0.124815,1.04209 0,1.539991 0.03121,0.124475 0.256461,0 0.385117,0 l 1.54419,0 c 0.905165,0 -0.181789,0.08972 0.772095,-0.385925 0.115074,-0.05738 0.270042,0.05738 0.385117,0 0.342098,-0.170584 0.807718,-0.920467 1.159072,-1.154066 0.239367,-0.159143 0.530867,-0.226781 0.770234,-0.385925 1.768176,-1.175578 -1.639424,0.625448 1.159073,-0.769994 0.15139,-0.100652 0.222378,-0.302923 0.385117,-0.38407 0.227729,-0.113556 0.893591,0.08826 1.159073,0 0.27292,-0.09072 0.499174,-0.293348 0.772094,-0.38407 0.242255,-0.08053 1.23161,0 1.542329,0 l 2.316285,0 c 0.257312,0 0.522466,0.06224 0.772094,0 0.394699,-0.09841 0.762513,-0.287519 1.157213,-0.385925 0.124814,-0.03112 0.271904,0.05738 0.386977,0 0.162739,-0.08115 0.222377,-0.302924 0.385116,-0.384071 0.243495,-0.121416 1.687673,0.121418 1.931168,0 0.162739,-0.08115 0.222378,-0.304778 0.385117,-0.385925 0.115074,-0.05738 0.264923,0.04057 0.386978,0 0.272921,-0.09072 0.514782,-0.255763 0.772094,-0.38407 0.257313,-0.128306 0.64158,-0.129312 0.770235,-0.385925 0.238471,-0.475641 -0.708195,-0.38407 -0.770235,-0.38407 -0.373952,0 -2.086143,0.0765 -2.316284,0 -0.272921,-0.09072 -0.499173,-0.295193 -0.772095,-0.385925 -0.108882,-0.03619 -0.335029,-0.03503 -0.565583,-0.02598 z m -7.153503,3.105957 c -0.374446,0.723866 0.187222,1.563132 0,2.309985 -0.06977,0.278335 -0.317204,0.491659 -0.386978,0.769995 -0.0624,0.248951 0.05047,0.518366 0,0.769995 -0.07978,0.397861 -0.305329,0.756204 -0.385117,1.154065 -0.0019,0.0092 -2.37e-4,0.01864 -0.0019,0.02783 -0.410642,-0.02062 -0.985499,-0.113455 -1.157212,-0.02783 -0.162738,0.08115 -0.256461,0.255765 -0.385117,0.384071 -0.128657,0 -0.264923,-0.04057 -0.386978,0 -0.272921,0.09072 -0.497314,0.295203 -0.770234,0.385925 -0.122055,0.04057 -0.264923,-0.04057 -0.386978,0 -0.272921,0.09073 -0.514783,0.255763 -0.772094,0.384069 -0.257312,0.128307 -0.532727,0.226783 -0.772095,0.385925 -0.151388,0.100652 -0.222378,0.302923 -0.385117,0.38407 -0.115074,0.05738 -0.271904,-0.05738 -0.386977,0 -0.545946,0.27223 -0.226151,0.497766 -0.772095,0.769995 -0.230147,0.114761 -0.540088,-0.11476 -0.770235,0 -0.50655,0.252587 -0.443552,0.372662 -0.297675,0.4286 0.456305,0.03785 0.183082,0.07021 0,0 -0.256542,-0.02128 -0.7167,-0.04267 -1.633492,-0.04267 -0.363896,0.181453 -0.762512,0.285664 -1.157211,0.38407 -0.124816,0.03112 -0.271904,-0.05738 -0.386978,0 -0.162738,0.08115 -0.256462,0.25762 -0.385117,0.385925 -0.374415,0.373397 -1.157212,0.946246 -1.157212,1.538136 0,0.181453 0.256461,0.257618 0.385117,0.385925 0.128656,0.128306 0.235588,0.283419 0.386977,0.38407 0.239367,0.159145 0.512922,0.25762 0.770235,0.385925 0.257312,0.128307 0.499173,0.293347 0.772094,0.384071 0.217763,0.07239 0.905449,0 1.159072,0 l 1.929307,0 c 0.201832,0 1.442702,0.0506 1.54419,0 0.162739,-0.08115 0.212508,-0.326693 0.385117,-0.384071 0.488217,-0.162295 1.04493,0.124476 1.544189,0 0.279094,-0.06958 0.499174,-0.295203 0.772095,-0.385925 0.122055,-0.04057 0.263064,0.04057 0.385117,0 0.272921,-0.09073 0.499174,-0.293347 0.772095,-0.38407 0.04856,-0.01614 0.140498,-0.01334 0.213954,-0.01855 -0.01546,0.123243 -0.0158,0.171206 -0.02232,0.25048 0.02749,-0.075 0.07146,-0.201404 0.09302,-0.256047 0.03414,-9.89e-4 0.05394,-0.0097 0.09117,-0.0093 -0.06979,0.364417 -0.237183,0.909445 -0.184186,0.265323 -0.05764,0.157246 -0.104504,0.277403 -0.191629,0.538069 -0.08137,0.243444 0,0.513382 0,0.769996 l 0,1.538134 c 0,0.256613 0.08137,0.526551 0,0.769995 -0.09097,0.27218 -0.315344,0.49166 -0.385117,0.769996 -0.06241,0.248951 0.0624,0.521044 0,0.769995 -0.06977,0.278335 -0.296005,0.497815 -0.386978,0.769995 -0.04068,0.121721 0,0.257619 0,0.385925 -0.128655,0.256613 -0.294143,0.497816 -0.385117,0.769994 -0.04068,0.121723 0.05754,0.269311 0,0.384071 -0.162738,0.324592 -0.609356,0.445402 -0.772095,0.769995 -0.05754,0.11476 0.05754,0.269309 0,0.38407 -0.883213,1.761623 0.159815,-1.632207 -0.772094,1.15592 -0.38299,1.145839 0.914775,-0.79047 -0.385117,1.154066 -0.100927,0.150977 -0.305608,0.223628 -0.386978,0.385925 -1.86382,3.717504 0.498096,-0.718376 -0.385117,1.924059 -0.115074,0.344282 -0.570242,0.46804 -0.772095,0.769996 -0.159578,0.238716 -0.258322,0.513382 -0.386977,0.769995 -0.128657,0.256612 -0.294145,0.497816 -0.385118,0.769995 -0.08136,0.243444 0.115074,0.540474 0,0.769995 -0.08136,0.162295 -0.567064,0.38407 -0.385117,0.38407 0.731043,0 1.036454,-0.817732 1.54233,-1.154065 0.239367,-0.159145 0.532727,-0.226781 0.772094,-0.385925 0.628063,-0.417571 0.144033,-0.352426 0.772095,-0.769995 0.239366,-0.159144 0.532727,-0.224925 0.772094,-0.38407 0.151389,-0.100652 0.258321,-0.257619 0.386978,-0.385925 0.128655,-0.128306 0.303748,-0.221775 0.385117,-0.384071 0.115074,-0.229522 -0.08137,-0.52655 0,-0.769994 0.09097,-0.272179 0.294144,-0.497817 0.385117,-0.769995 0.04068,-0.121723 -0.05754,-0.269309 0,-0.38407 0.08137,-0.162297 0.305608,-0.223629 0.386978,-0.385925 0.115072,-0.229522 -0.115075,-0.540475 0,-0.769996 0.08137,-0.162296 0.303749,-0.221774 0.385117,-0.38407 0.115074,-0.229521 -0.08137,-0.526551 0,-0.769995 0.09097,-0.272178 0.296004,-0.497817 0.386978,-0.769995 0.11579,-0.346427 -0.115791,-0.807638 0,-1.154066 0.113583,-0.339824 0.9536,-2.005398 1.157212,-2.309984 0.100927,-0.150978 0.286051,-0.234948 0.386978,-0.385925 0.443504,-0.66345 0.385117,-0.581146 0.385117,-1.154066 0,-0.128306 -0.05753,-0.271164 0,-0.385925 0.08137,-0.162296 0.305609,-0.221774 0.386977,-0.38407 0.05754,-0.11476 -0.05753,-0.26931 0,-0.38407 0.08137,-0.162296 0.303747,-0.22363 0.385117,-0.385925 0.115072,-0.229521 -0.08136,-0.526551 0,-0.769994 0.09097,-0.272179 0.296003,-0.497817 0.386977,-0.769996 0.04068,-0.121721 -0.04068,-0.262348 0,-0.38407 0.05101,-0.152641 0.133566,-0.29257 0.215815,-0.43231 1.19911,-0.228248 0.538345,-0.332961 1.713492,-0.72361 0.122055,-0.04057 0.256461,0 0.385118,0 0.36352,0 1.711604,0.07299 1.931167,0 0.172611,-0.05738 0.208602,-0.340059 0.385117,-0.38407 0.374444,-0.09336 0.778738,0.07548 1.157211,0 0.282098,-0.05627 0.499175,-0.293338 0.772095,-0.384071 0.310667,-0.103273 1.297547,0.122987 1.54419,0 0.162739,-0.08114 0.214367,-0.328546 0.386978,-0.385925 0.244108,-0.08114 0.522465,0.06224 0.772094,0 0.279095,-0.06958 0.503127,-0.277517 0.770235,-0.38407 0.377748,-0.150687 0.795178,-0.204472 1.159072,-0.385925 0.53669,-0.267615 0.772094,-0.996556 0.772094,-1.53999 0,-0.128306 0.09097,-0.293347 0,-0.384069 -0.203424,-0.20287 -0.499173,-0.295194 -0.772094,-0.385925 -0.244108,-0.08114 -0.514782,0 -0.772094,0 l -2.316285,0 c -0.253623,0 -0.939449,0.07239 -1.157212,0 -0.272921,-0.09073 -0.499173,-0.293348 -0.772095,-0.384071 -0.122054,-0.04057 -0.264924,0.04057 -0.386978,0 -0.27292,-0.09072 -0.499174,-0.293347 -0.772093,-0.38407 -0.24411,-0.08114 -0.512923,0 -0.770235,0 l -1.931167,0 -1.157213,0 c 0,-0.309873 0.08075,-1.298395 0,-1.53999 C 36.389969,40.356076 36.253552,40.096976 36.093973,39.85826 35.89212,39.556305 35.58105,39.344878 35.323738,39.088264 L 33.77955,37.548275 Z m -9.650255,8.08402 c 0.670988,-0.334582 1.287887,-0.771001 1.931167,-1.15592 l -1.931167,1.15592 z M 85.20106,41.754513 c -0.282982,-0.02286 -0.594739,0.02783 -0.859537,0.02783 -0.201831,0 -1.442703,-0.0506 -1.54419,0 -0.162738,0.08115 -0.224238,0.30478 -0.386977,0.385925 -0.115074,0.05738 -0.270045,-0.05738 -0.385117,0 -0.16274,0.08115 -0.224239,0.302924 -0.386978,0.38407 -0.115074,0.05738 -0.263063,-0.04057 -0.385117,0 -0.272922,0.09073 -0.499175,0.293348 -0.772095,0.384071 -0.122055,0.04057 -0.270043,-0.05738 -0.385117,0 -0.162738,0.08115 -0.224239,0.304778 -0.386977,0.385925 -0.115075,0.05738 -0.256462,0 -0.385117,0 -0.916432,0 -0.262478,0.03011 -1.931168,-0.385925 1.919939,0.63824 0.842494,1.471637 0.386978,1.925914 L 77.39267,42.936407 c -0.639979,-0.212747 -1.473791,0.701642 -1.929307,1.155919 -0.128655,0.128308 -0.303749,0.221774 -0.385116,0.38407 -0.05754,0.11476 0,0.257618 0,0.385925 0,0.128306 -0.05754,0.26931 0,0.38407 0.08137,0.162297 0.256461,0.257619 0.385116,0.385925 0.128657,0.128307 0.224238,0.302924 0.386978,0.38407 0.101487,0.0506 1.340499,0 1.542329,0 l 0.386978,0 c 0.128656,0 0.270043,0.05738 0.385117,0 0.162739,-0.08115 0.224238,-0.302923 0.386978,-0.38407 0.115072,-0.05738 0.263063,0.04057 0.385117,0 0.272921,-0.09073 0.499172,-0.295203 0.772095,-0.385925 0.244107,-0.08114 0.514782,0 0.772094,0 0.961524,0 0.772095,0.45823 0.772095,1.15592 0,0.128307 0.05753,0.26931 0,0.384071 -0.07984,0.159261 -0.993613,1.045296 -1.157212,1.154065 -0.239367,0.159144 -0.499174,0.295203 -0.772094,0.385925 -0.122055,0.04057 -0.271904,-0.05738 -0.386978,0 -0.325478,0.162296 -0.469316,0.568692 -0.772095,0.769995 -0.239368,0.159145 -0.532727,0.224925 -0.772095,0.384071 -0.151388,0.10065 -0.222378,0.304778 -0.385117,0.385925 -0.115075,0.05738 -0.264924,-0.04057 -0.386977,0 -0.272922,0.09073 -0.497315,0.293346 -0.770235,0.384069 -0.244108,0.08114 -0.541948,-0.11476 -0.772094,0 -0.162739,0.08115 -0.258322,0.257618 -0.386978,0.385925 -0.128656,0.128306 -0.284191,0.233094 -0.385117,0.38407 -0.159579,0.238717 -0.258321,0.513383 -0.386977,0.769995 -0.128656,0.256613 -0.294149,0.497817 -0.385118,0.769995 -0.08137,0.243444 0,0.513382 0,0.769996 0,0.201282 -0.05074,1.43878 0,1.53999 0.08137,0.162297 0.256462,0.255764 0.385118,0.384069 0.128656,0.128307 0.235587,0.285274 0.386977,0.385925 0.305418,0.203058 1.973672,1.04079 2.314424,1.154066 0.365801,0.121601 1.565366,-0.121603 1.931167,0 0.27292,0.09072 0.499173,0.293347 0.772095,0.38407 0.310666,0.103274 1.297546,-0.122986 1.544188,0 0.16274,0.08115 0.222379,0.304778 0.385118,0.385925 0.117463,0.05858 0.983388,0 1.157212,0 l 3.088379,0 c 0.1168,0 2.917171,0.05692 3.088379,0 0.27292,-0.09073 0.499173,-0.295194 0.772095,-0.385925 0.244108,-0.08114 0.541947,0.114761 0.772095,0 0.162738,-0.08115 0.25646,-0.255764 0.385117,-0.38407 0.128655,-0.128307 0.303749,-0.22363 0.385117,-0.385925 0.06979,-0.1392 0,-1.656334 0,-1.92406 0,-0.173352 0.05873,-1.036922 0,-1.154065 -0.08137,-0.162296 -0.256462,-0.25762 -0.385117,-0.385925 -0.128657,-0.128307 -0.222379,-0.302924 -0.385117,-0.384071 -0.101488,-0.0506 -1.342359,0 -1.54419,0 -0.253623,0 -0.94131,-0.07239 -1.159073,0 -0.27292,0.09072 -0.499174,0.293338 -0.772094,0.384071 -0.122055,0.04057 -0.270043,-0.05738 -0.385117,0 -0.162739,0.08115 -0.224238,0.304778 -0.386977,0.385925 -0.115075,0.05738 -0.263064,-0.04057 -0.385118,0 -0.27292,0.09072 -0.499174,0.293347 -0.772095,0.38407 -0.242927,0.08075 -1.581408,0 -1.929307,0 -0.173824,0 -1.04161,0.05858 -1.159072,0 -0.10248,-0.0511 -1.105973,-1.051865 -1.157212,-1.154066 -0.05753,-0.11476 0,-0.257618 0,-0.385925 l 0,-0.38407 c 0,-0.173352 -0.05873,-1.036921 0,-1.154065 0.08137,-0.162296 0.286051,-0.234948 0.386977,-0.385925 0.159578,-0.238716 0.22554,-0.531278 0.385118,-0.769994 0.201851,-0.301956 0.514782,-0.513382 0.772095,-0.769996 l 1.544189,-1.53999 c 0.128657,-0.128307 0.284191,-0.233093 0.385118,-0.38407 0.159579,-0.238717 0.227398,-0.531279 0.386977,-0.769996 0.222034,-0.332146 0.855737,-0.853409 1.157212,-1.154065 0.128656,-0.128307 0.30375,-0.223629 0.385118,-0.385925 0.05873,-0.117144 0,-0.980713 0,-1.154064 -10e-7,-0.173351 0.05873,-1.036922 0,-1.154066 -0.147149,-0.293496 -0.399811,-0.3909 -0.682793,-0.413756 z m -19.566556,4.234045 c -0.230553,0.009 -0.464818,0.02783 -0.591629,0.02783 l -3.08838,0 -1.929307,0 -0.386977,0 c -0.128656,0 -0.270044,-0.05738 -0.385117,0 -1.267831,0.632192 -1.650153,0.793668 -1.918145,1.15221 1.308081,-0.388048 1.183703,1.175624 1.918145,1.541846 0.115073,0.05738 0.270044,-0.05738 0.385117,0 0.162739,0.08114 0.235589,0.285273 0.386977,0.385925 0.239369,0.159145 0.514783,0.255763 0.772095,0.384071 l 0.772096,0.385925 c 0.128656,0 0.263064,-0.04057 0.385116,0 0.272922,0.09073 0.499175,0.293342 0.772095,0.384069 0.244108,0.08114 0.527987,-0.08114 0.772095,0 0.272921,0.09072 0.499174,0.295198 0.772095,0.385925 0.244108,0.08114 0.514782,0 0.772095,0 l 1.157212,0 c 1.225603,0 1.703367,0.225325 2.701401,-0.769994 0.128657,-0.128307 0.30561,-0.223631 0.386978,-0.385925 0.05754,-0.114761 0,-0.255764 0,-0.384071 l 0,-0.385925 c 0,-0.173351 0.05873,-1.03692 0,-1.154065 -0.05124,-0.1022 -1.056593,-1.102964 -1.159072,-1.154066 -0.227729,-0.113554 -0.891731,0.08826 -1.157212,0 -0.272922,-0.09072 -0.499174,-0.295199 -0.772095,-0.385925 -0.108882,-0.03619 -0.33503,-0.03688 -0.565583,-0.02783 z m -8.299555,1.180041 c -0.0042,0.0013 -0.0069,5.52e-4 -0.01117,0.0019 l -0.02046,0.03896 c 0.0099,-0.01434 0.02138,-0.02712 0.03163,-0.04082 z m -0.03163,0.04082 c -0.193919,0.279775 -0.340511,0.681026 -0.75163,1.501027 l 0.75163,-1.501027 z m -2.682798,-1.193029 -1.542329,1.154066 c -0.128657,0 -0.271903,-0.05738 -0.386978,0 -0.325477,0.162295 -0.469316,0.568691 -0.772094,0.769995 -0.239367,0.159144 -0.532726,0.22678 -0.772094,0.385925 -0.251225,0.167028 -0.520871,0.602968 -0.772095,0.769995 -0.239368,0.159145 -0.532728,0.224926 -0.772095,0.384071 -0.151389,0.100651 -0.233728,0.285273 -0.385118,0.385925 -0.239367,0.159145 -0.532727,0.224924 -0.772094,0.384069 -0.151389,0.100652 -0.233728,0.285273 -0.385118,0.385925 -0.435874,0.289793 -0.973849,0.164522 -0.772095,0.76814 0.295671,0.884599 0.164556,0.769995 0.772095,0.769995 l 0.772095,0 c 0.347899,0 1.686379,0.08075 1.929307,0 1.399249,-0.465147 0.273998,-0.182788 1.157212,-0.769995 0.239368,-0.159145 0.532728,-0.224925 0.772094,-0.38407 0.163598,-0.108768 1.077366,-0.994805 1.157212,-1.154064 0.154388,-0.307935 -0.154387,-0.847985 0,-1.155921 0.08137,-0.162296 0.305608,-0.221774 0.386978,-0.38407 0.115074,-0.229521 -0.05047,-0.518365 0,-0.769995 0.104032,-0.518747 0.256462,-1.026765 0.385117,-1.539991 z m 47.475459,1.924061 c -0.12865,0.513225 -0.28293,1.021242 -0.38697,1.539991 -0.0703,0.350353 0.10316,1.718297 0,1.924059 -0.16274,0.324593 -0.60936,0.445404 -0.7721,0.769995 -0.05,0.09952 0,2.037154 0,2.309986 0,0.272831 -0.05,2.210463 0,2.309985 0.17664,0.352324 0.87701,0.676233 1.15907,0.769995 0.12207,0.04057 0.25647,0 0.38513,0 1.08843,0 0.73878,0.03321 1.54418,-0.769995 0.49683,-0.495486 0.92183,-0.835783 1.15721,-1.539991 0.0813,-0.243443 0,-0.513381 0,-0.769994 l 0,-1.924061 c 0,-0.309873 0.0808,-1.298393 0,-1.53999 -0.46643,-1.395444 -0.18328,-0.273253 -0.77209,-1.154064 -0.15959,-0.238717 -0.22555,-0.531279 -0.38512,-0.769996 -0.39641,-0.592993 -1.47624,-0.930005 -1.92931,-1.15592 z M 35.878155,50.41928 c -0.104533,0.02406 -0.169303,0.08877 -0.169303,0.217083 l 1.544189,0 c -0.385967,0 -1.061287,-0.289254 -1.374886,-0.217083 z m -0.169303,0.217083 c 0.150342,0.298355 -0.991189,1.268567 -0.772095,1.92406 0.181948,0.544358 0.514782,1.026766 0.772095,1.539991 0.257312,0.513225 0.452938,1.062556 0.772094,1.539989 0.31974,0.478306 0.452355,0.289833 0.772095,0.768141 0.159579,0.238717 0.225539,0.531279 0.385118,0.769995 0.100926,0.150977 0.258322,0.257618 0.386977,0.385925 l 1.157212,1.154065 c 0.593315,0.591701 1.101489,1.264802 1.929306,1.539991 0.244109,0.08114 0.514783,0 0.772095,0 l 0.386978,0 c 0.128655,0 0.270045,0.05738 0.385117,0 0.722118,-0.360077 0.32149,-1.059068 0,-1.539991 -0.100923,-0.150981 -0.284188,-0.233095 -0.385114,-0.384073 -0.159579,-0.238716 -0.227399,-0.531278 -0.386978,-0.769995 -0.100926,-0.150977 -0.28419,-0.234948 -0.385117,-0.385925 -0.159578,-0.238716 -0.2274,-0.531278 -0.386978,-0.769995 -0.100926,-0.150979 -0.28419,-0.233093 -0.385116,-0.38407 -0.850353,-0.193843 -0.20503,-0.791159 -0.386977,-1.154065 -0.08137,-0.162295 -0.284192,-0.234948 -0.385118,-0.385925 -1.399248,-2.790886 0.406689,0.609301 -0.772095,-1.154065 -0.934675,-1.398202 0.112868,-0.273365 -0.772094,-1.155921 l -0.385118,-0.38407 C 37.896484,51.662119 37.8009,51.485648 37.638162,51.4045 37.047777,51.110111 35.708855,52.780128 35.708855,50.63636 Z m 18.874461,0.749587 c -0.348054,-0.0063 -0.684142,-0.0067 -0.734886,0.01855 -0.162738,0.08114 -0.25646,0.257619 -0.385117,0.385925 -0.67519,0.673354 -1.349702,1.732095 -0.385117,2.694056 l 1.869772,0.372937 c 0.524836,0.02545 1.054726,0.01298 1.603725,0.01298 0.253623,0 0.939448,0.07239 1.157211,0 2.795731,-0.929376 -0.609215,0.110816 1.157212,-0.769995 0.115074,-0.05738 0.258321,0 0.386978,0 0.128656,-0.128307 0.233728,-0.285273 0.385117,-0.385925 0.887011,-0.589732 0.772095,-0.03224 0.772095,-0.769995 0,-0.128307 0.05753,-0.26931 0,-0.384071 -0.08137,-0.162296 -0.25646,-0.257618 -0.385117,-0.385925 -0.128657,-0.128305 -0.224239,-0.302921 -0.386978,-0.38407 -0.101487,-0.0506 -1.340498,0 -1.542329,0 l -0.386978,0 c -0.128656,0 -0.270042,0.05738 -0.385117,0 -0.162737,-0.08114 -0.224239,-0.304777 -0.386977,-0.385925 -0.101488,-0.0506 -1.342359,0 -1.54419,0 -0.100916,0 -0.46125,-0.01222 -0.809304,-0.01856 z m 3.125588,3.484459 c -0.287684,0 -0.514782,0.255764 -0.772094,0.384069 L 55.0075,54.870409 c 0.128656,0.513225 0.281084,1.019387 0.385117,1.538135 0.109,0.543513 -0.185341,0.558223 -0.385117,1.15592 -0.01046,0.0313 -0.0027,0.401379 0,0.729176 -0.05868,0.0111 -0.117715,0.02277 -0.171163,0.04082 l 0.171163,0 c 0.0015,0.132463 -0.0037,0.265243 0,0.307998 l -1.159073,0.461997 c 0.323317,-0.322436 0.590568,-0.635761 0.98791,-0.769995 l -0.98791,0 c -0.128655,0.128307 -0.212506,0.32669 -0.385117,0.38407 -0.244107,0.08114 -0.519778,-0.05033 -0.772095,0 -0.398945,0.07957 -0.7559,0.319221 -1.157211,0.385925 -0.380717,0.06328 -0.784627,-0.09336 -1.159072,0 -0.176515,0.04401 -0.233728,0.28342 -0.385118,0.384071 -0.239366,0.159144 -0.532726,0.22678 -0.772095,0.385925 -0.151388,0.100652 -0.303747,0.221773 -0.385117,0.38407 -0.02869,0.05723 -0.02825,1.455468 0,1.539989 0.09098,0.27218 0.181695,0.567126 0.385117,0.769996 0.203424,0.202869 0.532729,0.224926 0.772095,0.38407 0.30278,0.201304 0.446618,0.607698 0.772095,0.769995 0.246642,0.122985 1.233525,-0.103274 1.54419,0 0.27292,0.09072 0.499173,0.295198 0.772094,0.385925 0.244108,0.08114 0.512922,0 0.770234,0 l 1.931168,0 c 0.20183,0 1.442703,0.0506 1.544189,0 0.206141,-0.10279 0.954014,-0.953275 1.157212,-1.15592 0.203199,-0.202646 1.054142,-0.948486 1.157212,-1.154066 0.226292,-0.451352 -0.228199,-0.457012 -0.385117,-0.769994 -0.05754,-0.11476 0.05753,-0.271164 0,-0.385925 -0.08137,-0.162296 -0.258321,-0.255764 -0.386978,-0.38407 -0.128657,-0.128307 -0.233728,-0.283418 -0.385117,-0.38407 -0.16077,-0.909083 -0.808342,-0.177174 -1.157212,-0.385925 -0.258702,-0.1548 -0.478065,-0.383301 -0.701396,-0.599298 0.112697,-0.05629 0.229346,-0.114136 0.314419,-0.170698 0.302779,-0.201303 0.514783,-0.513382 0.772094,-0.769995 l 0.386978,-0.38407 c 0.128657,-0.128307 0.303749,-0.223629 0.385117,-0.385925 0.05753,-0.114761 0,-0.255764 0,-0.38407 0,-0.869624 0.05838,0.172832 -0.385117,-1.154066 -0.07689,-0.230038 0.198702,-0.769994 -0.386978,-0.769994 z m -2.701401,0 -0.05954,-0.01298 c -0.623627,-0.03024 -1.239707,-0.11728 -1.869772,-0.372937 0.417172,0.416038 1.316413,0.385925 1.929307,0.385925 z"
       id="path4233"
       inkscape:connector-curvature="0" />
  </g>
</svg>
