<?xml version="1.0" encoding="UTF-8" standalone="no"?>
<!-- Created with Inkscape (http://www.inkscape.org/) -->

<svg
   xmlns:dc="http://purl.org/dc/elements/1.1/"
   xmlns:cc="http://creativecommons.org/ns#"
   xmlns:rdf="http://www.w3.org/1999/02/22-rdf-syntax-ns#"
   xmlns:svg="http://www.w3.org/2000/svg"
   xmlns="http://www.w3.org/2000/svg"
   xmlns:sodipodi="http://sodipodi.sourceforge.net/DTD/sodipodi-0.dtd"
   xmlns:inkscape="http://www.inkscape.org/namespaces/inkscape"
   id="svg2"
   version="1.1"
   inkscape:version="0.91 r13725"
   width="360"
   height="300"
   viewBox="0 0 360 300"
   sodipodi:docname="land6.svg">
  <metadata
     id="metadata8">
    <rdf:RDF>
      <cc:Work
         rdf:about="">
        <dc:format>image/svg+xml</dc:format>
        <dc:type
           rdf:resource="http://purl.org/dc/dcmitype/StillImage" />
        <dc:title></dc:title>
      </cc:Work>
    </rdf:RDF>
  </metadata>
  <defs
     id="defs6" />
  <sodipodi:namedview
     pagecolor="#ffffff"
     bordercolor="#666666"
     borderopacity="1"
     objecttolerance="10"
     gridtolerance="10"
     guidetolerance="10"
     inkscape:pageopacity="0"
     inkscape:pageshadow="2"
     inkscape:window-width="1172"
     inkscape:window-height="638"
     id="namedview4"
     showgrid="true"
     inkscape:zoom="0.55625733"
     inkscape:cx="-205.18927"
     inkscape:cy="112.50781"
     inkscape:window-x="30"
     inkscape:window-y="36"
     inkscape:window-maximized="0"
     inkscape:current-layer="svg2">
    <inkscape:grid
       type="xygrid"
       id="grid4138"
       empspacing="1" />
  </sodipodi:namedview>
  <path
     style="fill:#d73e21;fill-rule:evenodd;stroke:#eabdaf;stroke-width:2.9;stroke-linecap:butt;stroke-linejoin:miter;stroke-opacity:1;fill-opacity:1;stroke-miterlimit:4;stroke-dasharray:none"
     d="m 100,110 0,-70 30,-30 70,20 20,50 20,100 -30,50 -20,-70 -30,-30 -30,40 z"
     id="path4140"
     inkscape:connector-curvature="0" />
  <path
     style="fill:none;fill-rule:evenodd;stroke:#eabdaf;stroke-width:2.9;stroke-linecap:butt;stroke-linejoin:miter;stroke-opacity:1;stroke-miterlimit:4;stroke-dasharray:none"
     d="m 160,130 -30,40 30,70 30,20 20,-20 0,-10 -20,-70 -30,-30 10,10 z"
     id="path4142"
     inkscape:connector-curvature="0" />
  <path
     style="fill:#f0a58f;fill-rule:evenodd;stroke:#eabdaf;stroke-width:2.9;stroke-linecap:butt;stroke-linejoin:miter;stroke-opacity:1;fill-opacity:1;stroke-miterlimit:4;stroke-dasharray:none"
     d="m 220,90 20,-40 30,40 10,40 -20,10 -20,40 z"
     id="path4144"
     inkscape:connector-curvature="0" />
  <path
     style="fill:#c62a12;fill-rule:evenodd;stroke:#eabdaf;stroke-width:2.9;stroke-linecap:butt;stroke-linejoin:miter;stroke-opacity:1;fill-opacity:1;stroke-miterlimit:4;stroke-dasharray:none"
     d="m 280,130 40,-10 -10,60 -40,40 -50,30 -30,10 20,-20 0,-20 30,-40 20,-40 z"
     id="path4146"
     inkscape:connector-curvature="0" />
  <path
     style="fill:#ce371b;fill-rule:evenodd;stroke:#eabdaf;stroke-width:2.9;stroke-linecap:butt;stroke-linejoin:miter;stroke-opacity:1;fill-opacity:1;stroke-miterlimit:4;stroke-dasharray:none"
     d="m 60,140 0,40 20,30 30,-10 30,20 20,20 -30,-70 -40,-30 z"
     id="path4148"
     inkscape:connector-curvature="0" />
  <path
     style="fill:#3eafdc;fill-rule:evenodd;stroke:#eabdaf;stroke-width:2.9;stroke-linecap:butt;stroke-linejoin:miter;stroke-opacity:1;fill-opacity:1;stroke-miterlimit:4;stroke-dasharray:none"
     d="m 270,220 30,0 30,30 -10,20 -70,0 -20,-20 z"
     id="path4150"
     inkscape:connector-curvature="0" />
  <path
     style="fill:#f2cbbf;fill-rule:evenodd;stroke:#eabdaf;stroke-width:2.9;stroke-linecap:butt;stroke-linejoin:miter;stroke-opacity:1;fill-opacity:1;stroke-miterlimit:4;stroke-dasharray:none"
     d="m 80,210 -20,0 40,10 20,20 30,-10 -40,-30 z"
     id="path4152"
     inkscape:connector-curvature="0" />
  <path
     style="fill:#2d7692;fill-rule:evenodd;stroke:#eabdaf;stroke-width:2.9;stroke-linecap:butt;stroke-linejoin:miter;stroke-opacity:1;fill-opacity:1;stroke-miterlimit:4;stroke-dasharray:none"
     d="m 100,220 -60,10 -10,30 40,10 10,20 60,10 60,-20 -10,-20 -40,-30 -30,10 z"
     id="path4154"
     inkscape:connector-curvature="0" />
  <path
     style="fill:#1cb2f1;fill-opacity:1;fill-rule:evenodd;stroke:#eabdaf;stroke-width:2.9;stroke-linecap:butt;stroke-linejoin:miter;stroke-opacity:1;stroke-miterlimit:4;stroke-dasharray:none"
     d="m 190,269.94627 10,-20 20,0 30,10 -20,20 z"
     id="path4156"
     inkscape:connector-curvature="0" />
  <path
     style="fill:#e1371a;fill-rule:evenodd;stroke:#eabdaf;stroke-width:2.9;stroke-linecap:butt;stroke-linejoin:miter;stroke-opacity:1;fill-opacity:1;stroke-miterlimit:4;stroke-dasharray:none"
     d="m 130,10 10,30 40,30 20,-40 z"
     id="path4158"
     inkscape:connector-curvature="0" />
  <path
     style="fill:#e4aa99;fill-rule:evenodd;stroke:#eabdaf;stroke-width:2.9;stroke-linecap:butt;stroke-linejoin:miter;stroke-opacity:1;fill-opacity:1;stroke-miterlimit:4;stroke-dasharray:none"
     d="m 130,10 -30,30 0,70 10,-60 30,-10 z"
     id="path4160"
     inkscape:connector-curvature="0" />
  <path
     style="fill:#e9b3a3;fill-rule:evenodd;stroke:#eabdaf;stroke-width:2.9;stroke-linecap:butt;stroke-linejoin:miter;stroke-opacity:1;fill-opacity:1;stroke-miterlimit:4;stroke-dasharray:none"
     d="m 140,40 0,40 30,40 -10,10 -30,40 -30,-60 10,-60 z"
     id="path4162"
     inkscape:connector-curvature="0" />
  <path
     style="fill:#e1dad7;fill-rule:evenodd;stroke:#eabdaf;stroke-width:2.9;stroke-linecap:butt;stroke-linejoin:miter;stroke-opacity:1;fill-opacity:1;stroke-miterlimit:4;stroke-dasharray:none"
     d="m 140,40 40,30 10,20 20,60 0,80 -20,-70 -20,-40 -30,-40 z"
     id="path4164"
     inkscape:connector-curvature="0" />
  <path
     style="fill:#e6856a;fill-rule:evenodd;stroke:#eabdaf;stroke-width:2.9;stroke-linecap:butt;stroke-linejoin:miter;stroke-opacity:1;fill-opacity:1;stroke-miterlimit:4;stroke-dasharray:none"
     d="m 320,120 -40,50 30,10 z"
     id="path4166"
     inkscape:connector-curvature="0" />
  <path
     style="fill:#edbdae;fill-rule:evenodd;stroke:#eabdaf;stroke-width:2.9;stroke-linecap:butt;stroke-linejoin:miter;stroke-opacity:1;fill-opacity:1;stroke-miterlimit:4;stroke-dasharray:none"
     d="m 320,120 -50,20 10,30 z"
     id="path4168"
     inkscape:connector-curvature="0" />
  <path
     style="fill:#e0795d;fill-rule:evenodd;stroke:#eabdaf;stroke-width:2.9;stroke-linecap:butt;stroke-linejoin:miter;stroke-opacity:1;fill-opacity:1;stroke-miterlimit:4;stroke-dasharray:none"
     d="m 280,170 -50,70 -40,20 30,-10 50,-30 40,-40 z"
     id="path4170"
     inkscape:connector-curvature="0" />
  <path
     style="fill:#f2866a;fill-rule:evenodd;stroke:#eabdaf;stroke-width:2.9;stroke-linecap:butt;stroke-linejoin:miter;stroke-opacity:1;fill-opacity:1;stroke-miterlimit:4;stroke-dasharray:none"
     d="m 260,140 10,0 10,30 -50,20 z"
     id="path4172"
     inkscape:connector-curvature="0" />
  <path
     style="fill:#fd896a;fill-rule:evenodd;stroke:#eabdaf;stroke-width:2.9;stroke-linecap:butt;stroke-linejoin:miter;stroke-opacity:1;fill-opacity:1;stroke-miterlimit:4;stroke-dasharray:none"
     d="m 60,140 40,40 -40,10 z"
     id="path4176"
     inkscape:connector-curvature="0" />
  <path
     style="fill:none;fill-rule:evenodd;stroke:#eabdaf;stroke-width:2.9;stroke-linecap:butt;stroke-linejoin:miter;stroke-opacity:1;stroke-miterlimit:4;stroke-dasharray:none"
     d="m 60,140 30,0 0,30 z"
     id="path4178"
     inkscape:connector-curvature="0" />
  <path
     style="fill:#fca289;fill-rule:evenodd;stroke:#eabdaf;stroke-width:2.9;stroke-linecap:butt;stroke-linejoin:miter;stroke-opacity:1;fill-opacity:1;stroke-miterlimit:4;stroke-dasharray:none"
     d="m 90,140 20,20 -10,20 -10,-10 z"
     id="path4180"
     inkscape:connector-curvature="0" />
  <path
     style="fill:#ea7254;fill-rule:evenodd;stroke:#eabdaf;stroke-width:2.9;stroke-linecap:butt;stroke-linejoin:miter;stroke-opacity:1;fill-opacity:1;stroke-miterlimit:4;stroke-dasharray:none"
     d="m 100,180 10,20 -30,10 -20,-20 z"
     id="path4182"
     inkscape:connector-curvature="0" />
  <path
     style="fill:#ff7854;fill-rule:evenodd;stroke:#eabdaf;stroke-width:2.9;stroke-linecap:butt;stroke-linejoin:miter;stroke-opacity:1;fill-opacity:1;stroke-miterlimit:4;stroke-dasharray:none"
     d="m 160,140 10,50 -40,-20 30,-40 z"
     id="path4184"
     inkscape:connector-curvature="0" />
  <path
     style="fill:#e27053;fill-rule:evenodd;stroke:#eabdaf;stroke-width:2.9;stroke-linecap:butt;stroke-linejoin:miter;stroke-opacity:1;fill-opacity:1;stroke-miterlimit:4;stroke-dasharray:none"
     d="m 160,130 30,30 0,10 -20,20 z"
     id="path4186"
     inkscape:connector-curvature="0" />
  <path
     style="fill:#e87d61;fill-rule:evenodd;stroke:#eabdaf;stroke-width:2.9;stroke-linecap:butt;stroke-linejoin:miter;stroke-opacity:1;fill-opacity:1;stroke-miterlimit:4;stroke-dasharray:none"
     d="m 170,190 0,50 -10,0 -30,-70 40,20 z"
     id="path4188"
     inkscape:connector-curvature="0" />
  <path
     style="fill:#d54f31;fill-rule:evenodd;stroke:#eabdaf;stroke-width:2.9;stroke-linecap:butt;stroke-linejoin:miter;stroke-opacity:1;fill-opacity:1;stroke-miterlimit:4;stroke-dasharray:none"
     d="m 190,170 -20,20 0,50 20,20 20,-20 0,-20 z"
     id="path4190"
     inkscape:connector-curvature="0" />
  <path
     style="fill:#d55133;fill-rule:evenodd;stroke:#eabdaf;stroke-width:2.9;stroke-linecap:butt;stroke-linejoin:miter;stroke-opacity:1;fill-opacity:1;stroke-miterlimit:4;stroke-dasharray:none"
     d="m 170,180 30,60 -10,-70 z"
     id="path4192"
     inkscape:connector-curvature="0" />
  <path
     style="fill:#49d0ff;fill-rule:evenodd;stroke:#eabdaf;stroke-width:2.9;stroke-linecap:butt;stroke-linejoin:miter;stroke-opacity:1;fill-opacity:1;stroke-miterlimit:4;stroke-dasharray:none"
     d="m 40,240 20,0 20,30 40,-30 -20,-20 -60,10 z"
     id="path4194"
     inkscape:connector-curvature="0" />
  <path
     style="fill:none;fill-rule:evenodd;stroke:#eabdaf;stroke-width:2.9;stroke-linecap:butt;stroke-linejoin:miter;stroke-opacity:1;stroke-miterlimit:4;stroke-dasharray:none"
     d="m 90,260 40,10 40,-10 30,10 -10,-10 -40,-30 -30,10 z"
     id="path4196"
     inkscape:connector-curvature="0" />
  <path
     style="fill:#0079ba;fill-rule:evenodd;stroke:#eabdaf;stroke-width:2.9;stroke-linecap:butt;stroke-linejoin:miter;stroke-opacity:1;fill-opacity:1;stroke-miterlimit:4;stroke-dasharray:none"
     d="m 130,270 20,20 50,-10 0,-10 -30,-10 z"
     id="path4198"
     inkscape:connector-curvature="0" />
  <path
     style="fill:#1cb2f1;fill-rule:evenodd;stroke:#eabdaf;stroke-width:2.9;stroke-linecap:butt;stroke-linejoin:miter;stroke-opacity:1;fill-opacity:1;stroke-miterlimit:4;stroke-dasharray:none"
     d="M 130,270 120,290 70,280 80,270 90,260 Z"
     id="path4200"
     inkscape:connector-curvature="0" />
  <path
     style="fill:#0d5a7a;fill-rule:evenodd;stroke:#eabdaf;stroke-width:2.9;stroke-linecap:butt;stroke-linejoin:miter;stroke-opacity:1;fill-opacity:1;stroke-miterlimit:4;stroke-dasharray:none"
     d="M 60,240 70,270 30,260 40,240 Z"
     id="path4202"
     inkscape:connector-curvature="0" />
  <path
     style="fill:#582c20;fill-rule:evenodd;stroke:#eabdaf;stroke-width:2.9;stroke-linecap:butt;stroke-linejoin:miter;stroke-opacity:1;fill-opacity:0.73039216;stroke-miterlimit:4;stroke-dasharray:none"
     d="m 300,220 20,50 10,-20 z"
     id="path4204"
     inkscape:connector-curvature="0" />
  <path
     style="fill:#0173a5;fill-rule:evenodd;stroke:#eabdaf;stroke-width:2.9;stroke-linecap:butt;stroke-linejoin:miter;stroke-opacity:1;fill-opacity:1;stroke-miterlimit:4;stroke-dasharray:none"
     d="m 310,240 -40,10 10,20 40,0 z"
     id="path4206"
     inkscape:connector-curvature="0" />
  <path
     style="fill:#56cefc;fill-rule:evenodd;stroke:#eabdaf;stroke-width:2.9;stroke-linecap:butt;stroke-linejoin:miter;stroke-opacity:1;fill-opacity:1;stroke-miterlimit:4;stroke-dasharray:none"
     d="m 300,220 -30,0 -40,30 40,0 40,-10 z"
     id="path4208"
     inkscape:connector-curvature="0" />
  <path
     style="fill:#3eafdc;fill-rule:evenodd;stroke:#eabdaf;stroke-width:2.9;stroke-linecap:butt;stroke-linejoin:miter;stroke-opacity:1;fill-opacity:1;stroke-miterlimit:4;stroke-dasharray:none"
     d="m 270,250 -10,20 -30,-20 z"
     id="path4210"
     inkscape:connector-curvature="0" />
  <path
     style="fill:#45d1a1;fill-rule:evenodd;stroke:#eaff00;stroke-width:3.2;stroke-linecap:butt;stroke-linejoin:miter;stroke-opacity:1;fill-opacity:1;stroke-miterlimit:4;stroke-dasharray:none"
     d="m 60,100 c 2.669492,-0.918079 5.266676,-2.082228 8.008475,-2.754237 0.291008,-0.07133 0.423728,0.423728 0.635593,0.635593 0.211864,0.211864 0.423729,0.423729 0.635593,0.635593 1.457311,1.457311 -0.401984,-0.26799 1.90678,1.271186 0.2493,0.166201 0.423729,0.423725 0.635593,0.635595 0.635593,0.63559 1.271186,1.27119 1.90678,1.90678 0.211864,0.21186 0.423728,0.42373 0.635593,0.63559 0.211864,0.21187 0.501598,0.36761 0.635593,0.63559 0.03547,0.0709 0.03547,3.10703 0,3.17797 -0.26799,0.53598 -0.938786,0.77259 -1.271186,1.27119 -0.262786,0.39418 -0.372808,0.87701 -0.635594,1.27118 -0.1662,0.2493 -0.423728,0.42373 -0.635593,0.6356 -0.211864,0.21186 -0.367603,0.5016 -0.635593,0.63559 -0.378995,0.1895 -0.892192,-0.1895 -1.271187,0 -0.267989,0.134 -0.367603,0.5016 -0.635593,0.63559 -0.167124,0.0836 -2.210008,0 -2.542373,0 -1.059322,0 -2.118644,0 -3.177966,0 -0.635593,0 -1.279834,0.10449 -1.906779,0 -0.660859,-0.11014 -1.249816,-0.5042 -1.90678,-0.63559 -0.831001,-0.1662 -1.738404,0.26799 -2.542373,0 -0.284246,-0.0948 -0.386293,-0.46939 -0.635593,-0.63559 -1.666094,-1.11073 -1.110729,-0.23757 -3.177966,-1.27119 -0.33946,-0.16973 -1.572163,-1.57216 -1.90678,-1.90678 -0.334617,-0.33462 -1.73705,-1.56732 -1.90678,-1.90678 -0.09475,-0.1895 0,-0.42373 0,-0.63559 0,-0.21187 0,-0.42373 0,-0.6356 0,-1.10933 -0.09475,-0.44609 0.635594,-1.90677 0.211864,-0.42373 0.372807,-0.87701 0.635593,-1.27119 0.365636,-0.548455 1.410326,-1.410328 1.90678,-1.906781 0.211864,-0.211864 0.423728,-0.423729 0.635593,-0.635593 0.211864,-0.211865 0.367603,-0.501599 0.635593,-0.635593 0.189497,-0.09475 0.446096,0.09475 0.635593,0 0.26799,-0.133995 0.367604,-0.501599 0.635593,-0.635594 0.229852,-0.114926 2.735886,0 3.177967,0 0.847457,0 1.694915,0 2.542372,0 0.635594,0 1.28353,-0.12465 1.90678,0 0.464544,0.09291 0.821754,0.485783 1.271187,0.635594 0.200992,0.067 0.423728,0 0.635593,0 C 66.977401,98.163842 68.488701,99.081921 70,100"
     id="path4220"
     inkscape:connector-curvature="0" />
  <path
     style="fill:#45d1a1;fill-rule:evenodd;stroke:#eaff00;stroke-width:3.2;stroke-linecap:butt;stroke-linejoin:miter;stroke-opacity:1;fill-opacity:1;stroke-miterlimit:4;stroke-dasharray:none"
     d="m 50,120 c 0.918079,0.25424 1.824841,0.5536 2.754237,0.76271 0.524249,0.11796 3.570955,0 3.81356,0 2.118644,0 4.237288,0 6.355932,0 0.423729,0 0.869202,0.134 1.271186,0 0.449433,-0.14981 0.806643,-0.54268 1.271187,-0.63559 0.62325,-0.12465 1.271186,0 1.906779,0 1.059322,0 2.118644,0 3.177966,0 1.694916,0 3.389831,0 5.084746,0 0.572901,0 2.777924,-0.13335 3.177966,0 0.449433,0.14981 0.877009,0.37281 1.271187,0.63559 0.2493,0.1662 0.423729,0.42373 0.635593,0.63559 0.211864,0.21187 0.501598,0.36761 0.635593,0.6356 0.08217,0.16433 0,3.36305 0,3.81356 0,1.05932 0,2.11864 0,3.17796 0,0.42373 0.133995,0.86921 0,1.27119 -0.149811,0.44943 -0.485782,0.82175 -0.635593,1.27119 -0.133995,0.40198 0.189497,0.89219 0,1.27118 -0.133995,0.26799 -0.501598,0.36761 -0.635593,0.6356 -0.09475,0.18949 0.09475,0.44609 0,0.63559 -0.133995,0.26799 -0.501599,0.3676 -0.635593,0.63559 -0.09475,0.1895 0,0.42373 0,0.6356 -0.211865,0.42372 -0.372808,0.877 -0.635594,1.27118 -0.96962,1.45443 -0.503116,-0.39743 -1.271186,1.90678 -0.067,0.20099 0.09475,0.4461 0,0.6356 -0.133995,0.26798 -0.423729,0.42372 -0.635593,0.63559 -0.211865,0.21186 -0.423729,0.42373 -0.635594,0.63559 -0.847457,0.84746 -1.694915,1.69492 -2.542372,2.54237 -0.635594,0.6356 -1.271187,1.27119 -1.90678,1.90678 -0.423729,0.42373 -0.772586,0.93879 -1.271187,1.27119 -0.394178,0.26279 -0.877008,0.37281 -1.271186,0.63559 -0.548453,0.36564 -1.410326,1.41033 -1.90678,1.90678 -0.495134,0.49514 -1.542587,1.09258 -1.271186,1.90678 0.508475,1.52543 0.550847,1.22882 1.90678,1.90678 0.423728,0.21187 0.847457,0.42373 1.271186,0.6356 4.60842,2.30421 -1.004961,-0.66998 1.90678,1.27118 0.788356,0.52557 1.754016,0.74562 2.542373,1.27119 0.548453,0.36563 1.410326,1.41033 1.906779,1.90678 0.496453,0.49645 1.541144,1.35832 1.90678,1.90678 0.262785,0.39418 0.372808,0.87701 0.635593,1.27118 0.1662,0.2493 0.469393,0.3863 0.635593,0.6356 0.262786,0.39418 0.300607,0.9362 0.635594,1.27118 0.334987,0.33499 0.877008,0.37281 1.271186,0.6356 0.2493,0.1662 0.423729,0.42373 0.635593,0.63559 1.435955,1.43596 -0.189497,-0.37899 1.271187,2.54237 0.281675,0.56335 1.521053,1.32819 1.906779,1.90678 0.262786,0.39418 0.372808,0.87701 0.635594,1.27119 0.3324,0.4986 0.938786,0.77259 1.271186,1.27119 0.525571,0.78835 0.745616,1.75401 1.271186,2.54237 0.488918,0.73338 1.417862,1.1734 1.90678,1.90678 0.262786,0.39418 0.372808,0.87701 0.635593,1.27119 0.1662,0.2493 0.469393,0.38629 0.635594,0.63559 2.140595,3.21089 0.0049,0.0147 0.635593,1.90678 0.149811,0.44943 0.485782,0.82175 0.635593,1.27118 0.133995,0.40199 0,0.84746 0,1.27119 0,0.33237 0.08356,2.37525 0,2.54237 -0.133995,0.26799 -0.367604,0.5016 -0.635593,0.6356 -0.229852,0.11492 -2.735886,0 -3.177966,0 -0.635594,0 -1.28353,0.12465 -1.90678,0 -1.645864,-0.32918 -0.868724,-0.57915 -1.90678,-1.27119 -4.60842,-2.30421 1.004961,0.66997 -1.906779,-1.27119 -2.775981,-1.85065 0.209503,0.2817 -2.542373,-0.63559 -0.250686,-0.0836 -2.210008,-2.21001 -2.542373,-2.54237 C 76.271186,177.9661 75,176.69492 73.728814,175.42373 c -0.496454,-0.49645 -1.541144,-1.35833 -1.90678,-1.90678 -0.262786,-0.39418 -0.372808,-0.87701 -0.635593,-1.27119 -0.332401,-0.4986 -0.847458,-0.84745 -1.271187,-1.27118 -0.635593,-0.6356 -1.271186,-1.27119 -1.906779,-1.90678 -0.423729,-0.42373 -0.847458,-0.84746 -1.271187,-1.27119 -0.211864,-0.21186 -0.423729,-0.84746 -0.635593,-0.63559 -0.485907,0.4859 0.634292,3.17016 0.635593,3.17796 0.104491,0.62695 0,1.27119 0,1.90678 0.211865,0.6356 0.504201,1.24982 0.635593,1.90678 0.0831,0.4155 -0.102769,0.86011 0,1.27119 0.1149,0.4596 0.542685,0.80664 0.635594,1.27119 0.20775,1.03875 -0.256924,2.15027 0,3.17796 0.114899,0.4596 0.485782,0.82176 0.635593,1.27119 0.067,0.20099 0,0.42373 0,0.63559 0.211864,0.42373 0.485782,0.82176 0.635593,1.27119 0.119534,0.3586 0,1.48912 0,1.90678 0,1.48305 0,2.9661 0,4.44915 0,5.08475 0,10.16949 0,15.25424 0,8.47457 0,16.94915 0,25.42373 0,2.54237 0,5.08474 0,7.62711 0,0.61581 0.126329,3.43458 0,3.81356 -0.149811,0.44944 -0.372808,0.87701 -0.635593,1.27119 -0.179603,0.2694 -1.643803,1.77529 -1.90678,1.90678 -0.193432,0.0967 -1.620535,0 -1.906779,0 -1.483051,0 -2.966102,0 -4.449153,0 -1.483051,0 -2.966102,0 -4.449153,0 -0.417653,0 -1.548179,0.11953 -1.906779,0 -0.449433,-0.14981 -0.811588,-0.52069 -1.271187,-0.63559 -0.411077,-0.10277 -0.869202,0.13399 -1.271186,0 -0.568492,-0.1895 -0.735207,-1.0032 -1.271187,-1.27119 -0.189497,-0.0947 -0.434601,0.067 -0.635593,0 -0.841783,-0.28059 -2.026937,-1.13363 -2.542373,-1.90678 -0.262785,-0.39418 -0.520693,-0.81159 -0.635593,-1.27119 -0.124992,-0.49996 0,-3.15259 0,-3.81356 0,-0.66096 -0.124992,-3.31359 0,-3.81355 0.1149,-0.4596 0.520694,-0.81159 0.635593,-1.27119 0.205539,-0.82216 -0.267989,-1.73841 0,-2.54237 0.09475,-0.28425 0.501599,-0.36761 0.635594,-0.6356 0.179568,-0.35913 -0.177755,-2.6447 0,-3.17796 0.14981,-0.44944 0.485782,-0.82176 0.635593,-1.27119 0.133995,-0.40198 -0.133995,-0.8692 0,-1.27119 0.149811,-0.44943 0.542684,-0.80664 0.635593,-1.27118 0.12465,-0.62325 -0.154154,-1.29017 0,-1.90678 0.07267,-0.29068 0.540845,-0.35135 0.635593,-0.6356 0.120522,-0.36156 0,-2.57934 0,-3.17796 0,-0.21187 -0.067,-0.4346 0,-0.63559 0.149811,-0.44944 0.423729,-0.84746 0.635593,-1.27119 0,-0.63559 -0.154154,-1.29016 0,-1.90678 0.07267,-0.29068 0.540845,-0.35135 0.635594,-0.63559 0.113899,-0.3417 0,-2.00425 0,-2.54238 0,-1.90678 0,-3.81356 0,-5.72034 0,-5.9322 0,-11.8644 0,-17.79661 0,-1.69491 0,-3.38983 0,-5.08474 0,-0.41766 -0.119534,-1.54818 0,-1.90678 0.919839,-2.75952 0.635593,0.43665 0.635593,-3.17797 0,-1.43595 -0.09475,0.28425 0.635593,-1.90678 0.145727,-0.43718 -0.187506,-1.53176 0,-1.90678 0.133995,-0.26799 0.635593,-0.33597 0.635593,-0.63559 0,-0.29962 -0.335971,-0.63559 -0.635593,-0.63559 -0.299621,0 -0.367603,0.50159 -0.635593,0.63559 -0.378995,0.1895 -0.892192,-0.1895 -1.271187,0 -0.267989,0.13399 -0.386293,0.46939 -0.635593,0.63559 -0.394178,0.26279 -0.847457,0.42373 -1.271186,0.6356 -4.608421,2.30421 1.004961,-0.66998 -1.90678,1.27118 -0.394178,0.26279 -0.877008,0.37281 -1.271186,0.6356 -0.548454,0.36563 -1.410327,1.41032 -1.90678,1.90678 -0.211864,0.21186 -0.423729,0.42372 -0.635593,0.63559 -0.211865,0.21186 -0.501599,0.3676 -0.635593,0.63559 -0.09475,0.1895 0.09475,0.4461 0,0.6356 -0.133995,0.26798 -0.501599,0.3676 -0.635594,0.63559 -0.189497,0.37899 0.189498,0.89219 0,1.27118 -0.133994,0.26799 -0.501598,0.36761 -0.635593,0.6356 -0.09475,0.1895 0.067,0.4346 0,0.63559 -0.149811,0.44943 -0.485782,0.82176 -0.635593,1.27119 -0.067,0.20099 0.067,0.4346 0,0.63559 -0.299622,0.89887 -0.971565,1.64351 -1.271187,2.54237 -0.067,0.201 0.067,0.4346 0,0.6356 -0.299621,0.89886 -0.971564,1.64351 -1.271186,2.54237 -0.067,0.20099 0.067,0.4346 0,0.63559 -0.384794,1.15439 -0.543971,1.17957 -1.271186,1.90678 -1.305458,1.30546 -0.111991,-0.18763 -0.635594,1.90678 -0.114899,0.4596 -0.372807,0.87701 -0.635593,1.27119 -0.1662,0.2493 -0.562924,0.34492 -0.635593,0.63559 -0.154154,0.61662 0.154154,1.29017 0,1.90678 -0.02231,0.0892 -1.148135,1.08661 -1.271187,1.27119 -0.262785,0.39418 -0.485782,0.82175 -0.635593,1.27118 -0.067,0.201 0.09475,0.4461 0,0.6356 -0.423729,0.84746 -0.847457,0.84746 -1.271186,0 -0.09475,-0.1895 0,-0.42373 0,-0.6356 0,-0.21186 0,-0.42372 0,-0.63559 0,-1.05932 0,-2.11864 0,-3.17796 0,-3.38984 0,-6.77967 0,-10.1695 0,-4.23728 0,-8.47457 0,-12.71186 0,-1.05932 0,-2.11864 0,-3.17797 0,-0.41765 -0.119534,-1.54818 0,-1.90678 0.149811,-0.44943 0.423729,-0.84745 0.635593,-1.27118 0.211864,-0.42373 0.372808,-0.87701 0.635593,-1.27119 0.1662,-0.2493 0.501599,-0.3676 0.635593,-0.63559 0.09475,-0.1895 0,-0.42373 0,-0.6356 0.211865,-0.42372 0.372808,-0.877 0.635594,-1.27118 0.3324,-0.4986 1.081689,-0.7027 1.271186,-1.27119 0.133995,-0.40198 -0.133995,-0.8692 0,-1.27118 0.189497,-0.5685 0.938786,-0.77259 1.271187,-1.27119 1.622992,-2.43449 -0.351806,-0.10789 1.271186,-2.54237 0.96962,-1.45443 0.503116,0.39743 1.271186,-1.90678 0.067,-0.201 -0.09475,-0.4461 0,-0.6356 0.26799,-0.53598 1.003197,-0.7352 1.271187,-1.27118 0.09475,-0.1895 -0.09475,-0.4461 0,-0.6356 0.133995,-0.26799 0.469393,-0.38629 0.635593,-0.63559 0.525571,-0.78836 0.745616,-1.75402 1.271187,-2.54237 0.1662,-0.2493 0.469393,-0.3863 0.635593,-0.6356 0.262785,-0.39417 0.372808,-0.877 0.635593,-1.27118 0.3324,-0.4986 0.938786,-0.77259 1.271186,-1.27119 0.262786,-0.39418 0.372808,-0.87701 0.635594,-1.27119 0.20544,-0.30816 2.869805,-2.97252 3.177966,-3.17796 0.394178,-0.26279 0.877008,-0.37281 1.271186,-0.63559 0.2493,-0.1662 0.367604,-0.5016 0.635593,-0.6356 0.189498,-0.0948 0.423729,0 0.635594,0 0.423728,-0.21186 0.877008,-0.37281 1.271186,-0.63559 0.2493,-0.1662 0.386293,-0.46939 0.635593,-0.63559 0.394178,-0.26279 0.877009,-0.37281 1.271187,-0.6356 0.2493,-0.1662 0.386293,-0.46939 0.635593,-0.63559 0.423729,-0.21187 0.847458,-0.42373 1.271186,-0.63559 0.211865,0 0.446096,0.0947 0.635594,0 0.267989,-0.134 0.367603,-0.5016 0.635593,-0.6356 0.189497,-0.0947 0.446096,0.0948 0.635593,0 0.563351,-0.28167 1.32819,-1.52105 1.90678,-1.90678 2.308764,-1.53917 0.449469,0.18613 1.906779,-1.27118 0.211865,-0.21187 0.635594,-0.33598 0.635594,-0.6356 0,-1.12994 -1.059322,-1.62429 -1.90678,-1.90678 -0.401984,-0.13399 -0.847458,0 -1.271186,0 -0.572902,0 -2.777925,-0.13334 -3.177967,0 -0.898864,0.29963 -1.643508,0.97157 -2.542372,1.27119 -0.200993,0.067 -0.434601,-0.067 -0.635594,0 -0.898864,0.29962 -1.662654,0.9193 -2.542373,1.27119 -0.622055,0.24882 -1.284724,0.38677 -1.906779,0.63559 -0.43986,0.17594 -0.821754,0.48578 -1.271187,0.63559 -0.200992,0.067 -0.434601,-0.067 -0.635593,0 -0.898864,0.29962 -1.643508,0.97157 -2.542373,1.27119 -0.200992,0.067 -0.434601,-0.067 -0.635593,0 -0.449432,0.14981 -0.821754,0.48578 -1.271186,0.63559 -0.398933,0.13298 -2.030698,0 -2.542373,0 -0.423729,0 -0.869202,0.134 -1.271187,0 -0.841783,-0.28059 -2.026937,-1.13362 -2.542373,-1.90678 -0.262785,-0.39418 -0.372807,-0.87701 -0.635593,-1.27118 -0.1662,-0.2493 -0.562924,-0.34492 -0.635593,-0.6356 -0.154154,-0.61661 0,-1.27118 0,-1.90678 0,-0.42373 0,-0.84745 0,-1.27118 0,-0.6356 0,-1.27119 0,-1.90678 0,-0.42373 -0.133995,-0.8692 0,-1.27119 0.149811,-0.44943 0.423729,-0.84746 0.635593,-1.27119 0.211865,-0.42372 0.372808,-0.877 0.635593,-1.27118 0.17408,-0.26112 1.645661,-1.7327 1.90678,-1.90678 0.394178,-0.26279 0.877008,-0.37281 1.271186,-0.63559 0.249301,-0.1662 0.367604,-0.5016 0.635594,-0.6356 0.189497,-0.0948 0.446096,0.0948 0.635593,0 0.26799,-0.13399 0.367603,-0.5016 0.635593,-0.63559 0.08681,-0.0434 3.726754,-0.0434 3.813559,0 0.26799,0.13399 0.386293,0.46939 0.635594,0.63559 0.394178,0.26279 0.877008,0.37281 1.271186,0.6356 0.2493,0.1662 0.338914,0.5937 0.635593,0.63559 C 48.01379,120.26546 49.011299,120.04237 50,120 Z"
     id="path4222"
     inkscape:connector-curvature="0" />
  <path
     style="fill:#45d1a1;fill-rule:evenodd;stroke:#eaff00;stroke-width:3.2;stroke-linecap:butt;stroke-linejoin:miter;stroke-opacity:1;fill-opacity:1;stroke-miterlimit:4;stroke-dasharray:none"
     d="M 138.80469 80.669922 C 138.31586 80.653112 137.6023 80.720703 137.28906 80.720703 L 132.83984 80.720703 L 125.84766 80.720703 L 123.30469 80.720703 C 122.15827 80.720703 121.04679 80.43563 120.12695 81.355469 C 119.97714 81.50528 120.12695 81.780321 120.12695 81.992188 L 120.12695 85.169922 C 120.12695 85.593651 120.02418 86.030329 120.12695 86.441406 C 120.24185 86.901004 120.61386 87.261502 120.76367 87.710938 C 120.89767 88.112921 120.6609 88.571344 120.76367 88.982422 C 120.92616 89.632392 121.26704 90.233662 121.39844 90.890625 C 121.48154 91.306126 121.26444 91.758171 121.39844 92.160156 C 121.49318 92.444402 121.9384 92.512629 122.0332 92.796875 C 122.16719 93.19886 122.0332 93.64463 122.0332 94.068359 C 122.0332 94.703952 121.90855 95.351359 122.0332 95.974609 C 122.12611 96.439153 122.52011 96.796661 122.66992 97.246094 C 122.8606 97.818128 122.47924 98.58031 122.66992 99.152344 C 122.81973 99.601777 123.15488 99.974388 123.30469 100.42383 C 123.45042 100.86101 123.11719 101.95507 123.30469 102.33008 C 123.43869 102.59807 123.86871 102.67613 123.94141 102.9668 C 124.14695 103.78896 123.94141 104.66036 123.94141 105.50781 L 123.94141 109.95703 L 123.94141 114.40625 C 123.94141 115.55638 124.26298 117.89718 123.30469 118.85547 C 122.96971 119.19046 122.48263 119.34237 122.0332 119.49219 C 121.63427 119.62516 120.00386 119.49219 119.49219 119.49219 L 114.40625 119.49219 L 104.87305 119.49219 L 102.9668 119.49219 C 102.54307 119.49219 102.09729 119.35819 101.69531 119.49219 C 101.24587 119.642 100.87326 119.97714 100.42383 120.12695 C 100.22284 120.19395 100.00093 120.12695 99.789062 120.12695 C 99.153469 120.12695 98.504109 120.0023 97.880859 120.12695 C 97.416316 120.21986 97.068973 120.64877 96.609375 120.76367 C 96.198297 120.86644 95.741829 120.62968 95.339844 120.76367 C 95.055598 120.85842 94.971115 121.26445 94.703125 121.39844 C 94.103882 121.69807 93.396118 121.73358 92.796875 122.0332 C 92.149822 122.35672 91.783438 123.42531 91.525391 123.94141 C 91.313526 124.36514 91.040435 124.76151 90.890625 125.21094 C 90.757277 125.61099 90.890625 127.81772 90.890625 128.39062 L 90.890625 133.47461 L 90.890625 135.38086 C 90.890625 135.80458 90.970785 136.23627 90.890625 136.65234 C 90.672201 137.78606 90.29661 138.88418 90 140 L 88.982422 137.28906 C 88.696178 137.28906 87.269605 137.19236 87.076172 137.28906 C 86.808183 137.42305 86.575401 137.65584 86.441406 137.92383 C 86.344686 138.11726 86.441406 139.54383 86.441406 139.83008 L 86.441406 144.91602 L 86.441406 151.27148 C 86.441406 151.68048 86.333872 155.29056 86.441406 155.7207 C 86.556306 156.1803 86.961273 156.53259 87.076172 156.99219 C 87.281711 157.81434 86.870634 158.71104 87.076172 159.5332 C 87.191072 159.9928 87.499071 160.38097 87.710938 160.80469 C 88.134664 161.65215 88.6828 162.44879 88.982422 163.34766 C 89.613115 165.23974 87.478545 162.04301 89.619141 165.25391 C 89.785341 165.50321 90.042042 165.67876 90.253906 165.89062 L 92.796875 168.43164 C 93.220604 168.85537 93.735958 169.20452 94.068359 169.70312 C 94.331144 170.09731 94.440339 170.58043 94.703125 170.97461 C 94.968021 171.37195 97.679389 174.00124 97.880859 174.15234 C 98.259854 174.43659 98.728616 174.57719 99.152344 174.78906 L 100.42383 175.42383 C 101.27129 175.84756 102.06794 176.39568 102.9668 176.69531 C 103.09337 176.73751 104.74648 176.73751 104.87305 176.69531 C 105.32248 176.54549 105.68493 176.17349 106.14453 176.05859 C 106.96668 175.85305 107.8634 176.26413 108.68555 176.05859 C 109.14515 175.94369 109.49248 175.51673 109.95703 175.42383 C 110.58028 175.29918 111.23828 175.52832 111.86523 175.42383 C 112.52609 175.31369 113.11062 174.8992 113.77148 174.78906 C 114.39842 174.68456 115.05078 174.89355 115.67773 174.78906 C 116.33858 174.67891 116.92312 174.26249 117.58398 174.15234 C 122.73748 173.29342 116.17254 175.25954 121.39844 173.51758 C 122.397 173.18472 124.92239 172.12968 125.84766 173.51758 C 125.97393 173.70698 125.84766 176.91262 125.84766 177.33008 L 125.84766 186.86523 L 125.84766 225.63477 L 125.84766 227.54297 C 125.84766 228.17857 125.95215 228.82228 125.84766 229.44922 C 125.62737 230.77094 124.83896 231.94974 124.57617 233.26367 C 124.49307 233.67917 124.57617 234.10947 124.57617 234.5332 L 124.57617 236.44141 C 124.57617 237.077 124.34012 237.75752 124.57617 238.34766 C 124.79872 238.90404 125.31168 239.35115 125.84766 239.61914 C 126.22665 239.80864 126.69542 239.61914 127.11914 239.61914 L 130.93164 239.61914 L 132.83984 239.61914 C 133.26357 239.61914 133.70739 239.75314 134.10938 239.61914 C 134.89477 239.35734 134.74609 238.91263 134.74609 238.34766 L 134.74609 230.08398 L 134.74609 183.68555 L 134.74609 176.69531 C 134.74609 175.63598 134.95384 174.55633 134.74609 173.51758 C 134.65318 173.05304 134.22428 172.70569 134.10938 172.24609 C 133.90383 171.42394 134.31492 170.52528 134.10938 169.70312 C 133.64129 167.83077 132.86852 168.94975 133.47461 166.52539 C 133.54728 166.23472 133.81869 165.96332 134.10938 165.89062 C 134.726 165.73647 135.38199 165.89062 136.01758 165.89062 L 139.19531 165.89062 L 149.36523 165.89062 L 152.54297 165.89062 C 153.39043 165.89062 154.24306 165.99573 155.08398 165.89062 C 159.31247 165.36207 156.18076 165.52504 158.89844 164.61914 C 159.30042 164.48515 159.76794 164.75314 160.16992 164.61914 C 160.61935 164.46933 160.99198 164.13223 161.44141 163.98242 C 161.6424 163.91542 161.86431 163.98242 162.07617 163.98242 L 162.71094 163.98242 C 162.71094 163.77056 163.55952 163.98242 163.34766 163.98242 L 163.98242 163.98242 C 166.02836 163.98242 162.8977 164.13306 165.25391 163.34766 C 166.15671 163.04672 167.98336 164.05581 168.43164 162.71094 C 168.50333 162.49589 168.49868 162.26902 168.47852 162.03906 C 168.46388 162.05218 168.4594 162.07617 168.43164 162.07617 C 168.21978 162.07617 168.43164 161.22954 168.43164 161.44141 L 168.43164 160.16992 L 168.43164 156.99219 L 168.43164 151.90625 C 168.43164 151.27778 168.56976 149.9177 168.43164 149.36523 C 168.26915 148.71526 167.95935 148.107 167.79688 147.45703 C 167.64732 146.85882 167.94643 146.14898 167.79688 145.55078 C 167.63438 144.90081 167.32265 144.2945 167.16016 143.64453 C 167.05739 143.23345 167.29415 142.77504 167.16016 142.37305 C 167.01035 141.92362 166.6752 141.551 166.52539 141.10156 C 166.33472 140.52953 166.71607 139.76734 166.52539 139.19531 C 166.37558 138.74587 166.04044 138.37326 165.89062 137.92383 C 165.69995 137.35179 166.0813 136.58961 165.89062 136.01758 C 165.74081 135.56815 165.34681 135.21064 165.25391 134.74609 C 165.21071 134.53025 165.41033 132.03763 165.25391 131.56836 C 165.1041 131.11892 164.76895 130.74631 164.61914 130.29688 C 164.55214 130.09589 164.68614 129.86115 164.61914 129.66016 C 164.46933 129.21072 164.07532 128.85516 163.98242 128.39062 C 163.85777 127.76738 163.98242 127.11801 163.98242 126.48242 C 163.98242 126.27056 164.04942 126.04865 163.98242 125.84766 C 163.83261 125.39823 163.55952 124.9999 163.34766 124.57617 C 163.34766 124.15244 163.45043 123.71577 163.34766 123.30469 C 163.23276 122.8451 162.86076 122.48263 162.71094 122.0332 C 162.57695 121.63121 163.01057 121.06329 162.71094 120.76367 C 161.71383 119.76656 158.98184 120.12695 157.62695 120.12695 L 147.45703 120.12695 C 147.2085 120.12695 143.28195 120.21835 143.00781 120.12695 C 142.4624 119.94514 141.83363 118.51271 141.73633 118.2207 C 141.60298 117.82066 141.73633 115.61587 141.73633 115.04297 L 141.73633 108.68555 L 141.73633 88.347656 L 141.73633 85.804688 C 141.73633 83.429158 141.74084 81.569216 139.19531 80.720703 C 139.10566 80.69082 138.96763 80.675525 138.80469 80.669922 z M 168.43164 161.44141 C 168.43164 161.63845 168.46099 161.83918 168.47852 162.03906 C 168.57563 161.95206 168.43164 161.62551 168.43164 161.44141 z M 163.34766 163.98242 L 162.71094 163.98242 C 162.71094 164.19429 163.13579 163.98242 163.34766 163.98242 z M 88.982422 137.28906 C 89.194286 137.28906 89.619141 137.50092 89.619141 137.28906 C 89.619141 137.07719 89.194286 137.28906 88.982422 137.28906 z M 149.52344 129.73633 C 149.7176 129.74799 149.88168 129.82252 150 130 C 150.14067 130.21101 150.10903 130.42637 150 130.64453 L 150 131.54102 C 150.83026 132.05851 152.22593 132.62849 152.54297 132.83984 C 153.783 133.66653 152.85626 133.14497 153.17773 134.10938 C 153.32754 134.55881 153.66464 134.93142 153.81445 135.38086 C 153.88145 135.58185 153.81445 135.80571 153.81445 136.01758 C 153.81445 137.46913 153.98558 138.86834 152.54297 139.83008 C 149.33208 141.97067 152.52685 139.83621 150.63477 140.4668 C 150.18534 140.61661 149.81466 140.95175 149.36523 141.10156 C 149.16423 141.16856 148.94039 141.10156 148.72852 141.10156 C 146.18439 141.10156 147.07759 141.35689 145.55078 139.83008 C 145.33891 139.61821 145.05002 139.46329 144.91602 139.19531 C 144.83242 139.02818 144.91602 136.98471 144.91602 136.65234 L 144.91602 132.83984 L 144.91602 132.20312 C 144.91602 131.99126 144.82132 131.75785 144.91602 131.56836 C 145.05002 131.30037 145.33891 131.14351 145.55078 130.93164 C 145.76264 130.71978 145.91756 130.43085 146.18555 130.29688 C 146.37505 130.20218 146.61041 130.29688 146.82227 130.29688 C 147.03414 130.29688 147.24608 130.31658 147.45703 130.29688 C 148.09416 130.2374 148.94095 129.70133 149.52344 129.73633 z M 150 131.54102 C 149.82698 131.43317 149.66654 131.328 149.56055 131.22852 C 149.25656 131.55256 148.90676 131.87833 148.72852 132.20312 C 147.07497 135.21626 148.83475 131.78209 148.09375 134.74609 C 147.97885 135.20569 147.71981 135.6234 147.45703 136.01758 C 147.29083 136.26688 146.66107 136.39978 146.82227 136.65234 C 147.65008 137.94924 148.94068 138.88418 150 140 L 150 131.54102 z M 149.56055 131.22852 C 149.74421 131.03274 149.90377 130.83709 150 130.64453 L 150 130 C 149.78814 130.31073 149.36523 130.55556 149.36523 130.93164 C 149.36523 131.01976 149.447 131.12193 149.56055 131.22852 z M 109.89648 129.99609 C 109.92393 129.98506 109.95835 129.98611 110 130 C 111.0538 130.35127 111.67656 131.45758 112.5 132.20312 C 112.78783 132.46373 114.2711 133.83907 114.40625 134.10938 C 114.50295 134.30281 114.40625 135.73133 114.40625 136.01758 C 114.40625 136.43523 114.52578 137.56523 114.40625 137.92383 C 114.25644 138.37326 113.92129 138.74587 113.77148 139.19531 C 113.70448 139.3963 113.86618 139.64058 113.77148 139.83008 C 113.48059 140.41185 112.32971 140.94674 111.86523 141.10156 C 111.66423 141.16856 111.41802 141.19636 111.22852 141.10156 C 111.10686 141.04076 108.74638 138.68026 108.68555 138.55859 C 108.59075 138.36909 108.78025 138.11333 108.68555 137.92383 C 108.30419 137.16112 107.16066 136.78029 106.7793 136.01758 C 106.6845 135.82808 106.7793 135.59272 106.7793 135.38086 C 106.7793 135.16899 106.6845 134.93559 106.7793 134.74609 C 106.9133 134.4781 107.24982 134.35867 107.41602 134.10938 C 109.47469 129.99203 106.89968 134.80428 108.68555 132.20312 C 109.09613 131.60511 109.44436 130.96684 109.80664 130.33789 C 109.79219 130.16473 109.81416 130.0292 109.89648 129.99609 z M 109.80664 130.33789 C 109.84869 130.84158 110.23541 131.70395 110.59375 131.56836 C 111.11635 131.37062 110.19774 130.5226 110 130 C 109.9336 130.11139 109.87141 130.22545 109.80664 130.33789 z M 149.78906 149.94141 C 149.86044 149.94624 149.93094 149.96547 150 150 L 151.90625 151.27148 C 152.11811 151.48334 152.29367 151.74005 152.54297 151.90625 C 153.12358 152.29332 154.0849 152.44907 154.44922 153.17773 C 154.54402 153.36722 154.44922 153.60258 154.44922 153.81445 L 154.44922 154.44922 C 154.44922 156.24077 154.63471 156.80669 153.17773 158.26367 C 152.96586 158.47554 152.81096 158.76444 152.54297 158.89844 C 152.34954 158.99514 150.92102 158.89844 150.63477 158.89844 C 148.84322 158.89844 148.27926 159.08393 146.82227 157.62695 C 146.61041 157.41508 146.31955 157.26017 146.18555 156.99219 C 146.09075 156.80269 146.18555 156.56734 146.18555 156.35547 L 146.18555 155.7207 L 146.18555 155.08398 C 146.18555 154.87211 146.09075 154.63872 146.18555 154.44922 C 146.51332 153.79368 150.90745 150.45372 150 150 C 149.71645 150.17013 149.31172 150.31152 148.88281 150.44531 C 148.06297 151.23772 147.25589 152.62895 146.82227 151.90625 C 146.3568 151.13048 147.70935 150.81135 148.88281 150.44531 C 149.18958 150.14881 149.49752 149.92165 149.78906 149.94141 z M 110 150 C 110.57871 155.71934 110.0755 155.20241 112.5 157.62695 L 113.13477 158.26367 C 113.34664 158.47554 113.63748 158.63045 113.77148 158.89844 C 113.86618 159.08793 113.77148 159.32133 113.77148 159.5332 C 113.77148 159.74506 113.86618 159.98042 113.77148 160.16992 C 113.63748 160.43791 113.34664 160.59283 113.13477 160.80469 C 112.92291 161.01656 112.76799 161.30741 112.5 161.44141 C 112.30657 161.53811 110.87999 161.44141 110.59375 161.44141 L 109.32227 161.44141 C 107.5588 161.44141 107.52429 161.72453 106.14453 160.80469 C 105.89523 160.63849 105.71968 160.38179 105.50781 160.16992 C 105.29595 159.95806 105.00705 159.80119 104.87305 159.5332 C 104.77835 159.3437 104.94005 159.09943 104.87305 158.89844 C 104.57343 157.99957 103.90119 157.25434 103.60156 156.35547 C 103.53456 156.15448 103.60156 155.93256 103.60156 155.7207 C 103.60156 155.29697 103.46757 154.85121 103.60156 154.44922 C 103.98917 153.28641 104.68965 152.72442 105.50781 151.90625 C 106.00702 151.40704 106.02706 151.29757 106.20117 151.27539 C 106.18247 151.27506 106.16318 151.27148 106.14453 151.27148 L 106.22656 151.27148 C 106.2174 151.27212 106.20947 151.27433 106.20117 151.27539 C 106.81986 151.28622 107.46485 151.46465 108.05078 151.27148 C 108.78746 151.02861 109.35028 150.42373 110 150 z "
     id="path4228" />
  <path
     style="fill:#45d1a1;fill-rule:evenodd;stroke:#eaff00;stroke-width:3.2;stroke-linecap:butt;stroke-linejoin:miter;stroke-opacity:1;fill-opacity:1;stroke-miterlimit:4;stroke-dasharray:none"
     d="M 200 110 C 198.95045 110.11319 197.9035 110.25154 196.85156 110.33984 C 196.62927 110.35854 195.08413 110.31894 195.05273 110.33984 C 194.69293 110.57971 194.38939 110.88607 194.09766 111.20898 C 194.11664 111.2188 194.13531 111.2193 194.1543 111.23828 C 194.45392 111.53791 192.95624 112.43634 193.25586 112.13672 C 192.22742 113.16516 192.00316 113.20144 191.45898 114.83398 C 191.27092 115.39816 191.45898 117.70607 191.45898 118.42969 L 191.45898 126.51953 L 191.45898 134.60938 C 191.45898 135.20002 191.62803 136.79755 191.45898 137.30469 C 191.24712 137.94028 190.77045 138.46792 190.55859 139.10352 C 190.46379 139.38776 190.55859 139.70233 190.55859 140.00195 L 190.55859 143.59766 C 190.55859 145.09577 190.80487 146.61408 190.55859 148.0918 C 190.40282 149.0264 189.81593 149.85447 189.66016 150.78906 C 189.51239 151.6757 189.87817 152.61235 189.66016 153.48438 C 189.55739 153.89546 188.86449 153.9737 188.76172 154.38477 C 188.54371 155.2568 188.76172 156.18121 188.76172 157.08008 C 188.46209 157.3797 187.99728 157.57654 187.86328 157.97852 C 187.48429 159.1155 188.24228 160.43724 187.86328 161.57422 C 187.72929 161.9762 187.09688 162.07263 186.96289 162.47461 C 186.58389 163.6116 187.25356 164.90566 186.96289 166.06836 C 186.80039 166.71833 186.22694 167.21722 186.06445 167.86719 C 185.77378 169.02989 186.44345 170.32591 186.06445 171.46289 C 185.93046 171.86487 185.26879 171.95026 185.16602 172.36133 C 184.94801 173.23336 185.3423 174.17718 185.16602 175.05859 C 185.03463 175.71555 184.43008 176.2055 184.26758 176.85547 C 184.12225 177.43682 184.41292 178.07098 184.26758 178.65234 C 184.10509 179.30231 183.53163 179.8012 183.36914 180.45117 C 183.07846 181.61388 183.65981 182.88417 183.36914 184.04688 C 183.20665 184.69684 182.63125 185.19378 182.46875 185.84375 C 182.17808 187.00645 182.75943 188.27675 182.46875 189.43945 C 182.30626 190.08942 181.7328 190.58831 181.57031 191.23828 C 181.42497 191.81963 181.75981 192.46667 181.57031 193.03516 C 181.43631 193.43714 180.77463 193.52252 180.67188 193.93359 C 180.44146 194.85519 180.98684 198.38324 180.67188 199.32812 C 180.53787 199.7301 179.90744 199.82458 179.77344 200.22656 C 179.58394 200.79506 179.91878 201.44209 179.77344 202.02344 C 179.61095 202.67341 179.00639 203.16531 178.875 203.82227 C 178.58119 205.29129 179.23834 206.86303 178.875 208.31641 C 178.55001 209.61635 177.40115 210.61217 177.07617 211.91211 C 176.78549 213.07482 177.36684 214.34316 177.07617 215.50586 C 176.91367 216.15583 176.34022 216.65472 176.17773 217.30469 C 176.03239 217.88604 176.32307 218.52021 176.17773 219.10156 C 175.01088 223.76898 175.2793 218.14223 175.2793 222.69727 C 175.2793 229.55438 175.67976 221.98802 174.37891 227.19141 C 174.23358 227.77276 174.49643 228.40262 174.37891 228.99023 C 174.1931 229.91932 173.66629 230.75647 173.48047 231.68555 C 173.24543 232.86077 173.77114 234.11855 173.48047 235.28125 C 173.03145 237.07732 171.43918 237.48969 172.58203 239.77539 C 172.64488 239.90108 175.68136 241.24331 176.17773 241.57422 C 177.82242 242.67068 176.26808 242.71936 178.875 243.37109 C 179.45635 243.51643 180.09052 243.22576 180.67188 243.37109 C 181.32184 243.53359 181.83316 244.05766 182.46875 244.26953 C 182.753 244.36433 183.06952 244.26953 183.36914 244.26953 C 183.66876 244.26953 184.05572 244.48139 184.26758 244.26953 C 185.49981 243.03731 185.16602 241.30468 185.16602 239.77539 L 185.16602 229.88867 C 185.16602 229.41864 185.04784 226.52932 185.16602 226.29297 C 185.35552 225.91397 185.96168 225.80561 186.06445 225.39453 C 186.28246 224.52251 186.06445 223.59613 186.06445 222.69727 C 186.06445 222.39765 185.96965 222.08308 186.06445 221.79883 C 186.27632 221.16324 186.80039 220.65193 186.96289 220.00195 C 187.25356 218.83925 186.67221 217.56895 186.96289 216.40625 C 187.12538 215.75628 187.70079 215.25739 187.86328 214.60742 C 188.00862 214.02607 187.71794 213.3919 187.86328 212.81055 C 188.02577 212.16058 188.59922 211.66169 188.76172 211.01172 C 189.05239 209.84902 188.38272 208.553 188.76172 207.41602 C 188.89571 207.01404 189.55739 206.92865 189.66016 206.51758 C 189.87817 205.64555 189.66016 204.72114 189.66016 203.82227 C 189.66016 203.52265 189.56546 203.20612 189.66016 202.92188 C 189.87203 202.28629 190.34672 201.76059 190.55859 201.125 C 190.74808 200.55651 190.2906 199.8641 190.55859 199.32812 C 190.74808 198.94913 191.32498 198.82971 191.45898 198.42773 C 191.83797 197.29074 191.1683 195.99473 191.45898 194.83203 C 191.62147 194.18206 192.19493 193.68513 192.35742 193.03516 C 192.50276 192.45381 192.21209 191.81963 192.35742 191.23828 C 192.51992 190.58831 193.12447 190.09641 193.25586 189.43945 C 193.43214 188.55804 193.10809 187.62882 193.25586 186.74219 C 193.41162 185.80759 193.99854 184.98147 194.1543 184.04688 C 194.43518 182.36156 194.56885 181.36359 194.62305 180.76367 C 193.31048 184.36998 194.87261 178.00137 194.62305 180.76367 C 194.75471 180.40193 194.857 180.13994 195.05273 179.55273 C 195.32239 178.74375 194.78307 177.66444 195.05273 176.85547 C 196.91246 171.27612 194.98113 179.84305 196.85156 172.36133 C 196.92426 172.07066 196.71756 171.73088 196.85156 171.46289 C 197.04105 171.08389 197.61601 170.96644 197.75 170.56445 C 199.67 164.80445 195.83 172.72875 197.75 166.96875 C 197.884 166.56676 198.54567 166.47944 198.64844 166.06836 C 198.86644 165.19633 198.64844 164.27191 198.64844 163.37305 C 198.94806 162.7738 199.33697 162.20981 199.54883 161.57422 C 199.71788 161.06708 199.54883 159.46956 199.54883 158.87891 L 199.54883 152.58594 C 199.54883 152.18113 199.41205 150.16222 199.54883 149.88867 C 200.0448 148.89673 200.58875 148.88813 201.37305 148.94531 C 201.50957 148.7355 202.52404 148.99023 202.24414 148.99023 L 205.83984 148.99023 L 221.12109 148.99023 L 227.41211 148.99023 L 228.3125 148.99023 C 228.61212 148.99023 228.94295 149.12422 229.21094 148.99023 C 229.58994 148.80073 229.91987 148.4708 230.10938 148.0918 C 230.27191 147.76674 230.10938 144.22285 230.10938 143.59766 C 230.10938 142.21125 230.31957 139.25609 230.10938 138.20508 C 229.97798 137.54812 229.42281 137.04184 229.21094 136.40625 C 229.02144 135.83776 229.21094 135.20863 229.21094 134.60938 L 229.21094 130.11523 L 229.21094 117.53125 L 229.21094 115.73242 C 229.21094 114.44617 229.63509 113.69841 228.3125 113.03711 C 227.92861 112.84517 224.17175 113.03711 223.81641 113.03711 L 218.42383 113.03711 C 217.52496 113.03711 216.5793 112.75287 215.72656 113.03711 C 215.32458 113.17111 215.23011 113.80155 214.82812 113.93555 C 214.25964 114.12504 213.63049 113.93555 213.03125 113.93555 L 208.53711 113.93555 C 203.04811 113.93555 204.8175 114.9904 200 110 z M 202.24414 148.99023 C 201.92258 148.99023 201.63448 148.96437 201.37305 148.94531 C 201.36342 148.9601 201.3457 148.9705 201.3457 148.99023 C 201.3457 149.28985 201.94452 148.99023 202.24414 148.99023 z M 193.25586 112.13672 C 193.54932 111.84325 193.81767 111.51889 194.09766 111.20898 C 193.81702 111.06384 193.5365 111.85608 193.25586 112.13672 z M 206.31445 126.46289 C 207.01727 126.44433 208.24417 126.51953 208.53711 126.51953 L 215.72656 126.51953 C 216.36368 126.51953 220.88869 126.40333 221.12109 126.51953 C 221.50008 126.70903 221.83004 127.03897 222.01953 127.41797 C 222.05673 127.49237 222.05813 129.99957 222.01953 130.11523 C 221.80767 130.75082 221.33295 131.27652 221.12109 131.91211 C 220.85143 132.72109 221.39075 133.80039 221.12109 134.60938 C 220.90923 135.24498 220.43452 135.77066 220.22266 136.40625 C 220.03316 136.97474 220.49065 137.6691 220.22266 138.20508 C 220.03316 138.58408 219.51177 138.72452 219.32227 139.10352 C 218.70234 140.34337 220.41127 139.90667 218.42383 140.90039 C 218.15584 141.03439 217.82501 140.90039 217.52539 140.90039 C 215.83614 140.90039 216.41373 140.99561 213.92969 140.00195 C 213.30764 139.75313 212.78278 139.26601 212.13281 139.10352 C 208.04093 139.10352 212.08074 139.52767 209.43555 138.20508 C 209.16756 138.07109 208.83673 138.20508 208.53711 138.20508 C 207.19922 138.20508 207.38913 138.33755 205.83984 137.30469 C 205.13472 136.8346 204.7481 135.97789 204.04297 135.50781 L 202.24414 134.60938 C 201.94452 134.60938 201.61369 134.74337 201.3457 134.60938 C 200.96671 134.41988 200.74689 134.01056 200.44727 133.71094 C 200.14764 133.41132 199.59949 133.23124 199.54883 132.81055 C 199.43535 131.86826 199.84931 130.93706 200 130 C 201.94666 128.83971 203.82637 127.55956 205.83984 126.51953 C 205.90374 126.48653 206.08018 126.46908 206.31445 126.46289 z "
     id="path4242" />
  <path
     style="fill:#45d1a1;fill-rule:evenodd;stroke:#eaff00;stroke-width:3.2;stroke-linecap:butt;stroke-linejoin:miter;stroke-opacity:1;fill-opacity:1;stroke-miterlimit:4;stroke-dasharray:none"
     d="M 222.59961 164.15039 C 222.4058 164.16798 222.21275 164.20708 222.01953 164.27148 C 221.61755 164.40548 221.31059 164.79092 221.12109 165.16992 C 220.95856 165.49498 221.12109 169.03886 221.12109 169.66406 L 221.12109 171.46289 C 221.12109 172.06213 220.97575 172.67842 221.12109 173.25977 C 221.44608 174.55971 222.49424 175.58428 222.91797 176.85547 C 223.01277 177.13971 222.78397 177.48592 222.91797 177.75391 C 223.03498 177.98793 224.51908 178.85006 223.81641 179.55273 C 221.54597 181.82317 222.78148 179.89771 221.12109 180.45117 C 220.4855 180.66304 219.97224 181.18712 219.32227 181.34961 C 218.74092 181.49495 218.12463 181.34961 217.52539 181.34961 C 216.23915 181.34961 215.48942 181.77377 214.82812 180.45117 C 214.69135 180.17762 214.82812 178.15872 214.82812 177.75391 L 214.82812 171.46289 C 214.82812 170.65268 215.01671 167.53449 214.82812 166.96875 C 214.60916 166.31186 213.854 164.68286 213.03125 164.27148 C 212.75769 164.13471 210.73879 164.27148 210.33398 164.27148 C 209.61036 164.27148 207.30245 164.08342 206.73828 164.27148 C 202.12526 165.80915 204.43002 168.64325 205.83984 171.46289 C 206.13946 172.06213 206.52641 172.62417 206.73828 173.25977 C 206.83298 173.54401 206.60428 173.89021 206.73828 174.1582 C 206.92777 174.5372 207.40363 174.70602 207.63867 175.05859 C 208.01031 175.61604 208.16547 176.29801 208.53711 176.85547 C 209.00719 177.56059 210.06599 177.84837 210.33398 178.65234 C 210.52347 179.22083 209.798 180.18318 210.33398 180.45117 C 210.45339 180.41139 210.58387 180.42963 210.71484 180.45312 C 211.16825 180.27888 211.60777 179.55273 212.13281 179.55273 C 212.55654 179.55273 211.61141 180.26168 211.23242 180.45117 C 211.07701 180.52888 210.89564 180.48556 210.71484 180.45312 C 210.58968 180.50122 210.46362 180.51599 210.33398 180.45117 C 209.69838 180.66304 209.1727 181.13774 208.53711 181.34961 C 207.91884 181.5557 206.37019 181.08443 205.83984 181.34961 C 205.0389 181.75008 205.14651 182.75028 204.04297 182.24805 C 202.63959 181.60936 201.34742 180.74958 200 180 C 198.95045 180.44996 197.78083 180.68593 196.85156 181.34961 C 196.84856 181.35167 196.85156 183.84348 196.85156 184.04688 L 196.85156 193.93359 C 196.85156 194.83246 196.56731 195.77812 196.85156 196.63086 C 197.46943 198.48449 198.56544 196.95865 199.54883 196.63086 C 199.83308 196.53606 200.14764 196.63086 200.44727 196.63086 L 203.14258 196.63086 C 203.61261 196.63086 206.50193 196.51268 206.73828 196.63086 C 207.11727 196.82035 207.44917 197.15031 207.63867 197.5293 C 207.77267 197.79729 207.63867 198.1281 207.63867 198.42773 L 207.63867 199.32812 L 207.63867 203.82227 L 207.63867 205.61914 C 207.63867 206.21839 208.17465 207.14803 207.63867 207.41602 C 207.03943 207.71564 206.47544 206.72944 205.83984 206.51758 C 205.03086 206.24792 203.95156 206.78724 203.14258 206.51758 C 202.50699 206.30571 201.90315 205.99078 201.3457 205.61914 C 200.99314 205.3841 200.84925 204.85469 200.44727 204.7207 C 199.87877 204.5312 199.21693 204.91019 198.64844 204.7207 C 198.24645 204.5867 198.10257 204.05732 197.75 203.82227 C 196.30569 202.85941 195.06963 202.46843 193.25586 202.92188 C 192.84478 203.02464 192.54692 203.44328 192.35742 203.82227 C 192.22343 204.09026 192.35742 204.42108 192.35742 204.7207 C 192.35742 205.61956 192.18114 206.53461 192.35742 207.41602 C 193.39028 212.58032 193.25586 207.15872 193.25586 210.11328 L 193.25586 216.40625 C 193.25586 216.70587 193.04399 217.09283 193.25586 217.30469 C 194.37353 218.42236 195.51614 218.20312 196.85156 218.20312 L 202.24414 218.20312 C 202.8348 218.20312 204.43427 218.03408 204.94141 218.20312 C 205.577 218.41499 206.10268 218.8897 206.73828 219.10156 C 207.58511 219.38384 211.55004 218.81017 212.13281 219.10156 C 212.51181 219.29106 212.65225 219.81246 213.03125 220.00195 C 213.5616 220.26713 215.10829 219.79587 215.72656 220.00195 C 216.36216 220.21382 216.8898 220.68852 217.52539 220.90039 C 218.48054 221.21877 220.16595 220.58201 221.12109 220.90039 C 221.75668 221.11225 222.31873 221.49921 222.91797 221.79883 C 223.51721 222.09846 224.0812 222.4854 224.7168 222.69727 C 225.00104 222.79197 225.33099 222.60247 225.61523 222.69727 C 226.25083 222.90913 226.77652 223.38384 227.41211 223.5957 C 227.9806 223.7852 228.67496 223.32771 229.21094 223.5957 C 229.58994 223.7852 229.73038 224.30659 230.10938 224.49609 C 230.37737 224.63008 230.73982 224.36209 231.00781 224.49609 C 231.3868 224.68558 231.52726 225.20503 231.90625 225.39453 C 232.62535 225.75408 233.88443 225.03499 234.60352 225.39453 C 234.98251 225.58403 235.12296 226.10347 235.50195 226.29297 C 235.76994 226.42696 236.10272 226.29297 236.40234 226.29297 C 236.70196 226.29297 237.08892 226.50483 237.30078 226.29297 C 238.65601 224.93774 238.19922 221.62848 238.19922 220.00195 C 238.19922 219.40271 238.05388 218.78447 238.19922 218.20312 C 238.36171 217.55315 238.93517 217.05622 239.09766 216.40625 C 239.243 215.8249 238.95232 215.18877 239.09766 214.60742 C 239.42443 213.30035 241.06452 211.99515 239.09766 211.01172 C 238.82967 210.87772 238.49884 211.01172 238.19922 211.01172 L 237.30078 211.01172 L 232.80664 211.01172 L 231.90625 211.01172 C 231.60663 211.01172 231.17401 211.26102 231.00781 211.01172 C 230.48224 210.22336 230.5331 209.16386 230.10938 208.31641 C 230.10938 208.61603 230.409 209.21484 230.10938 209.21484 C 229.80974 209.21484 229.97537 208.04842 230.10938 208.31641 L 230.10938 207.41602 L 230.10938 201.125 L 230.10938 199.32812 C 230.10938 198.72888 229.77697 198.0279 230.10938 197.5293 C 230.481 196.97185 231.43251 197.1046 231.90625 196.63086 C 231.90772 196.62939 231.90686 196.62841 231.9082 196.62695 C 231.49836 196.63729 231.00781 196.65394 231.00781 196.63086 C 231.00781 196.3333 232.10053 196.41827 231.9082 196.62695 C 232.6701 196.60774 233.59784 196.57722 233.70508 196.63086 C 237.81883 198.68773 229.89149 196.25744 236.40234 198.42773 C 239.07813 199.31959 234.55677 196.30086 239.09766 199.32812 C 239.5341 199.61909 240.72308 201.125 240.89648 201.125 C 241.32021 201.125 241.55988 200.57913 241.79492 200.22656 C 243.69298 197.37948 241.94796 197.96863 242.69336 195.73242 C 242.82735 195.33044 243.48903 195.2431 243.5918 194.83203 C 243.71881 194.32401 243.35934 191.03528 243.5918 190.33789 C 243.71649 189.96385 244.89638 188.45488 244.49023 187.64258 C 243.79876 186.25965 242.1189 186.74219 240.89648 186.74219 L 235.50195 186.74219 C 234.60309 186.74219 233.55454 187.24079 232.80664 186.74219 C 232.30804 186.40979 233.40588 184.94531 232.80664 184.94531 C 232.80288 184.94531 232.79869 184.94717 232.79492 184.94727 C 232.76715 185.87693 232.62258 187.10035 231.90625 186.74219 C 231.31037 186.44424 232.127 184.96389 232.79492 184.94727 C 232.80719 184.53647 232.80664 184.17377 232.80664 184.04688 L 232.80664 168.76562 L 232.80664 167.86719 C 232.80664 167.56757 233.0185 167.18061 232.80664 166.96875 C 232.3329 166.495 231.56526 166.44 231.00781 166.06836 C 230.65525 165.83332 230.51136 165.30391 230.10938 165.16992 C 228.97239 164.79092 227.68888 165.40496 226.51367 165.16992 C 225.31623 164.93043 223.95627 164.02725 222.59961 164.15039 z M 220 190 C 220.25499 192.50771 220.22266 195.01699 220.22266 197.5293 C 220.22266 198.12854 220.41215 198.75964 220.22266 199.32812 C 220.01079 199.96372 219.53414 200.48941 219.32227 201.125 C 219.13277 201.69349 219.51177 202.35339 219.32227 202.92188 C 219.10331 203.57876 218.34814 205.20777 217.52539 205.61914 C 217.2574 205.75314 216.92657 205.61914 216.62695 205.61914 C 214.94914 205.61914 214.15672 204.94775 213.03125 203.82227 C 212.73163 203.52265 212.32231 203.30087 212.13281 202.92188 C 212.01464 202.68553 212.13281 199.79816 212.13281 199.32812 L 212.13281 198.42773 C 212.13281 198.1281 211.99882 197.79729 212.13281 197.5293 C 212.32231 197.15031 212.73163 196.93048 213.03125 196.63086 L 213.92969 195.73242 C 215.9126 193.74952 217.90401 191.88567 220 190 z "
     id="path4246" />
  <path
     style="fill:#45d1a1;fill-rule:evenodd;stroke:#eaff00;stroke-width:3.2;stroke-linecap:butt;stroke-linejoin:miter;stroke-opacity:1;fill-opacity:1;stroke-miterlimit:4;stroke-dasharray:none"
     d="m 200,230 c -0.74993,-0.63639 -1.26685,-1.87438 -2.2498,-1.90916 -0.66955,-0.0237 -0.52723,1.24027 -0.89886,1.79772 -0.69144,1.03716 -2.00516,1.65945 -2.6966,2.6966 -0.37163,0.55745 -0.59924,1.19848 -0.89886,1.79773 -0.29962,0.59924 -0.59924,1.19848 -0.89887,1.79773 0,0.29962 0.0948,0.61462 0,0.89886 -0.21186,0.63559 -0.687,1.16214 -0.89886,1.79773 -0.18858,0.56575 0,3.68412 0,4.49432 0,1.19849 -0.29068,2.43276 0,3.59546 0.10277,0.41108 0.59924,0.59924 0.89886,0.89887 0.29963,0.29962 0.59925,0.59924 0.89887,0.89886 0.29962,0.29962 0.51987,0.70937 0.89886,0.89887 0.13363,0.0668 3.39809,0.0658 3.59546,0 0.63559,-0.21187 1.32399,-0.42513 1.79773,-0.89887 0.47374,-0.47374 0.52723,-1.24028 0.89887,-1.79773 0.23504,-0.35256 0.70936,-0.51987 0.89886,-0.89886 0.16168,-0.32336 -0.005,-4.46827 0,-4.49433 0.13139,-0.65696 0.73637,-1.14775 0.89886,-1.79773 0.14534,-0.58135 -0.18949,-1.22923 0,-1.79772 0.134,-0.40199 0.66383,-0.5463 0.89887,-0.89887 0.37163,-0.55745 0.687,-1.16213 0.89886,-1.79773 0.16905,-0.50714 0,-2.10594 0,-2.69659 0,-1.01492 0.52173,-4.84938 -0.89886,-4.49432 C 201.95406,228.38809 201.0478,229.36361 200,230"
     id="path4250"
     inkscape:connector-curvature="0" />
  <path
     style="fill:#45d1a1;fill-rule:evenodd;stroke:#eaff00;stroke-width:3.2;stroke-linecap:butt;stroke-linejoin:miter;stroke-opacity:1;fill-opacity:1;stroke-miterlimit:4;stroke-dasharray:none"
     d="m 210,230 c 3.24458,2.29892 3.67001,6.68985 5.72749,9.77607 0.23505,0.35257 0.59925,0.59925 0.89887,0.89887 1.99886,1.99886 3.8707,2.51309 6.29205,0.89886 0.35256,-0.23504 0.49688,-0.76487 0.89886,-0.89886 0.5685,-0.1895 1.22924,0.1895 1.79773,0 0.11167,-0.0372 2.61949,-2.54239 2.6966,-2.69659 0.13677,-0.27356 0,-2.29179 0,-2.6966 0,-1.19848 0.29067,-2.43275 0,-3.59546 -0.10277,-0.41107 -0.66383,-0.5463 -0.89887,-0.89886 -0.37163,-0.55745 -0.59924,-1.19849 -0.89886,-1.79773 -0.57028,-1.14056 -1.49812,-3.89508 -2.6966,-4.49432 -0.27355,-0.13678 -2.29178,0 -2.69659,0 -0.8102,0 -3.92858,-0.18858 -4.49432,0 -3.25865,1.08621 -0.63972,0.42648 -2.6966,1.79773 C 210.35084,228.67906 213.81777,224.97175 210,230 Z"
     id="path4252"
     inkscape:connector-curvature="0" />
  <path
     style="fill:#45d1a1;fill-rule:evenodd;stroke:#eaff00;stroke-width:3.2;stroke-linecap:butt;stroke-linejoin:miter;stroke-opacity:1;fill-opacity:1;stroke-miterlimit:4;stroke-dasharray:none"
     d="m 250,150 c -0.73853,-0.0262 0.26165,-8.48868 -0.11565,-9.99789 -0.1625,-0.64997 -0.73638,-1.14776 -0.89887,-1.79773 -0.14534,-0.58135 0,-1.19849 0,-1.79773 0,-0.89886 0,-1.79773 0,-2.69659 0,-0.29962 0.0727,-0.60819 0,-0.89887 -0.2298,-0.91919 -0.7431,-1.762 -0.89886,-2.69659 -0.14778,-0.88663 0.218,-1.82457 0,-2.69659 -0.10277,-0.41108 -0.76487,-0.49688 -0.89887,-0.89887 -0.37899,-1.13698 0.29068,-2.43275 0,-3.59546 -0.16249,-0.64997 -0.73637,-1.14776 -0.89886,-1.79773 -0.14534,-0.58135 0,-1.19848 0,-1.79773 0,-1.4981 0,-2.99621 0,-4.49432 0,-4.1947 0,-8.3894 0,-12.5841 0,-0.87088 0.17865,-4.857222 0,-5.393189 -0.21187,-0.635593 -0.89887,-1.127755 -0.89887,-1.797729 0,-0.669974 0.29962,-1.498108 0.89887,-1.797729 0.80397,-0.401985 1.79773,0 2.69659,0 2.09735,0 4.1947,0 6.29205,0 0.89887,0 1.79773,0 2.6966,0 0.59924,0 1.22923,0.189497 1.79773,0 0.40198,-0.133995 0.48778,-0.796095 0.89886,-0.898865 0.87203,-0.218006 1.79773,0 2.69659,0 2.09735,0 4.19471,0 6.29206,0 6.89129,0 13.78259,0 20.67388,0 1.09723,0 2.07276,-0.348796 2.69659,0.898865 0.13678,0.273555 0,2.291783 0,2.696594 0,0.898864 0,1.797729 0,2.696593 0,0.898865 0.21801,1.82457 0,2.69659 -0.10277,0.41108 -0.79609,0.48779 -0.89886,0.89887 -0.127,0.50801 0.23246,3.79693 0,4.49432 -0.21186,0.63559 -0.76747,1.14077 -0.89886,1.79773 -0.23505,1.17521 0,2.39697 0,3.59546 0,2.69659 0,5.39319 0,8.08978 0,1.19849 0.23504,2.42025 0,3.59546 -0.1314,0.65696 -0.68701,1.16213 -0.89887,1.79773 -0.26966,0.80897 0.26966,1.88761 0,2.69659 -0.21186,0.63559 -0.687,1.16214 -0.89886,1.79773 -0.1895,0.56849 0,1.19849 0,1.79773 0,1.49811 0,2.99621 0,4.49432 0,1.79773 0,3.59546 0,5.39319 0,0.29962 0,0.59924 0,0.89886 0,0.29962 -0.134,0.63088 0,0.89887 0.18949,0.37899 0.51987,0.70937 0.89886,0.89886 0.23635,0.11818 3.12542,0 3.59546,0 2.39697,0 4.79394,0 7.19092,0 8.68902,0 17.37804,0 26.06707,0 1.79773,0 3.59546,0 5.39318,0 0.59925,0 1.22924,-0.18949 1.79773,0 0.6356,0.21187 1.58587,0.26327 1.79773,0.89887 0.36207,1.08621 -1.34245,2.01368 -1.79773,2.69659 -0.37163,0.55745 -0.52723,1.24028 -0.89886,1.79773 -0.23504,0.35256 -0.76487,0.49688 -0.89887,0.89886 -0.18949,0.5685 0.1895,1.22924 0,1.79773 -0.13399,0.40199 -0.76487,0.49688 -0.89886,0.89887 -0.1895,0.56849 0.1895,1.22924 0,1.79773 -0.13399,0.40198 -0.70937,0.51987 -0.89886,0.89886 -0.26799,0.53598 0.18949,1.22924 0,1.79773 -0.21187,0.63559 -0.687,1.16214 -0.89887,1.79773 -0.0947,0.28425 0.134,0.63087 0,0.89886 -0.1895,0.379 -0.70937,0.51987 -0.89886,0.89887 -0.134,0.26799 0.13399,0.63087 0,0.89886 -0.1895,0.379 -0.59925,0.59925 -0.89887,0.89887 -0.29962,0.29962 -0.51987,0.70937 -0.89886,0.89886 -0.2324,0.1162 -4.75607,0 -5.39319,0 -1.19849,0 -2.39697,0 -3.59546,0 -0.59924,0 -1.22924,0.1895 -1.79773,0 -0.63559,-0.21186 -1.16213,-0.687 -1.79773,-0.89886 -0.56849,-0.1895 -1.22923,0.1895 -1.79773,0 -0.63559,-0.21187 -1.16213,-0.687 -1.79772,-0.89887 -0.5685,-0.18949 -1.22924,0.1895 -1.79773,0 -0.6356,-0.21186 -1.16214,-0.687 -1.79773,-0.89886 -0.80898,-0.26966 -1.88762,0.26966 -2.6966,0 -0.63559,-0.21187 -1.16213,-0.687 -1.79773,-0.89887 -0.86762,-0.2892 -3.49468,0.24991 -4.49432,0 -0.9192,-0.22979 -1.7774,-0.66906 -2.69659,-0.89886 -0.58135,-0.14534 -1.21638,0.14534 -1.79773,0 -0.9192,-0.2298 -1.81688,-0.54698 -2.69659,-0.89886 -0.62206,-0.24883 -1.14077,-0.76748 -1.79773,-0.89887 -5.11184,0 -0.59178,0.40199 -4.49433,-0.89886 -0.80897,-0.26966 -1.88761,0.26966 -2.69659,0 -0.63559,-0.21187 -1.16214,-0.687 -1.79773,-0.89887 -0.56849,-0.1895 -1.26175,0.26799 -1.79773,0 -0.37899,-0.1895 -0.70937,-0.51987 -0.89886,-0.89886 -0.134,-0.26799 0,-0.59925 0,-0.89887 0,-0.29962 0,-0.59924 0,-0.89886 0,-1.79773 0,-3.59546 0,-5.39319 0,-5.69281 0,-11.38562 0,-17.07843 0,-1.79772 0,-3.59545 0,-5.39318 0,-0.79249 0.19147,-1.9307 0,-2.6966 -0.2298,-0.91919 -0.66907,-1.77739 -0.89887,-2.69659 -0.14534,-0.58135 0.1895,-1.22924 0,-1.79773 -0.21186,-0.63559 -0.687,-1.16214 -0.89886,-1.79773 -0.1895,-0.56849 0.18949,-1.22924 0,-1.79773 -0.21187,-0.63559 -0.687,-1.16213 -0.89887,-1.79773 -0.18949,-0.56849 0.26799,-1.26175 0,-1.79773 -0.18949,-0.37899 -0.59924,-0.59924 -0.89886,-0.89886 -0.29962,-0.29962 -0.51987,-0.70937 -0.89887,-0.89887 -0.23634,-0.11817 -3.12542,0 -3.59545,0 -0.47004,0 -3.35911,-0.11817 -3.59546,0 -0.379,0.1895 -0.7961,0.48779 -0.89887,0.89887 -0.218,0.87203 0,1.79773 0,2.69659 0,0.59925 0,1.19849 0,1.79773 0,2.6966 0,5.39319 0,8.08978 0,1.34989 0.23822,3.30325 0,4.49433 -0.13139,0.65696 -0.73637,1.14775 -0.89886,1.79773 -0.15208,0.6083 0,5.71362 0,6.29205 0,3.59546 0,7.19091 0,10.78637 0,0.87088 0.17865,4.85722 0,5.39319 -0.21187,0.63559 -0.687,1.16213 -0.89887,1.79773 -0.18805,0.56417 0,2.87184 0,3.59546 0,0.59065 0.16905,2.18945 0,2.69659 -0.21186,0.63559 -0.73637,1.14776 -0.89886,1.79773 -0.14534,0.58135 0.1895,1.22924 0,1.79773 -0.0372,0.11166 -2.54239,2.61949 -2.69659,2.69659 -0.53035,0.26518 -2.07833,-0.20609 -2.6966,0 -0.63559,0.21187 -1.16213,0.687 -1.79773,0.89887 -0.56574,0.18858 -3.68412,0 -4.49432,0 -2.99622,0 -5.99243,0 -8.98865,0 -1.23335,0 -2.91008,0.47188 -3.59545,-0.89887 -0.11818,-0.23635 0,-3.12542 0,-3.59546 0,-0.59924 0,-1.19848 0,-1.79773 0,-0.29962 0,-1.19848 0,-0.89886 0,0.59924 0,2.39697 0,1.79773 0,-0.89887 0,-1.79773 0,-2.69659 0,-0.29963 0,-0.59925 0,-0.89887 0,-0.29962 -0.134,-0.63087 0,-0.89886 0.18949,-0.379 0.70936,-0.51987 0.89886,-0.89887 0.134,-0.26799 -0.13399,-0.63087 0,-0.89886 0.1895,-0.379 0.70937,-0.51987 0.89887,-0.89887 0.26799,-0.53598 -0.26799,-1.26175 0,-1.79773 0.18949,-0.37899 0.59924,-0.59924 0.89886,-0.89886 0.29962,-0.29962 0.59924,-0.59924 0.89886,-0.89887 0.47322,-0.47322 2.21653,-2.45655 2.6966,-2.69659 0.26799,-0.13399 0.59924,0 0.89886,0 0.29962,0 0.59925,0 0.89887,0 0.29962,0 0.6324,-0.137 0.89886,0 1.00746,0.518 1.87483,1.27207 2.81225,1.90811 z"
     id="path4254"
     inkscape:connector-curvature="0" />
  <path
     style="fill:#45d1a1;fill-rule:evenodd;stroke:#eaff00;stroke-width:3.2;stroke-linecap:butt;stroke-linejoin:miter;stroke-opacity:1;fill-opacity:1;stroke-miterlimit:4;stroke-dasharray:none"
     d="M 256.37695 178.57422 C 255.45599 178.54777 254.02318 178.65234 253.48047 178.65234 L 247.1875 178.65234 L 245.39062 178.65234 C 244.10439 178.65234 243.35466 178.23014 242.69336 179.55273 C 242.30115 180.33715 243.43595 181.93635 243.5918 182.24805 C 243.89143 182.8473 244.11859 183.48943 244.49023 184.04688 C 244.96031 184.752 245.81897 185.13862 246.28906 185.84375 C 247.39535 187.50319 247.88004 189.57884 248.98633 191.23828 C 249.67777 192.27543 250.99021 192.89644 251.68164 193.93359 C 252.05328 194.49104 252.20844 195.17497 252.58008 195.73242 C 252.87062 196.16823 256.64037 199.93603 257.07617 200.22656 C 257.63362 200.5982 258.27381 200.82538 258.87305 201.125 C 259.78717 201.58206 263.02396 202.79258 263.36719 203.82227 C 263.55669 204.39076 262.94347 205.19541 263.36719 205.61914 C 263.66682 205.31952 263.966 204.42108 264.26562 204.7207 C 264.56525 205.02032 263.66682 205.91876 263.36719 205.61914 L 261.57031 207.41602 C 260.97107 208.01526 260.24156 208.50971 259.77148 209.21484 C 259.39984 209.77229 259.24469 210.45427 258.87305 211.01172 C 258.05254 212.24249 257.89668 211.57978 257.07617 212.81055 C 256.70454 213.368 256.54741 214.04997 256.17578 214.60742 C 254.90341 216.51598 255.12936 215.83279 255.4082 215.20117 C 255.24119 215.55482 255.03996 215.98258 254.37891 217.30469 L 252.58008 220.90039 C 252.28046 221.49963 252.05328 222.13982 251.68164 222.69727 C 251.21156 223.4024 250.35485 223.79096 249.88477 224.49609 C 249.51313 225.05354 249.35797 225.73551 248.98633 226.29297 C 248.10456 227.61562 246.27239 228.56602 245.39062 229.88867 C 245.019 230.44613 244.89221 231.14957 244.49023 231.68555 C 243.98175 232.36352 243.20183 232.80641 242.69336 233.48438 C 242.29137 234.02035 242.19691 234.74527 241.79492 235.28125 C 240.03898 237.62251 239.96796 236.26607 239.09766 238.87695 C 238.65469 240.20586 240.30404 240.68556 240.89648 241.57422 C 241.63975 242.68913 241.88939 244.09796 242.69336 245.16992 C 243.20183 245.84789 243.98175 246.28884 244.49023 246.9668 C 245.2942 248.03876 245.34157 249.61501 246.28906 250.5625 C 247.9216 252.19504 247.95789 251.59094 248.98633 250.5625 L 250.7832 248.76562 C 251.91721 247.63161 253.43969 246.42221 254.37891 245.16992 C 254.78089 244.63394 254.90571 243.92855 255.27734 243.37109 C 255.51239 243.01853 255.94074 242.82522 256.17578 242.47266 C 256.54741 241.91521 256.70454 241.23323 257.07617 240.67578 C 257.95794 239.35312 259.78815 238.40274 260.66992 237.08008 C 261.04156 236.52263 261.19868 235.8387 261.57031 235.28125 C 261.80536 234.92869 262.23371 234.73537 262.46875 234.38281 C 263.21202 233.2679 263.46166 231.85907 264.26562 230.78711 C 264.77409 230.10914 265.55597 229.6682 266.06445 228.99023 C 266.7236 228.11135 267.61085 224.78332 268.75977 224.49609 C 269.6318 224.27808 270.65307 224.89807 271.45703 224.49609 C 271.15741 224.19647 270.25897 223.89532 270.55859 223.5957 C 270.85821 223.29608 271.83603 224.30659 271.45703 224.49609 L 276.84961 229.88867 L 283.14258 236.17969 C 283.84467 236.88178 285.32275 238.10132 285.83984 238.87695 C 286.21147 239.4344 286.36665 240.11833 286.73828 240.67578 C 286.97332 241.02834 287.3371 241.2746 287.63672 241.57422 C 288.23596 242.17347 288.75562 242.86262 289.43359 243.37109 C 294.54502 247.20467 287.52508 240.56413 293.0293 246.06836 C 293.56528 246.47034 294.29215 246.56482 294.82812 246.9668 C 296.63172 248.3195 297.09945 249.82156 299.32227 250.5625 C 299.60651 250.6572 299.92108 250.5625 300.2207 250.5625 C 301.93603 250.5625 300.35149 250.77478 302.01758 249.66406 C 302.57503 249.29242 303.21717 249.06525 303.81641 248.76562 L 309.20898 246.06836 C 309.80822 245.76874 310.45035 245.54156 311.00781 245.16992 C 311.36037 244.93488 311.55369 244.50457 311.90625 244.26953 C 312.4637 243.89789 313.14567 243.74273 313.70312 243.37109 C 314.05569 243.13605 314.25096 242.7077 314.60352 242.47266 C 315.71843 241.72939 317.08237 241.41905 318.19727 240.67578 C 318.57827 240.42178 320.70857 238.35042 320.89453 237.97852 C 321.02852 237.71053 321.02852 237.34807 320.89453 237.08008 C 320.70503 236.70109 320.29571 236.47931 319.99609 236.17969 L 319.09766 235.28125 C 318.39557 234.57916 317.17602 233.10303 316.40039 232.58594 C 315.84294 232.2143 315.1395 232.08754 314.60352 231.68555 C 313.24759 230.6686 312.33131 229.1506 311.00781 228.0918 C 309.32066 226.74208 307.30042 225.8458 305.61328 224.49609 C 304.62065 223.70198 303.97567 222.50396 302.91797 221.79883 C 302.36052 221.4272 301.67659 221.27202 301.11914 220.90039 C 299.79648 220.01862 298.84609 218.18646 297.52344 217.30469 C 296.96598 216.93306 296.28401 216.77788 295.72656 216.40625 C 294.68941 215.71481 294.06646 214.40042 293.0293 213.70898 C 292.47185 213.33735 291.83166 213.11017 291.23242 212.81055 C 290.63317 212.51093 290.05564 212.16094 289.43359 211.91211 C 288.55387 211.56023 287.58574 211.43545 286.73828 211.01172 C 286.35929 210.82222 286.13946 210.41291 285.83984 210.11328 C 285.54022 209.81366 284.93945 209.63857 284.93945 209.21484 C 284.93945 207.51235 286.85131 206.79725 287.63672 205.61914 C 288.00835 205.06169 288.16353 204.37973 288.53516 203.82227 C 289.00525 203.11715 289.73474 202.62269 290.33398 202.02344 L 293.92773 198.42773 C 294.52697 197.82848 295.25647 197.33598 295.72656 196.63086 C 296.09819 196.0734 296.25337 195.38948 296.625 194.83203 C 297.31644 193.79488 298.63083 193.17388 299.32227 192.13672 C 299.6939 191.57927 299.92108 190.93714 300.2207 190.33789 C 300.52032 189.73865 300.90727 189.17661 301.11914 188.54102 C 301.30863 187.97252 301.11914 187.34143 301.11914 186.74219 L 301.11914 185.84375 C 301.11914 185.54413 301.25313 185.2133 301.11914 184.94531 C 300.92964 184.56631 300.5997 184.23638 300.2207 184.04688 C 299.89964 183.88635 295.03618 184.04688 294.82812 184.04688 L 276.84961 184.04688 L 274.1543 184.04688 C 273.55506 184.04688 272.7847 184.46504 272.35547 184.04688 C 271.23749 182.95775 270.78532 181.34882 270 180 C 268.98759 179.85072 267.97969 179.66842 266.96289 179.55273 C 265.80084 179.42051 264.53776 179.55273 263.36719 179.55273 L 260.66992 179.55273 C 260.07068 179.55273 259.4544 179.69807 258.87305 179.55273 C 258.22308 179.39024 257.71177 178.8642 257.07617 178.65234 C 256.93513 178.60533 256.68394 178.58303 256.37695 178.57422 z M 255.4082 215.20117 C 255.68289 214.61952 255.60894 214.74649 255.4082 215.20117 z M 270 190 C 273.81493 192.50387 272.09426 191.55592 275.05273 193.03516 C 276.25122 193.6344 277.53354 194.08876 278.64844 194.83203 C 279.001 195.06707 279.1943 195.49738 279.54688 195.73242 C 280.85665 196.38731 281.27359 196.58304 281.63086 196.75195 C 282.0954 196.95577 282.23614 197.03813 281.63086 196.75195 C 281.00521 196.47746 280.3559 196.27047 282.24414 197.5293 C 282.80159 197.90094 283.56728 197.95398 284.04102 198.42773 C 284.25288 198.63959 284.04102 199.0285 284.04102 199.32812 C 284.04102 199.62775 284.17501 199.95858 284.04102 200.22656 C 283.85152 200.60556 283.44221 200.82538 283.14258 201.125 C 282.11415 202.15344 282.07785 202.37769 280.44531 202.92188 C 279.87957 203.11046 276.76137 202.92188 275.95117 202.92188 C 275.22755 202.92188 272.91964 203.10993 272.35547 202.92188 C 265.84462 200.75159 273.77391 203.18187 269.66016 201.125 C 269.39217 200.991 269.02776 201.25899 268.75977 201.125 C 268.52111 201.00567 266.18378 198.66638 266.06445 198.42773 C 265.68219 197.66322 266.78478 195.9996 266.96289 195.73242 C 267.19793 195.37986 267.67183 195.21102 267.86133 194.83203 C 267.99532 194.56404 267.72733 194.20158 267.86133 193.93359 C 268.05082 193.5546 268.46015 193.33478 268.75977 193.03516 L 270 190 z "
     id="path4256" />
</svg>
