<?xml version="1.0" encoding="UTF-8" standalone="no"?>
<!-- Created with Inkscape (http://www.inkscape.org/) -->

<svg
   xmlns:dc="http://purl.org/dc/elements/1.1/"
   xmlns:cc="http://creativecommons.org/ns#"
   xmlns:rdf="http://www.w3.org/1999/02/22-rdf-syntax-ns#"
   xmlns:svg="http://www.w3.org/2000/svg"
   xmlns="http://www.w3.org/2000/svg"
   xmlns:xlink="http://www.w3.org/1999/xlink"
   xmlns:sodipodi="http://sodipodi.sourceforge.net/DTD/sodipodi-0.dtd"
   xmlns:inkscape="http://www.inkscape.org/namespaces/inkscape"
   id="svg2"
   version="1.1"
   inkscape:version="0.91 r13725"
   width="116.25"
   height="106.875"
   viewBox="0 0 116.25 106.875"
   sodipodi:docname="land3.svg">
  <metadata
     id="metadata8">
    <rdf:RDF>
      <cc:Work
         rdf:about="">
        <dc:format>image/svg+xml</dc:format>
        <dc:type
           rdf:resource="http://purl.org/dc/dcmitype/StillImage" />
        <dc:title></dc:title>
      </cc:Work>
    </rdf:RDF>
  </metadata>
  <defs
     id="defs6">
    <linearGradient
       inkscape:collect="always"
       id="linearGradient4158">
      <stop
         style="stop-color:#b69457;stop-opacity:1;"
         offset="0"
         id="stop4160" />
      <stop
         style="stop-color:#b69457;stop-opacity:0;"
         offset="1"
         id="stop4162" />
    </linearGradient>
    <linearGradient
       inkscape:collect="always"
       id="linearGradient4146">
      <stop
         style="stop-color:#000000;stop-opacity:1;"
         offset="0"
         id="stop4148" />
      <stop
         style="stop-color:#000000;stop-opacity:0;"
         offset="1"
         id="stop4150" />
    </linearGradient>
    <linearGradient
       inkscape:collect="always"
       xlink:href="#linearGradient4146"
       id="linearGradient4152"
       x1="-0.95032892"
       y1="71.875"
       x2="25"
       y2="71.875"
       gradientUnits="userSpaceOnUse" />
    <linearGradient
       inkscape:collect="always"
       xlink:href="#linearGradient4146"
       id="linearGradient4154"
       x1="97.947918"
       y1="82.051041"
       x2="120"
       y2="81.875"
       gradientUnits="userSpaceOnUse" />
    <linearGradient
       inkscape:collect="always"
       xlink:href="#linearGradient4146"
       id="linearGradient4156"
       x1="14.030097"
       y1="49.444997"
       x2="135"
       y2="51.875"
       gradientUnits="userSpaceOnUse" />
    <linearGradient
       inkscape:collect="always"
       xlink:href="#linearGradient4158"
       id="linearGradient4164"
       x1="14.030097"
       y1="49.444997"
       x2="110.85"
       y2="49.444997"
       gradientUnits="userSpaceOnUse" />
  </defs>
  <sodipodi:namedview
     pagecolor="#ffffff"
     bordercolor="#666666"
     borderopacity="1"
     objecttolerance="10"
     gridtolerance="10"
     guidetolerance="10"
     inkscape:pageopacity="0"
     inkscape:pageshadow="2"
     inkscape:window-width="1144"
     inkscape:window-height="681"
     id="namedview4"
     showgrid="true"
     inkscape:snap-global="false"
     inkscape:zoom="2.2081871"
     inkscape:cx="17.351067"
     inkscape:cy="44.466056"
     inkscape:window-x="103"
     inkscape:window-y="87"
     inkscape:window-maximized="0"
     inkscape:current-layer="svg2">
    <inkscape:grid
       type="xygrid"
       id="grid4138"
       empspacing="1" />
  </sodipodi:namedview>
  <path
     style="fill:url(#linearGradient4164);fill-rule:evenodd;stroke:url(#linearGradient4156);stroke-width:1.7;stroke-linecap:butt;stroke-linejoin:miter;stroke-opacity:1;stroke-miterlimit:4;stroke-dasharray:none;fill-opacity:1"
     d="m 65,1.875 c 5,0 15,5 15,5 l 5,10 5,10 0,15 10,-5 10,15 0,15 -30,10 5,15 -20,5 -5,-10 -10,10 -15,-5 -5,-10 -5,0 5,-15 -15,-10 5,-20 c 0,0 10,0 10,0 l 10,-5 5,-15 z"
     id="path4140"
     inkscape:connector-curvature="0" />
  <path
     style="fill:#d4b483;fill-rule:evenodd;stroke:url(#linearGradient4154);stroke-width:1.7;stroke-linecap:butt;stroke-linejoin:miter;stroke-opacity:1;stroke-miterlimit:4;stroke-dasharray:none;fill-opacity:1"
     d="m 110,76.875 -10,0 10,10 5,-5 z"
     id="path4142"
     inkscape:connector-curvature="0" />
  <path
     style="fill:#d4b483;fill-rule:evenodd;stroke:url(#linearGradient4152);stroke-width:1.7;stroke-linecap:butt;stroke-linejoin:miter;stroke-opacity:1;stroke-miterlimit:4;stroke-dasharray:none;fill-opacity:1"
     d="m 5,61.875 15,0 0,10 -5,10 -10,0 -5,-10 z"
     id="path4144"
     inkscape:connector-curvature="0" />
  <path
     style="fill:#c4a36b;fill-rule:evenodd;stroke:none;stroke-width:1px;stroke-linecap:butt;stroke-linejoin:miter;stroke-opacity:1;fill-opacity:1"
     d="m 55,11.875 5,15 10,5 -20,5 -5,-10 -5,5 5,-15 z"
     id="path4166"
     inkscape:connector-curvature="0" />
  <path
     style="fill:#9f7f5f;fill-rule:evenodd;stroke:none;stroke-width:0.5;stroke-linecap:butt;stroke-linejoin:miter;stroke-opacity:1;fill-opacity:1;stroke-miterlimit:4;stroke-dasharray:none"
     d="m 50,41.875 5,5 -5,20 5,10 -15,5 5,-10 0,-15 5,-5 -5,-15 0,-5 z"
     id="path4168"
     inkscape:connector-curvature="0"
     sodipodi:nodetypes="ccccccccccc" />
  <path
     style="fill:#ccfa7d;fill-rule:evenodd;stroke:#000000;stroke-width:0.5;stroke-linecap:butt;stroke-linejoin:miter;stroke-opacity:1;fill-opacity:1;stroke-miterlimit:4;stroke-dasharray:none"
     d="m 13.585805,47.323888 c 0.301907,-0.07548 0.600565,-0.165399 0.90572,-0.22643 0.07401,-0.0148 0.150954,0 0.226431,0 0.22643,0 0.45286,0 0.67929,0 0.377383,0 0.754767,0 1.13215,0 1.207627,0 2.415254,0 3.622882,0 3.849311,0 7.698622,0 11.547934,0 2.566208,0 5.132415,0 7.698623,0 0.409733,0 1.24362,0.11496 1.58501,-0.22643 0.05337,-0.05337 0,-0.150954 0,-0.226431 0,-0.07548 0.02387,-0.154826 0,-0.22643 -0.05337,-0.16011 -0.17306,-0.29275 -0.22643,-0.45286 -0.02387,-0.0716 0.02387,-0.154826 0,-0.22643 -0.05337,-0.16011 -0.17306,-0.29275 -0.22643,-0.45286 -0.02387,-0.0716 0.02387,-0.154827 0,-0.22643 -0.546709,-1.640128 0.06528,0.356991 -0.45286,-0.67929 -0.10674,-0.213481 -0.11969,-0.46581 -0.22643,-0.679291 -0.04774,-0.09547 -0.150953,-0.150953 -0.22643,-0.22643 -0.07548,-0.07548 -0.137617,-0.167221 -0.22643,-0.22643 -0.140426,-0.09362 -0.301907,-0.150953 -0.45286,-0.22643 -0.150954,-0.07548 -0.289129,-0.185497 -0.452861,-0.22643 -0.146446,-0.03661 -0.301906,0 -0.45286,0 -0.150953,0 -0.301907,0 -0.45286,0 -0.754767,0 -1.509534,0 -2.264301,0 -2.037871,0 -4.075741,0 -6.113612,0 -2.415254,0 -4.830509,0 -7.245763,0 -0.67929,0 -1.35858,0 -2.037871,0 -0.22643,0 -0.45286,0 -0.67929,0 -0.07548,0 -0.154826,-0.02387 -0.22643,0 -0.16011,0.05337 -0.29275,0.17306 -0.45286,0.22643 -0.143207,0.04774 -0.309653,-0.04774 -0.45286,0 -0.16011,0.05337 -0.289128,0.185497 -0.45286,0.22643 -0.146447,0.03661 -0.304839,-0.0296 -0.452861,0 -0.234043,0.04681 -0.445247,0.179622 -0.67929,0.22643 -0.172938,0.03459 -0.733422,-0.05743 -0.90572,0 -0.16011,0.05337 -0.29275,0.17306 -0.45286,0.22643 -0.142515,0.04751 -0.928055,0 -1.132151,0 -0.07548,0 -0.154826,-0.02387 -0.22643,0 -0.16011,0.05337 -0.29275,0.17306 -0.45286,0.22643 -0.203787,0.06793 -0.475503,-0.06793 -0.67929,0 -0.16011,0.05337 -0.29275,0.17306 -0.45286,0.22643 -0.143207,0.04774 -0.309654,-0.04774 -0.452861,0 -0.16011,0.05337 -0.29275,0.17306 -0.45286,0.226431 -0.143207,0.04774 -0.317843,-0.06751 -0.45286,0 -0.09547,0.04774 -0.130959,0.178694 -0.22643,0.22643 -0.06751,0.03375 -0.158922,-0.03375 -0.22643,0 -0.09547,0.04774 -0.130959,0.178694 -0.22643,0.22643 -0.06751,0.03375 -0.158922,-0.03375 -0.2264303,0 -0.095471,0.04774 -0.1509534,0.150953 -0.2264301,0.22643 -0.075477,0.07548 -0.1786944,0.130959 -0.22643,0.22643 -0.096292,0.192584 0.1815613,0.611987 0.22643,0.67929 0.059209,0.08881 0.1672213,0.137617 0.2264301,0.22643 0.093617,0.140426 0.1328133,0.312434 0.2264303,0.45286 0.05921,0.08881 0.150953,0.150954 0.22643,0.226431 0.07548,0.07548 0.137617,0.167221 0.22643,0.22643 0.439368,0.292912 0.657717,0.22643 1.13215,0.22643 0.07548,0 0.154827,-0.02387 0.22643,0 0.160111,0.05337 0.29275,0.17306 0.452861,0.22643 0.0716,0.02387 0.152419,0.0148 0.22643,0 0.305155,-0.06103 0.603813,-0.150954 0.90572,-0.22643 z"
     id="path4172"
     inkscape:connector-curvature="0" />
  <path
     style="fill:#ccfa7d;fill-rule:evenodd;stroke:#000000;stroke-width:0.5;stroke-linecap:butt;stroke-linejoin:miter;stroke-opacity:1;fill-opacity:1;stroke-miterlimit:4;stroke-dasharray:none"
     d="M 28.167969 47.306641 C 27.928257 47.300703 27.696257 47.300469 27.625 47.324219 C 27.46489 47.377589 27.331985 47.497411 27.171875 47.550781 C 26.957277 47.622311 26.25366 47.479251 26.039062 47.550781 C 25.878953 47.604151 25.746048 47.723974 25.585938 47.777344 C 25.514337 47.801214 25.434851 47.777344 25.359375 47.777344 C 25.094746 47.777344 24.706821 47.726994 24.455078 47.777344 C 24.149923 47.838374 23.850735 47.928429 23.548828 48.003906 C 23.246921 48.154859 22.932018 48.281414 22.642578 48.455078 C 22.473795 48.556348 22.117681 48.979977 21.962891 49.134766 C 21.78603 49.311628 21.415414 49.619066 21.285156 49.814453 C 21.191536 49.954879 21.152211 50.127152 21.058594 50.267578 C 20.999384 50.356388 20.865785 50.392878 20.832031 50.494141 C 20.784291 50.637348 20.879761 50.804059 20.832031 50.947266 C 20.798281 51.048529 20.664678 51.085015 20.605469 51.173828 C 20.511849 51.314254 20.472523 51.486527 20.378906 51.626953 C 20.319696 51.715763 20.211552 51.762749 20.152344 51.851562 C 20.058724 51.991988 20.019399 52.164262 19.925781 52.304688 C 19.866571 52.393498 19.758428 52.442436 19.699219 52.53125 C 19.605599 52.671676 19.591995 52.865036 19.472656 52.984375 C 19.353317 53.103714 19.13887 53.091598 19.019531 53.210938 C 18.900192 53.330276 18.886586 53.523636 18.792969 53.664062 C 18.674551 53.841688 18.460214 53.939561 18.341797 54.117188 C 18.248177 54.257613 18.208851 54.429887 18.115234 54.570312 C 18.056024 54.659123 17.94788 54.708062 17.888672 54.796875 C 17.795052 54.937301 17.781448 55.128708 17.662109 55.248047 C 17.112155 55.798 17.329218 55.180982 16.982422 55.701172 C 16.795188 55.982024 16.716532 56.32657 16.529297 56.607422 C 16.41088 56.785049 16.19459 56.882921 16.076172 57.060547 C 15.797489 57.478572 15.675167 58.001897 15.396484 58.419922 C 15.337274 58.508732 15.22913 58.555718 15.169922 58.644531 C 14.982687 58.925383 14.905984 59.269929 14.71875 59.550781 C 14.65954 59.639591 14.551396 59.688531 14.492188 59.777344 C 14.398568 59.91777 14.359243 60.090043 14.265625 60.230469 C 14.147208 60.408095 13.880009 60.481068 13.8125 60.683594 C 13.76477 60.826801 13.86024 60.993512 13.8125 61.136719 C 13.77875 61.237981 13.645147 61.274468 13.585938 61.363281 C 13.492318 61.503707 13.452992 61.674027 13.359375 61.814453 C 13.240957 61.992079 12.973758 62.065053 12.90625 62.267578 C 12.85851 62.410785 12.95398 62.577496 12.90625 62.720703 C 12.8725 62.821966 12.727423 62.851794 12.679688 62.947266 C 12.572947 63.160746 12.541768 63.405346 12.453125 63.626953 C 12.390445 63.783653 12.267496 63.916346 12.226562 64.080078 C 12.226562 65.582026 12.333171 63.760255 12 64.759766 C 11.95226 64.902973 12.04774 65.067731 12 65.210938 C 11.96625 65.312201 11.832647 65.348687 11.773438 65.4375 C 11.679818 65.577926 11.602198 65.730514 11.548828 65.890625 C 11.524958 65.962225 11.572698 66.045584 11.548828 66.117188 C 11.442088 66.437408 11.221063 66.710037 11.095703 67.023438 C 11.007063 67.245045 10.957784 67.481518 10.869141 67.703125 C 10.806461 67.859825 10.695948 67.99614 10.642578 68.15625 C 10.618708 68.22785 10.666448 68.311208 10.642578 68.382812 C 10.382394 69.163365 10.416016 68.548988 10.416016 69.060547 C 10.416016 69.136027 10.382266 69.219601 10.416016 69.287109 C 10.582601 69.620279 10.77169 69.513672 11.095703 69.513672 L 11.548828 69.513672 C 11.775258 69.513672 12.002408 69.545692 12.226562 69.513672 C 12.560552 69.465962 13.454071 69.203919 13.8125 69.060547 C 14.1259 68.935187 14.416843 68.758375 14.71875 68.607422 C 14.869703 68.531942 15.00619 68.423745 15.169922 68.382812 C 15.316368 68.346203 15.47984 68.430553 15.623047 68.382812 C 15.724309 68.349063 15.760796 68.215459 15.849609 68.15625 C 16.130461 67.969016 16.475007 67.89036 16.755859 67.703125 C 16.844669 67.643915 16.906946 67.552039 16.982422 67.476562 C 17.133376 67.325609 17.317129 67.201064 17.435547 67.023438 C 17.71423 66.605412 17.836551 66.082086 18.115234 65.664062 C 18.174444 65.575253 18.282588 65.526314 18.341797 65.4375 C 18.529032 65.156649 18.605734 64.814055 18.792969 64.533203 C 18.852179 64.444393 18.971795 64.402112 19.019531 64.306641 C 19.053281 64.239131 18.985781 64.147586 19.019531 64.080078 C 19.537672 63.043796 18.925946 65.040518 19.472656 63.400391 C 19.496526 63.328791 19.448786 63.245431 19.472656 63.173828 C 19.526026 63.013717 19.645849 62.880814 19.699219 62.720703 C 19.723089 62.649103 19.665469 62.56165 19.699219 62.494141 C 19.794689 62.303199 20.056872 62.231959 20.152344 62.041016 C 20.186094 61.973506 20.118594 61.881962 20.152344 61.814453 C 20.200074 61.718983 20.319697 61.678657 20.378906 61.589844 C 20.56614 61.308992 20.644796 60.964446 20.832031 60.683594 C 20.969446 60.477471 21.411372 60.2046 21.511719 60.003906 C 21.790562 59.44622 20.852632 60.207916 21.736328 59.324219 C 21.789698 59.270849 21.760198 59.479178 21.736328 59.550781 C 21.682958 59.710892 21.552652 59.840174 21.511719 60.003906 C 21.475109 60.150353 21.548329 60.310584 21.511719 60.457031 C 21.470789 60.620763 21.318255 60.744662 21.285156 60.910156 C 21.285156 62.637509 21.386287 60.730245 21.058594 62.041016 C 20.985374 62.333909 21.154064 62.660852 21.058594 62.947266 C 21.024844 63.048528 20.865785 63.072565 20.832031 63.173828 C 20.784291 63.317035 20.861631 63.478931 20.832031 63.626953 C 20.785221 63.860996 20.644707 64.07121 20.605469 64.306641 C 20.568249 64.52999 20.642689 64.762979 20.605469 64.986328 C 20.566229 65.221759 20.425714 65.430018 20.378906 65.664062 C 20.349296 65.812084 20.415516 65.970741 20.378906 66.117188 C 20.337976 66.280919 20.205714 66.410203 20.152344 66.570312 C 20.128474 66.641913 20.152344 66.721398 20.152344 66.796875 C 20.152344 67.023305 20.207264 67.256894 20.152344 67.476562 C 20.126454 67.580116 19.95167 67.599572 19.925781 67.703125 C 19.873711 67.911387 19.925781 69.161477 19.925781 69.513672 L 19.925781 73.136719 L 19.925781 75.400391 C 19.925781 75.518796 19.896011 76.247103 19.925781 76.306641 C 20.098432 76.651941 20.521341 76.533203 20.832031 76.533203 L 22.189453 76.533203 C 22.415883 76.533203 22.649471 76.588123 22.869141 76.533203 C 22.972694 76.507313 22.99444 76.340395 23.095703 76.306641 C 23.23891 76.258901 23.402382 76.343251 23.548828 76.306641 C 23.71256 76.265711 23.838221 76.121011 24.001953 76.080078 C 24.148399 76.043468 24.308632 76.116688 24.455078 76.080078 C 24.61881 76.039148 24.74271 75.886615 24.908203 75.853516 C 25.130236 75.809106 25.363905 75.897926 25.585938 75.853516 C 25.751431 75.820416 25.873569 75.660052 26.039062 75.626953 C 26.483128 75.538143 26.959098 75.736788 27.398438 75.626953 C 27.501991 75.601063 27.529529 75.448127 27.625 75.400391 C 27.69391 75.365941 28.202713 75.400391 28.304688 75.400391 L 30.115234 75.400391 L 35.775391 75.400391 C 36.377765 75.400391 36.812779 75.539527 37.361328 75.173828 C 37.450138 75.114618 37.540155 75.04469 37.587891 74.949219 C 37.621641 74.881709 37.564021 74.794259 37.587891 74.722656 C 37.641261 74.562546 37.761083 74.429641 37.814453 74.269531 C 37.857033 74.141779 37.814453 73.738632 37.814453 73.589844 L 37.814453 72.457031 L 37.814453 70.646484 L 37.814453 69.966797 C 37.814453 69.815844 37.862193 69.656879 37.814453 69.513672 C 37.761083 69.353562 37.641261 69.220657 37.587891 69.060547 C 37.527141 68.878293 37.660241 68.300944 37.587891 68.15625 C 37.540151 68.06078 37.409064 68.025159 37.361328 67.929688 C 37.294528 67.796089 37.413238 67.405746 37.361328 67.25 C 37.307958 67.08989 37.188136 66.956985 37.134766 66.796875 C 37.110896 66.725275 37.158636 66.641915 37.134766 66.570312 C 37.028026 66.250091 36.788381 65.984282 36.681641 65.664062 C 36.456959 64.990017 37.217665 66.130209 36.455078 64.986328 C 36.395868 64.897518 36.276251 64.855238 36.228516 64.759766 C 36.194766 64.692256 36.262266 64.600712 36.228516 64.533203 C 36.180776 64.437733 36.049689 64.402112 36.001953 64.306641 C 35.934443 64.171624 36.069463 63.988533 36.001953 63.853516 C 35.954213 63.758046 35.823127 63.722424 35.775391 63.626953 C 35.741641 63.559443 35.809141 63.467899 35.775391 63.400391 C 35.727651 63.304921 35.596564 63.269299 35.548828 63.173828 C 35.481318 63.038811 35.616338 62.85572 35.548828 62.720703 C 35.501088 62.625233 35.381475 62.582955 35.322266 62.494141 C 35.135032 62.213289 35.058329 61.870696 34.871094 61.589844 C 34.752676 61.412218 34.51344 61.327661 34.417969 61.136719 C 34.384219 61.069209 34.451719 60.977664 34.417969 60.910156 C 34.370229 60.814686 34.239141 60.779065 34.191406 60.683594 C 34.035242 60.371266 34.465493 60.480793 33.964844 60.230469 C 33.76022 60.128157 33.379381 60.425622 33.285156 60.457031 C 33.081369 60.524961 32.809256 60.389101 32.605469 60.457031 C 32.445359 60.510401 32.312454 60.630224 32.152344 60.683594 C 32.024593 60.726174 31.623398 60.683594 31.474609 60.683594 L 30.341797 60.683594 L 26.945312 60.683594 C 26.794359 60.683594 26.635395 60.635854 26.492188 60.683594 C 26.263679 60.759764 25.943051 61.040707 25.8125 60.910156 C 25.476786 60.574442 26.478576 60.669982 25.8125 60.003906 C 25.75913 59.950536 25.657541 60.027776 25.585938 60.003906 C 23.945809 59.457197 25.944485 60.068921 24.908203 59.550781 C 24.840693 59.517031 24.74915 59.584531 24.681641 59.550781 C 24.586171 59.503041 24.530555 59.399696 24.455078 59.324219 C 24.379598 59.248739 24.276252 59.193127 24.228516 59.097656 C 24.117459 58.875543 24.332336 58.767273 24.455078 58.644531 C 24.919366 58.180243 24.735467 58.552372 25.132812 58.419922 C 25.544062 58.282839 25.553429 58.225867 25.8125 57.966797 C 25.88798 57.891317 25.95025 57.799442 26.039062 57.740234 C 26.179489 57.646614 26.351761 57.60729 26.492188 57.513672 C 27.055418 57.138185 26.51833 57.461377 26.71875 57.060547 C 27.236891 56.024266 26.625165 58.020986 27.171875 56.380859 C 27.195745 56.309259 27.138125 56.221805 27.171875 56.154297 C 27.267345 55.963354 27.506583 55.878798 27.625 55.701172 C 27.903684 55.283147 28.026004 54.761775 28.304688 54.34375 C 28.363898 54.25494 28.470088 54.206 28.529297 54.117188 C 29.291884 52.973306 28.531129 54.11159 28.755859 53.4375 C 28.862599 53.117279 29.102244 52.85147 29.208984 52.53125 C 29.232854 52.45965 29.185114 52.376291 29.208984 52.304688 C 29.262354 52.144576 29.382177 52.011674 29.435547 51.851562 C 29.459417 51.779963 29.411677 51.698557 29.435547 51.626953 C 29.488917 51.466843 29.608739 51.333938 29.662109 51.173828 C 29.709849 51.030621 29.594599 50.85572 29.662109 50.720703 C 29.709849 50.625233 29.840937 50.589612 29.888672 50.494141 C 29.922422 50.426631 29.888672 50.343054 29.888672 50.267578 L 29.888672 50.041016 L 29.888672 48.908203 C 29.888672 48.750712 29.929612 47.859229 29.888672 47.777344 C 29.840942 47.681874 29.737586 47.626257 29.662109 47.550781 C 29.586629 47.475301 29.531018 47.371954 29.435547 47.324219 C 29.366637 47.289759 28.857833 47.324219 28.755859 47.324219 C 28.653811 47.324219 28.40768 47.312578 28.167969 47.306641 z M 30.482422 64.517578 C 30.735538 64.512461 30.980542 64.512733 31.021484 64.533203 C 31.366784 64.705853 31.248047 65.126811 31.248047 65.4375 L 31.248047 70.646484 C 31.248047 70.916149 31.373838 71.435282 31.021484 71.552734 C 30.878277 71.600474 30.719313 71.552734 30.568359 71.552734 L 30.115234 71.552734 L 27.625 71.552734 L 27.171875 71.552734 C 27.020922 71.552734 26.861957 71.504994 26.71875 71.552734 C 26.617487 71.586484 26.593451 71.745543 26.492188 71.779297 C 26.25158 71.859497 25.826544 71.699097 25.585938 71.779297 C 24.805384 72.039481 25.419762 72.003906 24.908203 72.003906 C 24.759414 72.003906 24.356268 71.961326 24.228516 72.003906 C 23.875322 72.121637 23.771181 72.448613 23.548828 72.003906 C 23.539428 71.985156 23.539128 71.355306 23.548828 71.326172 C 23.602198 71.166061 23.742292 71.03854 23.775391 70.873047 C 23.819801 70.651014 23.775391 70.419789 23.775391 70.193359 L 23.775391 68.607422 C 23.775391 68.458633 23.732811 68.057439 23.775391 67.929688 C 23.828761 67.769577 23.948583 67.636673 24.001953 67.476562 C 24.069883 67.272775 23.934023 67.000662 24.001953 66.796875 C 24.055323 66.636765 24.175146 66.50386 24.228516 66.34375 C 24.276256 66.200543 24.180776 66.033832 24.228516 65.890625 C 24.281886 65.730514 24.379601 65.588454 24.455078 65.4375 L 24.908203 64.533203 L 27.171875 64.533203 L 29.888672 64.533203 C 29.967417 64.533203 30.229306 64.522696 30.482422 64.517578 z "
     id="path4174" />
  <path
     style="fill:#ccfa7d;fill-rule:evenodd;stroke:#000000;stroke-width:0.5;stroke-linecap:butt;stroke-linejoin:miter;stroke-opacity:1;fill-opacity:1;stroke-miterlimit:4;stroke-dasharray:none"
     d="m 45.286017,45.965307 c 0.552574,0.307011 0.931671,0.705241 1.35858,1.132151 0.07548,0.07548 0.167222,0.137616 0.226431,0.22643 0.09362,0.140426 0.132812,0.312434 0.22643,0.45286 0.118417,0.177626 0.301906,0.301907 0.45286,0.45286 0.150953,0.150953 0.334442,0.275234 0.45286,0.45286 0.09362,0.140426 0.150953,0.301907 0.22643,0.45286 0.07548,0.150954 0.17306,0.29275 0.22643,0.452861 0.04774,0.143206 0,0.301906 0,0.45286 0,0.63824 0.06619,0.839531 -0.45286,1.35858 -0.07548,0.07548 -0.150953,0.150954 -0.22643,0.22643 -0.07548,0.07548 -0.130959,0.178695 -0.22643,0.22643 -0.06751,0.03375 -0.154827,-0.02387 -0.22643,0 -0.160111,0.05337 -0.29275,0.17306 -0.45286,0.22643 -0.0716,0.02387 -0.150954,0 -0.226431,0 -0.22643,0 -0.45286,0 -0.67929,0 -0.21938,0 -1.223567,0.04501 -1.35858,0 -0.51912,-0.173039 -1.185541,-0.839461 -1.358581,-1.35858 -0.04751,-0.142515 0,-0.928054 0,-1.13215 0,-0.313392 -0.04998,-1.158677 0,-1.358581 0.0079,-0.03179 0.409023,-0.387105 0.45286,-0.45286 0.09362,-0.140426 0.150954,-0.301907 0.22643,-0.45286 0.410456,-0.820911 0.476417,-0.696958 1.358581,-1.358581 z"
     id="path4178"
     inkscape:connector-curvature="0" />
  <path
     style="fill:#ccfa7d;fill-rule:evenodd;stroke:#000000;stroke-width:0.5;stroke-linecap:butt;stroke-linejoin:miter;stroke-opacity:1;fill-opacity:1;stroke-miterlimit:4;stroke-dasharray:none"
     d="m 43.021716,55.022511 c 0.377384,0 0.754767,0 1.132151,0 0.07548,0 0.154826,-0.02387 0.22643,0 0.16011,0.05337 0.301906,0.150953 0.45286,0.22643 0.150953,0.07548 0.312434,0.132812 0.45286,0.22643 0.09416,0.06278 0.865228,0.824736 0.90572,0.90572 0.03445,0.06891 0,0.577316 0,0.67929 0,0.148789 0.04258,0.551539 0,0.679291 -0.05337,0.16011 -0.132812,0.312434 -0.22643,0.45286 -0.06202,0.09302 -0.586266,0.617274 -0.67929,0.67929 -0.140426,0.09362 -0.301907,0.150953 -0.45286,0.22643 -0.150954,0.07548 -0.29275,0.17306 -0.45286,0.22643 -0.143207,0.04774 -0.301907,0 -0.452861,0 -0.148788,0 -0.551538,0.04258 -0.67929,0 -0.485643,-0.161881 -0.78408,-0.55765 -1.13215,-0.90572 -0.07548,-0.07548 -0.150954,-0.150954 -0.22643,-0.22643 -0.07548,-0.07548 -0.178695,-0.130959 -0.22643,-0.22643 -0.03446,-0.06891 0,-0.577316 0,-0.679291 0,-0.182284 -0.04737,-0.7636 0,-0.90572 0.223598,-0.670795 0.812755,-0.949212 1.35858,-1.35858 z"
     id="path4180"
     inkscape:connector-curvature="0" />
  <path
     style="fill:#ccfa7d;fill-rule:evenodd;stroke:#000000;stroke-width:0.5;stroke-linecap:butt;stroke-linejoin:miter;stroke-opacity:1;fill-opacity:1;stroke-miterlimit:4;stroke-dasharray:none"
     d="m 40.078125,62.494703 c 0.502687,-0.259038 1.066934,0.103616 1.585011,0 0.234043,-0.04681 0.447738,-0.168542 0.67929,-0.22643 0.196818,-0.0492 0.68183,0 0.90572,0 0.754767,0 1.509534,0 2.264301,0 0.176997,0 1.461235,0.04126 1.585011,0 0.16011,-0.05337 0.312434,-0.132812 0.45286,-0.22643 0.08881,-0.05921 0.150953,-0.150953 0.22643,-0.22643 0.07548,-0.07548 0.178694,-0.130959 0.22643,-0.22643 0.06751,-0.135017 -0.04774,-0.309653 0,-0.45286 0.05337,-0.16011 0.17306,-0.29275 0.22643,-0.45286 0.06793,-0.203787 -0.06793,-0.475503 0,-0.679291 0.10674,-0.32022 0.34612,-0.585499 0.45286,-0.90572 0.02387,-0.0716 -0.02387,-0.154827 0,-0.22643 0.05337,-0.16011 0.17306,-0.29275 0.22643,-0.45286 0.02387,-0.0716 -0.02387,-0.154827 0,-0.22643 0.05337,-0.16011 0.17306,-0.29275 0.22643,-0.45286 0.04774,-0.143207 -0.06751,-0.317844 0,-0.452861 0.04774,-0.09547 0.178695,-0.130958 0.226431,-0.22643 0.07116,-0.142316 -0.07116,-0.763404 0,-0.90572 0.04774,-0.09547 0.167221,-0.137617 0.22643,-0.22643 0.09362,-0.140426 0.150953,-0.301907 0.22643,-0.45286 0.07548,-0.150954 0.17306,-0.29275 0.22643,-0.45286 0.02387,-0.0716 -0.02387,-0.154827 0,-0.226431 0.05337,-0.16011 0.17306,-0.292749 0.22643,-0.45286 0.04773,-0.143207 -0.06751,-0.317843 0,-0.45286 0.04773,-0.09547 0.178694,-0.130959 0.22643,-0.22643 0.07116,-0.142316 -0.07116,-0.763404 0,-0.90572 0.04774,-0.09547 0.178694,-0.130959 0.22643,-0.22643 0.0668,-0.133599 -0.05192,-0.523545 0,-0.679291 0.05337,-0.16011 0.17306,-0.29275 0.22643,-0.45286 0.06793,-0.203787 -0.06793,-0.475503 0,-0.67929 0.05337,-0.16011 0.150953,-0.301907 0.22643,-0.45286 0,-0.22643 -0.04441,-0.457258 0,-0.67929 0.0331,-0.165494 0.193332,-0.287367 0.22643,-0.452861 0.04441,-0.222033 0,-0.45286 0,-0.67929 0,-0.07548 -0.02387,-0.154827 0,-0.22643 0.05337,-0.16011 0.185497,-0.289128 0.22643,-0.45286 0.05492,-0.21967 0,-0.45286 0,-0.67929 0,-0.452861 0,-0.905721 0,-1.358581 0,-0.22643 0,-0.45286 0,-0.67929 0,-0.07548 -0.05337,-0.17306 0,-0.22643 0.16426,-0.16426 0.609397,0.348019 0.679291,0.45286 0.09362,0.140426 0.132812,0.312434 0.22643,0.45286 0.118417,0.177626 0.334442,0.275234 0.45286,0.45286 0.09362,0.140426 0.132813,0.312434 0.22643,0.45286 0.05921,0.08881 0.178694,0.130959 0.22643,0.226431 0.03375,0.06751 -0.03375,0.158921 0,0.22643 0.04774,0.09547 0.178694,0.130958 0.22643,0.22643 0.02977,0.05954 0,0.787315 0,0.90572 0,0.67929 0,1.358581 0,2.037871 0,0.377383 0,0.754767 0,1.13215 0,0.07548 0,0.150954 0,0.22643 0,0.07548 0.03375,0.158922 0,0.22643 -0.04774,0.09547 -0.178694,0.130959 -0.22643,0.22643 -0.06751,0.135017 0.04774,0.309654 0,0.452861 -0.05337,0.16011 -0.17306,0.29275 -0.22643,0.45286 -0.06793,0.203787 0.06793,0.475503 0,0.67929 -0.05337,0.16011 -0.17306,0.29275 -0.22643,0.45286 -0.0802,0.240608 0.0802,0.665113 0,0.905721 -0.05337,0.16011 -0.193332,0.287366 -0.22643,0.45286 -0.03712,0.185617 0,1.590586 0,1.81144 0,0.07548 0.02387,0.154827 0,0.22643 -0.05337,0.160111 -0.17306,0.29275 -0.22643,0.452861 -0.04774,0.143207 0.04774,0.309653 0,0.45286 -0.05337,0.16011 -0.17306,0.29275 -0.22643,0.45286 -0.04774,0.143207 0.04774,0.309653 0,0.45286 -0.05337,0.16011 -0.17306,0.29275 -0.22643,0.45286 -0.04774,0.143207 0.06751,0.317844 0,0.452861 -0.04774,0.09547 -0.178695,0.130958 -0.226431,0.22643 -0.03375,0.06751 0.03375,0.158921 0,0.22643 -0.04773,0.09547 -0.167221,0.137617 -0.22643,0.22643 -0.09362,0.140426 -0.132812,0.312434 -0.22643,0.45286 -0.05921,0.08881 -0.178694,0.130959 -0.22643,0.22643 -0.03375,0.06751 0.03375,0.158922 0,0.22643 -0.06291,0.125813 -0.45286,0.37985 -0.45286,0.45286 0,0.07548 0.154827,0.02387 0.22643,0 0.16011,-0.05337 0.301907,-0.150953 0.45286,-0.22643 0.150954,-0.07548 0.301907,-0.150953 0.45286,-0.22643 0.07548,0 0.154827,0.02387 0.226431,0 0.16011,-0.05337 0.292749,-0.17306 0.45286,-0.22643 0.127751,-0.04258 0.530501,0 0.67929,0 3.019068,0 6.038136,0 9.057203,0 0.148789,0 0.551539,-0.04258 0.679291,0 0.16011,0.05337 0.29275,0.17306 0.45286,0.22643 0.155746,0.05192 0.545692,-0.0668 0.67929,0 0.09547,0.04774 0.22643,0.11969 0.22643,0.22643 0,0.10674 -0.167221,0.137617 -0.22643,0.22643 -0.09362,0.140426 -0.132813,0.312434 -0.22643,0.45286 -0.118418,0.177627 -0.301907,0.301907 -0.45286,0.452861 -0.07548,0.07548 -0.167222,0.137617 -0.22643,0.22643 -0.09362,0.140426 -0.132813,0.312434 -0.22643,0.45286 -0.05921,0.08881 -0.150954,0.150953 -0.22643,0.22643 -0.07548,0.07548 -0.130959,0.178694 -0.226431,0.22643 -0.135016,0.06751 -0.306413,-0.03661 -0.45286,0 -2.345536,0.781846 0.936341,-0.232554 -1.35858,0.22643 -0.165494,0.0331 -0.289128,0.185497 -0.45286,0.22643 -0.292893,0.07322 -0.619307,-0.09547 -0.905721,0 -0.101262,0.03375 -0.130959,0.178695 -0.22643,0.22643 -0.133598,0.0668 -0.523544,-0.05191 -0.67929,0 -0.16011,0.05337 -0.287367,0.193332 -0.45286,0.22643 -1.287707,0 -0.149073,-0.101262 -1.132151,0.22643 -0.142515,0.04751 -0.928054,0 -1.13215,0 -0.90572,0 -1.811441,0 -2.717161,0 -0.377384,0 -0.754767,0 -1.132151,0 -0.148789,0 -0.551538,-0.04258 -0.67929,0 -0.16011,0.05337 -0.29275,0.17306 -0.45286,0.226431 -0.303837,0.101279 -0.67929,-0.246893 -0.67929,0.45286 0,0.22643 0,0.45286 0,0.67929 0,0.07548 -0.02387,0.154827 0,0.22643 0.05337,0.16011 0.17306,0.29275 0.22643,0.45286 0.04773,0.143207 -0.06751,0.317844 0,0.45286 0.04773,0.09547 0.150953,0.150954 0.22643,0.22643 0.07548,0.07548 0.125167,0.192676 0.22643,0.226431 0.286414,0.09547 0.619306,-0.09547 0.90572,0 0.101263,0.03375 0.130959,0.178694 0.22643,0.22643 0.144694,0.07235 0.723467,-0.06075 0.905721,0 0.16011,0.05337 0.29275,0.17306 0.45286,0.22643 0.143207,0.04774 0.309653,-0.04774 0.45286,0 0.16011,0.05337 0.29275,0.17306 0.45286,0.22643 0.203787,0.06793 0.475503,-0.06793 0.679291,0 0.32022,0.10674 0.585499,0.34612 0.90572,0.45286 0.674044,0.224681 -0.464591,-0.536157 0.67929,0.22643 0.08881,0.05921 0.130959,0.178695 0.22643,0.22643 0.135017,0.06751 0.317844,-0.06751 0.45286,0 0.09547,0.04774 0.137617,0.167221 0.22643,0.22643 0.140426,0.09362 0.312435,0.132813 0.452861,0.22643 0.195386,0.130258 0.502428,0.502429 0.67929,0.679291 0.119207,0.119207 0.618824,0.558357 0.67929,0.67929 0.03375,0.06751 -0.03375,0.158922 0,0.22643 0.04774,0.09547 0.167221,0.137617 0.22643,0.22643 0.11945,0.179175 0.612656,1.158677 0.67929,1.358581 0.02387,0.0716 -0.03375,0.158921 0,0.22643 0.04774,0.09547 0.178695,0.130958 0.226431,0.22643 0.03375,0.06751 -0.02387,0.154826 0,0.22643 0.10674,0.32022 0.34612,0.5855 0.45286,0.90572 0.02387,0.0716 -0.02387,0.154827 0,0.22643 0.05337,0.16011 0.17306,0.29275 0.22643,0.45286 0.0802,0.240608 -0.0802,0.665113 0,0.905721 0.05337,0.16011 0.185497,0.289128 0.22643,0.45286 0.03661,0.146446 0,0.301907 0,0.45286 0,0.45286 0,0.90572 0,1.358581 0,0.377383 0,0.754767 0,1.13215 0,0.07548 0,0.150953 0,0.22643 0,0.07548 0.03375,0.158922 0,0.22643 -0.04774,0.09547 -0.130959,0.178695 -0.22643,0.22643 -0.204624,0.102312 -0.585066,-0.195022 -0.67929,-0.22643 -0.143207,-0.04774 -0.309654,0.04774 -0.452861,0 -0.16011,-0.05337 -0.29275,-0.17306 -0.45286,-0.22643 -0.108854,-0.03628 -1.551724,0 -1.58501,0 -0.377384,0 -0.754767,0 -1.132151,0 -0.07548,0 -0.154826,-0.02387 -0.22643,0 -0.16011,0.05337 -0.29275,0.17306 -0.45286,0.22643 -0.14212,0.04737 -0.723436,0 -0.90572,0 -0.101975,0 -0.61038,0.03445 -0.679291,0 -0.09547,-0.04774 -0.22643,-0.11969 -0.22643,-0.22643 0,-0.168771 0.150954,-0.301907 0.22643,-0.45286 0.07548,-0.150953 0.132813,-0.312434 0.22643,-0.45286 0.118418,-0.177627 0.357389,-0.261918 0.452861,-0.45286 0.02927,-0.05854 0,-1.198087 0,-1.358581 0,-0.204096 0.04751,-0.989635 0,-1.13215 -0.106741,-0.320221 -0.34612,-0.5855 -0.452861,-0.905721 -0.224681,-0.674044 0.536158,0.464591 -0.22643,-0.67929 -0.174177,-0.261265 -0.505113,-0.418025 -0.67929,-0.67929 -0.09362,-0.140426 -0.132813,-0.312434 -0.22643,-0.45286 -0.05921,-0.08881 -0.150953,-0.150954 -0.22643,-0.22643 -0.07548,-0.07548 -0.137617,-0.167222 -0.22643,-0.226431 -0.280852,-0.187234 -0.624869,-0.265625 -0.90572,-0.45286 -0.08881,-0.05921 -0.137617,-0.167221 -0.226431,-0.22643 -0.418024,-0.278683 -0.940555,-0.400607 -1.35858,-0.67929 -0.08881,-0.05921 -0.137617,-0.167221 -0.22643,-0.22643 -0.140426,-0.09362 -0.312434,-0.132813 -0.45286,-0.22643 -0.08881,-0.05921 -0.130959,-0.178695 -0.22643,-0.22643 -0.06751,-0.03376 -0.154827,0.02387 -0.22643,0 -0.160111,-0.05337 -0.301907,-0.150954 -0.452861,-0.22643 -0.16689,-0.08344 -0.442169,-0.305471 -0.67929,-0.22643 -0.903739,0.301246 -0.247142,0.514997 -0.45286,1.13215 -0.03375,0.101263 -0.192676,0.125167 -0.22643,0.22643 -0.09547,0.286414 0.09547,0.619306 0,0.90572 -0.03375,0.101263 -0.178695,0.130959 -0.22643,0.22643 -0.07235,0.144694 0.06075,0.723467 0,0.905721 -0.05337,0.16011 -0.17306,0.29275 -0.22643,0.45286 -0.04774,0.143207 0.04773,0.309653 0,0.45286 -0.05337,0.16011 -0.17306,0.29275 -0.22643,0.45286 -0.02387,0.0716 0.03375,0.158922 0,0.22643 -0.518141,1.036282 0.09385,-0.960837 -0.452861,0.679291 -0.02387,0.0716 0.03376,0.158921 0,0.22643 -0.09547,0.190942 -0.334442,0.275234 -0.45286,0.45286 -0.187234,0.280852 -0.265625,0.624868 -0.45286,0.90572 -0.05921,0.08881 -0.167221,0.137617 -0.22643,0.22643 -0.09362,0.140426 -0.132813,0.312434 -0.22643,0.45286 -0.05921,0.08881 -0.150954,0.150954 -0.22643,0.226431 -0.301907,0.301906 -0.603814,0.603813 -0.905721,0.90572 -0.150953,0.150953 -0.334442,0.275234 -0.45286,0.45286 -0.09362,0.140426 -0.132812,0.312434 -0.22643,0.45286 -0.174177,0.261266 -0.505113,0.418025 -0.67929,0.67929 -0.09362,0.140426 -0.107091,0.333522 -0.22643,0.452861 -0.119339,0.119339 -0.312434,0.132812 -0.45286,0.22643 -0.261266,0.174177 -0.418025,0.505113 -0.679291,0.67929 -0.593545,0.395697 -0.395697,0.08463 -1.13215,0.45286 -0.09547,0.04774 -0.137617,0.167221 -0.22643,0.22643 -0.140426,0.09362 -0.29275,0.17306 -0.45286,0.22643 -0.02913,0.0097 -0.660538,0.0094 -0.67929,0 -0.09547,-0.04774 -0.150954,-0.150953 -0.226431,-0.22643 -0.444747,-0.444748 -0.45286,-0.56363 -0.45286,-1.13215 0,-0.07548 -0.03375,-0.158922 0,-0.22643 0.04774,-0.09547 0.167222,-0.137617 0.22643,-0.22643 0.548332,-0.822498 -0.06631,-0.160124 0.452861,-0.679291 0.519166,-0.519166 -0.143207,0.09547 0.67929,-0.45286 0.177626,-0.118417 0.301907,-0.301907 0.45286,-0.45286 0.301907,-0.301907 0.603813,-0.603813 0.90572,-0.90572 0.150954,-0.150954 0.275234,-0.334443 0.45286,-0.45286 0.140426,-0.09362 0.312435,-0.132813 0.452861,-0.226431 0.3115,-0.207666 0.232878,-0.349317 0.45286,-0.67929 0.05921,-0.08881 0.150953,-0.150953 0.22643,-0.22643 0.22643,-0.22643 0.45286,-0.45286 0.67929,-0.67929 0.07548,-0.07548 0.150954,-0.150954 0.22643,-0.22643 0.07548,-0.07548 0.192676,-0.125168 0.22643,-0.22643 0.04774,-0.143207 -0.04773,-0.309653 0,-0.45286 0.04085,-0.122553 0.580118,-0.530532 0.679291,-0.679291 0.278683,-0.418024 0.400607,-0.940555 0.67929,-1.35858 0.118417,-0.177627 0.334442,-0.275234 0.45286,-0.45286 0.278683,-0.418025 0.400607,-0.940556 0.67929,-1.358581 0.05921,-0.08881 0.192676,-0.125167 0.22643,-0.22643 0.04774,-0.143207 -0.04774,-0.309653 0,-0.45286 0.03375,-0.101263 0.178695,-0.130959 0.22643,-0.22643 0.03376,-0.06751 -0.03375,-0.158922 0,-0.22643 0.04774,-0.09547 0.178695,-0.130959 0.22643,-0.22643 0.06751,-0.135017 -0.04773,-0.309654 0,-0.452861 0.05337,-0.16011 0.17306,-0.292749 0.226431,-0.45286 0.07153,-0.214598 -0.07153,-0.917552 0,-1.13215 0.05337,-0.16011 0.17306,-0.29275 0.22643,-0.45286 0.04773,-0.143207 0,-0.301907 0,-0.452861 0,-0.377383 0,-0.754766 0,-1.13215 0,-0.07548 0,-0.150953 0,-0.22643 0,-0.07548 -0.03376,-0.158922 0,-0.22643 0.04773,-0.09547 0.178694,-0.130959 0.22643,-0.22643 0.0059,-0.01185 0.0059,-0.667445 0,-0.67929 -0.04774,-0.09547 -0.130959,-0.178695 -0.22643,-0.226431 -0.08088,-0.04044 -1.306169,0 -1.358581,0 -1.660487,0 -3.320974,0 -4.981462,0 -0.528337,0 -1.056673,0 -1.58501,0 -0.101975,0 -0.61038,0.03446 -0.679291,0 -0.09547,-0.04774 -0.130958,-0.178694 -0.22643,-0.22643 -0.06751,-0.03375 -0.158921,0.03375 -0.22643,0 -0.190942,-0.09547 -0.275234,-0.334442 -0.45286,-0.45286 -0.140426,-0.09362 -0.333521,-0.107091 -0.45286,-0.22643 -0.05337,-0.05337 0,-0.150953 0,-0.22643 0,-0.520379 0.208416,-0.312624 0.45286,-0.67929 0.09362,-0.140426 0.107091,-0.333521 0.22643,-0.45286 0.05337,-0.05337 0.158922,0.03375 0.22643,0 0.09547,-0.04774 0.130959,-0.178695 0.22643,-0.22643 0.06751,-0.03375 0.158922,0.03375 0.22643,0 0.09547,-0.04774 0.130959,-0.178695 0.226431,-0.226431 0.135016,-0.06751 0.304838,0.0296 0.45286,0 0.305155,-0.06103 0.603813,-0.150953 0.90572,-0.22643 z"
     id="path4182"
     inkscape:connector-curvature="0" />
  <circle
     id="path4184"
     style="fill:#000000;stroke:none;stroke-width:0.5;stroke-miterlimit:4;stroke-dasharray:none"
     cx="85.17865"
     cy="71.330528"
     r="1.5" />
  <path
     style="fill:#ccfa7d;fill-rule:evenodd;stroke:#000000;stroke-width:0.5;stroke-linecap:butt;stroke-linejoin:miter;stroke-opacity:1;fill-opacity:1;stroke-miterlimit:4;stroke-dasharray:none"
     d="m 90.942621,60.122807 c -0.533701,0.320221 -1.083237,0.615418 -1.601102,0.960662 -0.369486,0.246323 -0.591177,0.714338 -0.960662,0.960661 -0.198592,0.132395 -0.441849,0.187826 -0.640441,0.320221 -0.125601,0.08373 -0.19462,0.236487 -0.32022,0.32022 -0.681657,0.454438 -0.599226,0.186004 -1.280882,0.640441 -0.125601,0.08373 -0.19462,0.236487 -0.320221,0.320221 -0.340828,0.227219 -0.940053,0.413222 -1.280882,0.640441 -0.251201,0.167468 -0.42696,0.426961 -0.640441,0.640441 -0.32022,0.32022 -0.640441,0.640441 -0.960661,0.960661 -0.320221,0.320221 -0.640441,0.640441 -0.960662,0.960662 -0.21348,0.21348 -0.472973,0.389239 -0.640441,0.640441 -0.367956,0.551934 -0.32022,0.48404 -0.32022,0.960661 0,0.106741 0.04773,0.22475 0,0.320221 -0.06751,0.135017 -0.252712,0.185204 -0.320221,0.32022 -0.0238,0.04761 -0.02344,1.210568 0,1.280882 0.07548,0.22643 0.213481,0.426961 0.320221,0.640441 0.10674,0.213481 0.151449,0.47167 0.32022,0.640441 0.168771,0.168771 0.441849,0.187826 0.640441,0.320221 0.125601,0.08373 0.185204,0.252712 0.320221,0.32022 0.114376,0.05719 1.847201,0 1.921323,0 0.32022,0 0.650002,0.07767 0.960661,0 0.146446,-0.03661 0.19462,-0.236486 0.320221,-0.32022 0.591176,-0.394118 1.330146,-0.566544 1.921323,-0.960662 0.1256,-0.08373 0.194619,-0.236486 0.32022,-0.32022 0.198592,-0.132395 0.441849,-0.187826 0.640441,-0.320221 0.210377,-0.140251 0.787346,-0.902889 0.960662,-0.960661 0.202525,-0.06751 0.437915,0.06751 0.640441,0 0.143207,-0.04774 0.21348,-0.21348 0.32022,-0.320221 0.320221,-0.32022 0.640441,-0.640441 0.960662,-0.960661 0.10674,-0.10674 0.194619,-0.236487 0.32022,-0.320221 0.198592,-0.132394 0.441849,-0.187825 0.640441,-0.32022 0.125601,-0.08373 0.21348,-0.21348 0.320221,-0.320221 0.10674,-0.10674 0.252712,-0.185203 0.32022,-0.32022 0.04774,-0.09547 -0.04774,-0.224749 0,-0.320221 0.06751,-0.135016 0.252712,-0.185203 0.320221,-0.32022 0.04873,-0.09745 0,-0.816448 0,-0.960662 0,-0.640441 0,-1.280882 0,-1.921323 0,-0.222726 0.0579,-1.4853 0,-1.601102 -0.05592,-0.111849 -0.845162,-0.891361 -0.960662,-0.960662 -0.40933,-0.245597 -1.280882,-0.163084 -1.280882,-0.640441 0,-0.440101 0.857714,0.199316 1.280882,0.320221 1.475191,0.421483 0.423193,0.32022 1.921323,0.32022"
     id="path4192"
     inkscape:connector-curvature="0" />
  <path
     style="fill:#ccfa7d;fill-rule:evenodd;stroke:#000000;stroke-width:0.5;stroke-linecap:butt;stroke-linejoin:miter;stroke-opacity:1;fill-opacity:1;stroke-miterlimit:4;stroke-dasharray:none"
     d="m 97.667252,61.403689 c 0,0.426961 -0.07019,0.859731 0,1.280882 0.03924,0.235431 0.21348,0.426961 0.32022,0.640441 0.21348,0.426961 0.375651,0.883698 0.640441,1.280882 0.08373,0.125601 0.21348,0.213481 0.320221,0.320221 0.10674,0.10674 0.21348,0.21348 0.32022,0.32022 0.10674,0.213481 0.15145,0.47167 0.320221,0.640441 0.168771,0.168771 0.441845,0.187826 0.640445,0.320221 0.1256,0.08373 0.19462,0.236487 0.32022,0.32022 0.19859,0.132395 0.44184,0.187826 0.64044,0.320221 0.27632,0.184212 0.71054,0.710542 0.96066,0.960661 0.10674,0.106741 0.1852,0.252712 0.32022,0.320221 0.27235,0.136177 0.86548,-0.256767 0.96066,-0.320221 0.1256,-0.08373 0.19462,-0.236486 0.32022,-0.32022 0.19859,-0.132395 0.44185,-0.187826 0.64044,-0.320221 0.088,-0.05865 0.93817,-0.893175 0.96066,-0.960661 0.0675,-0.202525 -0.0675,-0.437916 0,-0.640441 0.0477,-0.143207 0.27249,-0.177014 0.32022,-0.320221 0.0279,-0.08358 0.0515,-1.766716 0,-1.921323 -0.0942,-0.282705 -0.79173,-1.667931 -0.96066,-1.921323 -0.0837,-0.1256 -0.23648,-0.194619 -0.32022,-0.32022 -0.13239,-0.198592 -0.18782,-0.441849 -0.32022,-0.640441 -0.0905,-0.13573 -0.82817,-0.894416 -0.96066,-0.960662 -0.0955,-0.04773 -0.22475,0.04774 -0.32022,0 -0.13502,-0.06751 -0.1852,-0.252712 -0.32022,-0.32022 -0.0975,-0.04873 -0.81645,0 -0.96066,0 -0.16745,0 -1.19669,-0.0421 -1.28088,0 -0.13502,0.06751 -0.18521,0.252712 -0.320225,0.32022 -0.09547,0.04774 -0.224749,-0.04773 -0.32022,0 -0.135017,0.06751 -0.19462,0.236487 -0.320221,0.320221 -1.397247,0.931498 0.127634,-0.703879 -1.601102,1.601102 z"
     id="path4194"
     inkscape:connector-curvature="0" />
  <path
     style="fill:#ccfa7d;fill-rule:evenodd;stroke:#000000;stroke-width:0.5;stroke-linecap:butt;stroke-linejoin:miter;stroke-opacity:1;fill-opacity:1;stroke-miterlimit:4;stroke-dasharray:none"
     d="m 96.066149,67.167658 c -0.426961,0.320221 -0.853921,0.640441 -1.280882,0.960662 -0.21348,0.10674 -0.441849,0.187825 -0.640441,0.32022 -0.125601,0.08373 -0.185204,0.252712 -0.32022,0.320221 -0.301907,0.150953 -0.647262,0.19486 -0.960662,0.32022 -0.443214,0.177286 -0.853921,0.426961 -1.280882,0.640441 -0.21348,0.106741 -0.441849,0.187826 -0.640441,0.320221 -0.125601,0.08373 -0.19462,0.236486 -0.32022,0.32022 -0.397185,0.26479 -0.883698,0.375652 -1.280882,0.640441 -0.125601,0.08373 -0.19462,0.236487 -0.320221,0.320221 -0.397185,0.26479 -0.883697,0.375651 -1.280882,0.640441 -0.125601,0.08373 -0.19462,0.236486 -0.32022,0.32022 -0.198593,0.132395 -0.441849,0.187826 -0.640441,0.320221 -0.125601,0.08373 -0.19462,0.236486 -0.320221,0.32022 -0.198592,0.132395 -0.441849,0.187826 -0.640441,0.320221 -0.125601,0.08373 -0.19462,0.236486 -0.32022,0.32022 -0.681657,0.454438 -0.599226,0.186003 -1.280882,0.640441 -0.125601,0.08373 -0.19462,0.236487 -0.320221,0.320221 -0.397184,0.26479 -0.883697,0.375651 -1.280882,0.640441 -0.125601,0.08373 -0.194619,0.236486 -0.32022,0.32022 -0.198593,0.132395 -0.441849,0.187826 -0.640441,0.320221 -0.210377,0.140251 -0.787346,0.902889 -0.960662,0.960661 -0.202525,0.06751 -0.437916,-0.06751 -0.640441,0 -0.07141,0.0238 -1.234006,1.18713 -1.280882,1.280882 -0.04774,0.09547 0.04774,0.224749 0,0.320221 -0.08307,0.16614 -0.960661,0.861273 -0.960661,0.960661 0,0.454728 0.732987,0.320221 0.960661,0.320221 0.320221,0 0.640441,0 0.960662,0 0.10674,-0.10674 0.177013,-0.272485 0.32022,-0.320221 0.202525,-0.06751 0.431107,0.04187 0.640441,0 0.330987,-0.0662 0.629674,-0.254023 0.960662,-0.32022 0.418669,-0.08373 0.875831,0.135017 1.280882,0 1.413521,-0.471174 -1.163414,-0.320221 0.960661,-0.320221 0.213481,0 0.426961,0 0.640441,0 0.10674,-0.10674 0.173774,-0.283609 0.320221,-0.32022 0.310659,-0.07766 0.650002,0.07766 0.960661,0 0.146446,-0.03661 0.185204,-0.252712 0.320221,-0.320221 0.09547,-0.04774 0.218958,0.03375 0.32022,0 0.158242,-0.05275 1.12264,-0.587693 1.280882,-0.640441 0.101263,-0.03375 0.218958,0.03375 0.320221,0 0.22643,-0.07548 0.42696,-0.21348 0.640441,-0.32022 0.21348,-0.10674 0.441848,-0.187826 0.640441,-0.320221 0.251201,-0.167467 0.389239,-0.472973 0.640441,-0.640441 0.397184,-0.264789 0.883697,-0.375651 1.280882,-0.640441 0.1256,-0.08373 0.194619,-0.236486 0.32022,-0.32022 0.397185,-0.26479 0.883697,-0.375651 1.280882,-0.640441 0.251202,-0.167468 0.389239,-0.472973 0.640441,-0.640441 0.198592,-0.132395 0.441849,-0.187826 0.640441,-0.320221 0.125601,-0.08373 0.21348,-0.21348 0.320221,-0.32022 0.10674,-0.10674 0.236486,-0.19462 0.32022,-0.320221 0.132395,-0.198592 0.187826,-0.441848 0.320221,-0.640441 0.08373,-0.1256 0.252712,-0.185203 0.32022,-0.32022 0.09547,-0.190943 -0.09547,-0.449499 0,-0.640441 0.06751,-0.135017 0.252712,-0.185204 0.320221,-0.320221 0.09547,-0.190942 -0.06751,-0.437915 0,-0.640441 0.07548,-0.22643 0.244743,-0.414011 0.32022,-0.640441 0.06022,-0.180668 0,-0.750242 0,-0.960661 0,-0.533701 0,-1.067402 0,-1.601103 z"
     id="path4196"
     inkscape:connector-curvature="0" />
  <path
     style="fill:#ccfa7d;fill-rule:evenodd;stroke:#000000;stroke-width:0.5;stroke-linecap:butt;stroke-linejoin:miter;stroke-opacity:1;fill-opacity:1;stroke-miterlimit:4;stroke-dasharray:none"
     d="m 99.268354,68.768761 c 0,0.533701 0,1.067402 0,1.601102 0,0.106741 -0.03375,0.218958 0,0.320221 0.09423,0.282706 0.791736,1.667931 0.960666,1.921323 0.18421,0.276318 0.71054,0.710541 0.96066,0.960661 0.25012,0.25012 0.68434,0.77645 0.96066,0.960662 0.19859,0.132395 0.42696,0.21348 0.64044,0.32022 0.42696,0.213481 0.83767,0.463156 1.28088,0.640441 0.3134,0.12536 0.64726,0.194861 0.96066,0.320221 0.22161,0.08864 0.40889,0.262332 0.64044,0.32022 0.20711,0.05178 0.43792,-0.06751 0.64044,0 0.14321,0.04774 0.18521,0.252712 0.32023,0.320221 0.0842,0.0421 1.11343,0 1.28088,0 0.31025,0 1.73038,0.06365 1.92132,0 0.58159,-0.193865 0.59428,-0.27406 0.96066,-0.640441 0.10674,-0.10674 0.23649,-0.19462 0.32022,-0.320221 0.46487,-0.697299 0.46487,-1.544244 0,-2.241543 -0.16747,-0.251202 -0.47297,-0.38924 -0.64044,-0.640441 -0.19501,-0.292518 -0.27333,-0.777108 -0.64044,-0.960662 -0.0842,-0.0421 -1.11343,0 -1.28088,0 -1.0674,0 -2.1348,0 -3.20221,0 -0.22272,0 -1.4853,0.0579 -1.6011,0 -0.13502,-0.06751 -0.1852,-0.252712 -0.32022,-0.32022 -0.0955,-0.04774 -0.21896,0.03375 -0.32022,0 -2.31949,-0.773164 0.50486,0.09232 -0.96066,-0.640441 -0.0955,-0.04774 -0.22475,0.04774 -0.32022,0 -0.27004,-0.135017 -0.38924,-0.472973 -0.64044,-0.640441 -0.91174,-0.607824 -0.91027,-0.06761 -1.921326,-1.280882 -0.216089,-0.259307 -0.640441,-0.853921 -0.32022,-0.960662 0.32022,-0.10674 0.21348,0.640441 0.32022,0.960662 z"
     id="path4198"
     inkscape:connector-curvature="0" />
  <path
     style="fill:#ccfa7d;fill-rule:evenodd;stroke:#000000;stroke-width:0.5;stroke-linecap:butt;stroke-linejoin:miter;stroke-opacity:1;fill-opacity:1;stroke-miterlimit:4;stroke-dasharray:none"
     d="M 99.283203 77.708984 C 99.037354 77.717683 98.785268 77.734375 98.626953 77.734375 L 96.707031 77.734375 C 96.496612 77.734375 95.926761 77.674155 95.746094 77.734375 C 95.519663 77.809851 95.331899 77.979208 95.105469 78.054688 C 94.885211 78.128107 94.333468 77.960217 94.144531 78.054688 C 94.009514 78.122197 93.959235 78.30749 93.824219 78.375 C 93.635282 78.46947 93.083539 78.30158 92.863281 78.375 C 92.046876 78.647135 91.436006 79.424014 90.623047 79.65625 C 90.749038 79.593255 90.880657 79.613345 91.015625 79.65625 L 92.222656 79.65625 C 92.318126 79.60851 92.436228 79.65625 92.542969 79.65625 L 92.222656 79.65625 C 92.087639 79.723758 92.053297 79.976562 91.902344 79.976562 C 91.603105 79.976562 91.302343 79.747395 91.015625 79.65625 L 90.623047 79.65625 C 90.196086 79.86973 90.22802 80.52817 89.982422 80.9375 C 89.904757 81.066941 89.768849 81.151072 89.662109 81.257812 C 89.555369 81.364553 89.476813 81.510615 89.341797 81.578125 C 89.150854 81.673595 88.892114 81.482655 88.701172 81.578125 C 88.431138 81.713142 88.311748 82.051282 88.060547 82.21875 C 87.861954 82.351145 87.633402 82.432322 87.419922 82.539062 C 87.313181 82.539062 87.195079 82.491322 87.099609 82.539062 C 86.964592 82.606572 86.904897 82.775645 86.779297 82.859375 C 86.18812 83.253492 85.450551 83.424242 84.859375 83.818359 C 84.733774 83.902093 84.664664 84.054942 84.539062 84.138672 C 84.141879 84.403461 83.654997 84.514507 83.257812 84.779297 C 83.101433 84.88355 82.080816 85.904167 81.976562 86.060547 C 81.711772 86.457731 81.549419 86.914836 81.335938 87.341797 C 81.229197 87.555277 81.14802 87.783829 81.015625 87.982422 C 80.931891 88.108022 80.731922 88.156288 80.695312 88.302734 C 80.617652 88.613394 80.695312 88.943451 80.695312 89.263672 C 80.695312 89.370412 80.661563 89.482722 80.695312 89.583984 C 81.070419 90.709306 81.970358 91.020335 82.9375 91.503906 L 83.578125 91.824219 C 83.791605 91.930959 83.987198 92.086641 84.21875 92.144531 C 84.425856 92.196311 84.645894 92.144531 84.859375 92.144531 L 86.779297 92.144531 L 89.662109 92.144531 C 90.08907 92.144531 90.52469 92.228261 90.943359 92.144531 C 91.274346 92.078334 91.569394 91.879709 91.902344 91.824219 C 92.218207 91.771579 92.549279 91.887019 92.863281 91.824219 C 93.097324 91.77741 93.269863 91.550716 93.503906 91.503906 C 93.817908 91.441106 94.150842 91.566706 94.464844 91.503906 C 94.698887 91.457097 94.873917 91.241484 95.105469 91.183594 C 96.570992 90.817213 94.772975 91.830309 96.707031 90.863281 C 96.842048 90.795773 96.920603 90.649709 97.027344 90.542969 L 97.347656 90.222656 C 97.561136 90.009176 97.820813 89.835186 97.988281 89.583984 C 98.120676 89.385392 98.201853 89.15684 98.308594 88.943359 L 98.947266 87.662109 C 99.160746 87.235149 99.323101 86.778044 99.587891 86.380859 C 99.671624 86.255258 99.824473 86.186148 99.908203 86.060547 C 100.0406 85.861954 100.09612 85.618514 100.22852 85.419922 C 100.31225 85.294321 100.46513 85.22521 100.54883 85.099609 C 100.68122 84.901017 100.73674 84.657577 100.86914 84.458984 C 100.95287 84.333383 101.10575 84.264273 101.18945 84.138672 C 101.32184 83.940079 101.40303 83.711527 101.50977 83.498047 L 102.15039 82.21875 C 102.36387 81.791789 102.64007 81.39036 102.79102 80.9375 C 102.85122 80.756832 102.79102 80.186982 102.79102 79.976562 C 102.79102 79.329811 102.78443 78.797692 102.15039 78.375 C 101.59845 78.007039 101.66607 78.054688 101.18945 78.054688 C 101.08271 78.054688 100.97269 78.080578 100.86914 78.054688 C 100.54167 77.972821 100.23567 77.816245 99.908203 77.734375 C 99.769032 77.69958 99.529052 77.700286 99.283203 77.708984 z M 92.740234 82.837891 C 93.213588 82.877117 93.7734 83.450074 94.144531 82.859375 C 95.592941 83.221477 95.251355 83.003308 96.066406 83.818359 C 96.173146 83.925099 96.319209 84.003655 96.386719 84.138672 C 96.434459 84.234143 96.386719 84.352244 96.386719 84.458984 L 96.386719 84.779297 C 96.386719 84.92351 96.435449 85.642784 96.386719 85.740234 C 96.31921 85.875251 96.173146 85.953807 96.066406 86.060547 C 95.959666 86.167287 95.871694 86.297129 95.746094 86.380859 C 95.547501 86.513254 95.304061 86.568777 95.105469 86.701172 C 94.979868 86.784906 94.920173 86.953974 94.785156 87.021484 C 94.689685 87.069224 94.560314 86.973754 94.464844 87.021484 C 94.329827 87.088993 94.279548 87.274287 94.144531 87.341797 C 93.953588 87.437267 93.694849 87.246327 93.503906 87.341797 C 93.368889 87.409305 93.31861 87.594599 93.183594 87.662109 C 93.088122 87.709849 92.958751 87.614369 92.863281 87.662109 C 92.728264 87.729618 92.677985 87.914912 92.542969 87.982422 C 92.447497 88.030162 92.329396 87.982422 92.222656 87.982422 L 91.902344 87.982422 L 89.982422 87.982422 C 89.547795 87.982422 88.307622 88.15626 88.060547 87.662109 C 87.993038 87.527092 88.274119 87.448537 88.380859 87.341797 C 88.594339 87.128316 88.854016 86.952373 89.021484 86.701172 C 89.153879 86.502579 89.209402 86.259139 89.341797 86.060547 C 89.509264 85.809345 89.847405 85.689955 89.982422 85.419922 C 90.030162 85.32445 89.948672 85.200872 89.982422 85.099609 C 90.177702 84.513768 90.531156 84.230562 90.943359 83.818359 C 91.432351 83.329368 91.126886 83.565463 91.902344 83.177734 C 92.115824 83.070994 92.316539 82.934855 92.542969 82.859375 C 92.606258 82.838279 92.672612 82.832287 92.740234 82.837891 z "
     id="path4200" />
  <path
     style="fill:#ccfa7d;fill-rule:evenodd;stroke:#000000;stroke-width:0.5;stroke-linecap:butt;stroke-linejoin:miter;stroke-opacity:1;fill-opacity:1;stroke-miterlimit:4;stroke-dasharray:none"
     d="m 62.763217,36.746711 c -0.10674,0.426961 -0.233909,0.849328 -0.32022,1.280882 -0.06652,0.332595 0,1.42297 0,1.601103 0,0.640441 0,1.280882 0,1.921323 0,2.028063 0,4.056126 0,6.084189 0,0.640441 0,1.280882 0,1.921323 0,0.10674 0,0.21348 0,0.320221 0,0.10674 0.04774,0.224749 0,0.32022 -0.06751,0.135017 -0.21348,0.21348 -0.320221,0.320221 -0.10674,0.10674 -0.185203,0.252712 -0.32022,0.32022 -0.09547,0.04774 -0.21348,0 -0.320221,0 -0.10674,0 -0.21348,0 -0.32022,0 -0.80401,0 -0.972134,-0.01147 -1.601103,-0.640441 -0.10674,-0.10674 -0.252712,-0.185204 -0.32022,-0.32022 -0.0421,-0.0842 0,-1.113433 0,-1.280882 0,-0.750974 -0.07548,0.150953 0.32022,-0.640441 0.09547,-0.190943 -0.09547,-0.449499 0,-0.640441 0.732762,-1.465524 -0.132722,1.358829 0.640441,-0.960662 0.06751,-0.202525 -0.06751,-0.437916 0,-0.640441 0.07548,-0.22643 0.244744,-0.414011 0.320221,-0.640441 0.06751,-0.202525 0,-0.426961 0,-0.640441 0,-0.533701 0,-1.067402 0,-1.601102 0,-0.16745 0.0421,-1.196683 0,-1.280882 -0.10415,-0.208301 -0.375422,-0.45273 -0.640441,-0.320221 -0.135017,0.06751 -0.185204,0.252712 -0.320221,0.320221 -0.190942,0.09547 -0.449498,-0.09547 -0.640441,0 -0.135016,0.06751 -0.185203,0.252712 -0.32022,0.32022 -0.09547,0.04774 -0.224749,-0.04774 -0.320221,0 -0.135016,0.06751 -0.185203,0.252712 -0.32022,0.320221 -0.339823,0.169911 -0.300618,-0.169912 -0.640441,0 -0.135017,0.06751 -0.252712,0.185203 -0.320221,0.32022 -0.0421,0.0842 0,1.113432 0,1.280882 0,2.881985 0,5.763969 0,8.645954 0,0.222726 -0.0579,1.4853 0,1.601102 0.06751,0.135017 0.185204,0.252712 0.320221,0.320221 0.115802,0.0579 1.378376,0 1.601102,0 1.387623,0 2.775245,0 4.162867,0 0.853921,0 1.707843,0 2.561764,0 0.607393,0 1.440899,0.160203 1.921323,-0.320221 0.07548,-0.07548 -0.04774,-0.224749 0,-0.32022 0.192132,-0.384265 0.768529,-0.576397 0.960661,-0.960662 0.04873,-0.09745 0,-0.816448 0,-0.960661 0,-0.747182 0,-1.494363 0,-2.241544 0,-1.494362 0,-2.988725 0,-4.483087 0,-0.310251 -0.06365,-1.730385 0,-1.921323 0.07548,-0.22643 0.262333,-0.408889 0.320221,-0.640441 0.05178,-0.207106 0,-0.426961 0,-0.640441 0,-0.10674 0.04774,-0.224749 0,-0.32022 -0.06751,-0.135017 -0.185204,-0.252712 -0.320221,-0.320221 -0.09745,-0.04873 -0.816447,0 -0.960661,0 -0.222726,0 -1.4853,-0.0579 -1.601103,0 -0.135016,0.06751 -0.252712,0.185204 -0.32022,0.320221 -0.04873,0.09745 0,0.816447 0,0.960661 0,0.533701 0,1.067402 0,1.601103 0,0.210419 -0.06022,0.779993 0,0.960661 0.07548,0.22643 0.244744,0.414011 0.32022,0.640441 0.06022,0.180668 0,0.750242 0,0.960662 0,0.853921 0,1.707842 0,2.561764 0,0.10674 0,0.21348 0,0.32022 0,0.10674 0.04774,0.224749 0,0.320221 -0.06751,0.135016 -0.185203,0.252712 -0.32022,0.32022 -0.01675,0.0084 -0.943909,0.0084 -0.960662,0 -0.08502,-0.04251 -0.91815,-0.875639 -0.960661,-0.960661 -0.0421,-0.0842 0,-1.113433 0,-1.280882 0,-0.106741 0,-0.213481 0,-0.320221 0,-0.10674 -0.04774,-0.224749 0,-0.32022 0.06751,-0.135017 0.252712,-0.185204 0.32022,-0.320221 0.128089,-0.256176 -0.128088,-0.704485 0,-0.960661 0.06751,-0.135017 0.252712,-0.185204 0.320221,-0.320221 0.09547,-0.190943 -0.06751,-0.437916 0,-0.640441 0.07548,-0.22643 0.244744,-0.414011 0.32022,-0.640441 0.07342,-0.220258 -0.09447,-0.771725 0,-0.960661 0.06751,-0.135017 0.252712,-0.185204 0.320221,-0.320221 0.09547,-0.190942 -0.06751,-0.437916 0,-0.640441 0.07548,-0.22643 0.244744,-0.414011 0.32022,-0.640441 0.09607,-0.288198 -0.09607,-0.672463 0,-0.960661 0.07548,-0.22643 0.244744,-0.414011 0.320221,-0.640441 0.06751,-0.202526 -0.06751,-0.437916 0,-0.640441 0.04442,-0.133254 0.464911,-0.67128 0.32022,-0.960662 -0.06751,-0.135017 -0.21348,-0.21348 -0.32022,-0.32022 -0.366381,-0.366381 -0.379068,-0.446577 -0.960662,-0.640441 -0.101262,-0.03375 -0.224749,0.04774 -0.32022,0 -0.135017,-0.06751 -0.185204,-0.252712 -0.320221,-0.320221 -0.09547,-0.04774 -0.21348,0 -0.32022,0 -0.320221,-0.21348 -0.640441,-0.42696 -0.960662,-0.640441 z"
     id="path4204"
     inkscape:connector-curvature="0" />
  <path
     style="fill:#ccfa7d;fill-rule:evenodd;stroke:#000000;stroke-width:0.5;stroke-linecap:butt;stroke-linejoin:miter;stroke-opacity:1;fill-opacity:1;stroke-miterlimit:4;stroke-dasharray:none"
     d="m 69.487848,35.145609 c 0.42696,0.10674 0.849327,0.233909 1.280882,0.32022 0.125407,0.02508 1.839827,0.02717 1.921323,0 0.22643,-0.07548 0.47167,-0.151449 0.640441,-0.32022 0.07548,-0.07548 0,-0.213481 0,-0.320221 0,-0.10674 0,-0.21348 0,-0.32022 0,-0.10674 -0.04774,-0.224749 0,-0.320221 0.06751,-0.135017 0.252712,-0.185203 0.32022,-0.32022 0.04774,-0.09547 0,-0.213481 0,-0.320221 0,-0.10674 0,-0.21348 0,-0.32022 0,-0.533701 0,-1.067402 0,-1.601103 0,-0.853921 0,-1.707842 0,-2.561764 0,-0.144213 -0.04873,-0.863207 0,-0.960661 0.06751,-0.135017 0.185204,-0.252712 0.320221,-0.320221 0.0842,-0.0421 1.113432,0 1.280882,0 0.10674,0 0.224749,0.04774 0.32022,0 0.135017,-0.06751 0.185204,-0.252712 0.320221,-0.32022 0.04373,-0.02187 1.877589,-0.02187 1.921323,0 0.135017,0.06751 0.252712,0.185203 0.32022,0.32022 0.0579,0.115803 0,1.378377 0,1.601103 0,0.210419 0.06022,0.779993 0,0.960661 -0.07548,0.22643 -0.244744,0.414011 -0.32022,0.640441 -0.03375,0.101263 0.04774,0.224749 0,0.320221 -0.06751,0.135017 -0.252712,0.185203 -0.320221,0.32022 -0.128088,0.256177 0.128088,0.704485 0,0.960662 -0.135017,0.270033 -0.505424,0.370407 -0.640441,0.640441 -0.04774,0.09547 0.04774,0.224749 0,0.32022 -0.06751,0.135017 -0.252712,0.185204 -0.32022,0.320221 -0.04774,0.09547 0.04774,0.224749 0,0.32022 -0.06751,0.135017 -0.320221,0.169267 -0.320221,0.320221 0,0.454728 0.732988,0.32022 0.960662,0.32022 0.533701,0 1.067401,0 1.601102,0 0.21042,0 0.779994,0.06022 0.960662,0 0.22643,-0.07548 0.414011,-0.244744 0.640441,-0.32022 0.220258,-0.07342 0.771725,0.09447 0.960661,0 0.135017,-0.06751 0.185204,-0.252712 0.320221,-0.320221 0.202017,-0.101008 1.399085,0.101009 1.601102,0 0.135017,-0.06751 0.185204,-0.252712 0.320221,-0.32022 0.08279,-0.0414 1.69435,0 1.921323,0 0.226973,0 1.838529,-0.0414 1.921323,0 0.135016,0.06751 0.252712,0.185203 0.32022,0.32022 0.01787,0.03574 0.01787,1.565361 0,1.601103 -0.244164,0.488329 -0.841501,0.32022 -1.280882,0.32022 -1.387622,0 -2.775244,0 -4.162866,0 -0.226973,0 -1.83853,-0.0414 -1.921323,0 -0.135017,0.06751 -0.185204,0.252712 -0.320221,0.320221 -0.256176,0.128088 -0.704485,-0.128089 -0.960661,0 -0.135017,0.06751 -0.185204,0.252712 -0.320221,0.32022 -0.256176,0.128088 -0.704485,-0.128088 -0.960661,0 -0.135017,0.06751 -0.185204,0.252712 -0.320221,0.320221 -0.09547,0.04773 -0.224749,-0.04774 -0.32022,0 -0.395697,0.197848 -0.320221,0.309167 -0.320221,0.640441 0,0.723453 -0.04774,-0.143207 0.320221,0.960661 0.03375,0.101263 -0.03375,0.218958 0,0.320221 0.07548,0.22643 0.244744,0.414011 0.32022,0.640441 0.06022,0.180668 0,0.750242 0,0.960661 0,0.750974 0.07548,-0.150953 -0.32022,0.640441 -0.471174,0.942348 0.741817,-0.421597 -0.320221,0.640441 -0.10674,0.10674 -0.21348,0.21348 -0.32022,0.320221 -0.10674,0.10674 -0.320221,0.169267 -0.320221,0.32022 0,0.454728 0.732988,0.320221 0.960662,0.320221 1.052563,0 -0.87912,0.04774 0.960661,-0.320221 1.821093,0 0.21082,0.143207 1.601103,-0.32022 0.288198,-0.09607 0.672463,0.09607 0.960661,0 0.22643,-0.07548 0.414011,-0.244744 0.640441,-0.320221 0.34027,-0.113423 0.940612,0.113424 1.280882,0 0.22643,-0.07548 0.414011,-0.244744 0.640441,-0.32022 0.202525,-0.06751 0.426961,0 0.640441,0 0.533701,0 1.067402,0 1.601103,0 0.226973,0 1.838529,-0.0414 1.921323,0 0.135016,0.06751 0.252712,0.185203 0.32022,0.32022 0.0421,0.0842 0,1.113432 0,1.280882 0,0.607394 0.160204,1.440899 -0.32022,1.921323 -0.07548,0.07548 -0.213481,0 -0.320221,0 -0.10674,0 -0.21348,0 -0.32022,0 -0.426961,0 -0.862213,-0.08373 -1.280882,0 -0.234044,0.04681 -0.406398,0.273412 -0.640441,0.320221 -0.262502,0.0525 -2.249428,0 -2.561764,0 -0.213481,0 -0.437916,-0.06751 -0.640441,0 -0.22643,0.07548 -0.414011,0.244743 -0.640441,0.32022 -0.180668,0.06022 -0.750242,0 -0.960662,0 -0.533701,0 -1.067401,0 -1.601102,0 -0.439382,0 -1.036718,-0.168108 -1.280882,0.320221 -0.01326,0.02652 -0.01373,0.919458 0,0.960661 0.07548,0.22643 0.244744,0.414011 0.32022,0.640441 0.03375,0.101263 -0.04773,0.224749 0,0.320221 0.06751,0.135016 0.252712,0.185203 0.320221,0.32022 0.04774,0.09547 0,0.21348 0,0.320221 0.10674,0.21348 0.187825,0.441848 0.32022,0.640441 0.08373,0.1256 0.252712,0.185203 0.320221,0.32022 0.09547,0.190943 -0.09547,0.449498 0,0.640441 0.08551,0.171025 0.792077,0.792077 0.960661,0.960662 0.320221,0.32022 0.640441,0.640441 0.960662,0.960661 0.10674,0.10674 0.194619,0.236487 0.32022,0.320221 0.591177,0.394117 1.330147,0.566543 1.921323,0.960661 0.125601,0.08373 0.19462,0.236487 0.320221,0.320221 0.397184,0.264789 0.883697,0.375651 1.280882,0.640441 0.1256,0.08373 0.185203,0.252712 0.32022,0.32022 0.09547,0.04774 0.224749,-0.04774 0.320221,0 0.135016,0.06751 0.185203,0.252712 0.32022,0.320221 0.09547,0.04774 0.218958,-0.03375 0.320221,0 0.22643,0.07548 0.414011,0.244743 0.640441,0.32022 0.101262,0.03375 0.218958,-0.03375 0.32022,0 0.22643,0.07548 0.414011,0.244744 0.640441,0.320221 0.101263,0.03375 0.320221,-0.106741 0.320221,0 0,0.150953 -0.213481,0.21348 -0.320221,0.32022 -0.10674,0.10674 -0.19462,0.236487 -0.32022,0.32022 -0.198593,0.132395 -0.426961,0.213481 -0.640441,0.320221 -0.213481,0.10674 -0.414011,0.244744 -0.640441,0.32022 -0.202526,0.06751 -0.437916,-0.06751 -0.640441,0 -2.319491,0.773164 0.504862,-0.09232 -0.960662,0.640441 -0.09547,0.04774 -0.218958,-0.03375 -0.32022,0 -0.22643,0.07548 -0.414011,0.244744 -0.640441,0.320221 -0.101263,0.03375 -0.218958,-0.03375 -0.320221,0 -1.103868,0.367956 -0.237208,0.32022 -0.960661,0.32022 -0.10674,0 -0.218958,0.03375 -0.320221,0 -0.424102,-0.141367 -1.021198,-0.571136 -1.280882,-0.960661 -0.26479,-0.397185 -0.375651,-0.883697 -0.640441,-1.280882 -0.488508,-0.732762 -0.253477,0.200231 -0.640441,-0.960661 -0.03375,-0.101263 0.04774,-0.22475 0,-0.320221 -0.06751,-0.135017 -0.252712,-0.185204 -0.32022,-0.32022 -0.04774,-0.09547 0.04774,-0.22475 0,-0.320221 -0.06751,-0.135017 -0.252712,-0.185204 -0.320221,-0.32022 -0.09547,-0.190943 0.06751,-0.437916 0,-0.640441 -0.07548,-0.226431 -0.244744,-0.414011 -0.32022,-0.640441 -0.03375,-0.101263 0.04774,-0.22475 0,-0.320221 -0.06751,-0.135017 -0.252712,-0.185204 -0.320221,-0.32022 -0.04773,-0.09547 0.03375,-0.218958 0,-0.320221 -0.150953,-0.45286 -0.489487,-0.828022 -0.640441,-1.280882 -0.03375,-0.101263 0.03375,-0.218958 0,-0.32022 -0.150953,-0.452861 -0.489487,-0.828022 -0.640441,-1.280882 -0.03375,-0.101263 0.04774,-0.22475 0,-0.320221 -0.06751,-0.135017 -0.21348,-0.21348 -0.32022,-0.32022 -0.10674,-0.106741 -0.169267,-0.320221 -0.320221,-0.320221 -0.10674,0 0.04774,0.224749 0,0.320221 -0.06751,0.135016 -0.252712,0.185203 -0.32022,0.32022 -0.128088,0.256176 0.128088,0.704485 0,0.960662 -0.06751,0.135016 -0.252712,0.185203 -0.320221,0.32022 -0.101008,0.202017 0.101009,1.399085 0,1.601103 -0.395697,0.791394 -0.32022,-0.110534 -0.32022,0.640441 0,0.853921 0,1.707842 0,2.561764 0,0.167449 0.0421,1.196682 0,1.280882 -0.06751,0.135016 -0.252712,0.185203 -0.320221,0.32022 -0.04774,0.09547 0.04774,0.224749 0,0.32022 -0.06751,0.135017 -0.252712,0.185204 -0.32022,0.320221 -0.04774,0.09547 0.04774,0.224749 0,0.32022 -0.06751,0.135017 -0.252712,0.185204 -0.320221,0.320221 -0.04773,0.09547 0.04774,0.224749 0,0.32022 -0.336842,0.673685 -0.303599,-0.03324 -0.640441,0.640441 -0.04774,0.09547 0.04774,0.22475 0,0.320221 -0.06624,0.132491 -0.824932,0.870175 -0.960661,0.960661 -0.198593,0.132395 -0.441849,0.187826 -0.640441,0.320221 -0.251202,0.167468 -0.38924,0.472973 -0.640441,0.640441 -1.617692,1.078461 -0.0074,0.0025 -0.960662,0.32022 -2.31949,0.773164 0.504862,-0.09232 -0.960661,0.640441 -0.190943,0.09547 -0.449499,-0.09547 -0.640441,0 -1.062038,1.062038 0.301907,-0.150953 -0.640441,0.320221 -0.135017,0.06751 -0.169267,0.32022 -0.320221,0.32022 -0.238678,0 -0.47167,-0.151449 -0.640441,-0.32022 -0.07548,-0.07548 0,-0.21348 0,-0.320221 0,-0.10674 0,-0.21348 0,-0.32022 0,-0.533701 0,-1.067402 0,-1.601103 0,-0.210419 -0.06022,-0.779993 0,-0.960661 0.141368,-0.424102 0.571137,-1.021199 0.960662,-1.280882 0.681657,-0.454438 0.599225,-0.186003 1.280882,-0.640441 0.251201,-0.167468 0.389239,-0.472973 0.640441,-0.640441 0.791209,-0.527473 0.489673,-0.112968 1.280882,-0.640441 0.125601,-0.08373 0.21348,-0.21348 0.32022,-0.32022 0.10674,-0.106741 0.252712,-0.185204 0.320221,-0.320221 0.04774,-0.09547 -0.03375,-0.218958 0,-0.32022 0.07548,-0.226431 0.244744,-0.414011 0.32022,-0.640441 0.03375,-0.101263 -0.04774,-0.22475 0,-0.320221 0.06751,-0.135017 0.252712,-0.185204 0.320221,-0.32022 0.09547,-0.190943 -0.06751,-0.437916 0,-0.640441 0.07548,-0.226431 0.244744,-0.414011 0.32022,-0.640441 0.03375,-0.101263 -0.04774,-0.22475 0,-0.320221 0.06751,-0.135017 0.252712,-0.185204 0.320221,-0.32022 0.04773,-0.09547 -0.03375,-0.218958 0,-0.320221 0.07548,-0.22643 0.244744,-0.414011 0.32022,-0.640441 0.06751,-0.202525 0,-0.426961 0,-0.640441 0,-0.10674 0,-0.21348 0,-0.32022 0,-0.106741 -0.04774,-0.22475 0,-0.320221 0.06751,-0.135017 0.252712,-0.185204 0.320221,-0.32022 0.09447,-0.188937 -0.07342,-0.740404 0,-0.960662 0.367956,-1.103868 0.32022,-0.237208 0.32022,-0.960661 0,-0.106741 0.04774,-0.22475 0,-0.320221 -0.222239,-0.444479 -0.569774,-0.32022 -0.960661,-0.32022 -0.640441,0 -1.280882,0 -1.921323,0 -0.144214,0 -0.863208,0.04873 -0.960662,0 -0.445266,-0.222634 -0.640441,-0.828789 -0.640441,-1.280882 0,-0.144214 -0.04873,-0.863208 0,-0.960662 0.06751,-0.135017 0.236487,-0.19462 0.320221,-0.32022 0.705498,-0.161261 0.169267,-0.658755 0.32022,-0.960662 0.06751,-0.135017 0.213481,-0.21348 0.320221,-0.32022 0.10674,-0.106741 0.185203,-0.252712 0.32022,-0.320221 0.02652,-0.01326 0.919459,-0.01373 0.960662,0 0.22643,0.07548 0.414011,0.244744 0.640441,0.320221 0.202525,0.06751 0.449498,-0.09547 0.640441,0 0.135017,0.06751 0.185203,0.252712 0.32022,0.32022 0.01675,0.0084 0.943909,0.0084 0.960662,0 0.708025,-0.354012 0.09937,-0.198742 0.32022,-0.640441 0.06751,-0.135017 0.252712,-0.185204 0.320221,-0.32022 0.04773,-0.09547 0,-0.213481 0,-0.320221 0,-0.10674 0,-0.21348 0,-0.32022 0,-0.533701 0,-1.067402 0,-1.601103 0,-0.16745 0.0421,-1.196683 0,-1.280882 -0.06751,-0.135017 -0.185204,-0.252712 -0.320221,-0.32022 -0.375487,-0.187744 -0.380065,0.190032 -0.640441,0.32022 -0.190942,0.09547 -0.437915,-0.06751 -0.640441,0 -0.22643,0.07548 -0.414011,0.244744 -0.640441,0.320221 -0.200987,0.06699 -1.023093,0 -1.280882,0 -0.288635,0 -1.399556,0.06718 -1.601102,0 -0.22643,-0.07548 -0.414011,-0.244744 -0.640441,-0.320221 -0.202525,-0.06751 -0.449499,0.09547 -0.640441,0 -0.135017,-0.06751 -0.21348,-0.21348 -0.320221,-0.32022 -0.10674,-0.10674 -0.21348,-0.213481 -0.32022,-0.320221 -0.10674,-0.10674 -0.21348,-0.21348 -0.320221,-0.32022 -0.10674,-0.10674 -0.252712,-0.185204 -0.32022,-0.320221 -0.01365,-0.0273 -0.01365,-1.253584 0,-1.280882 0.06751,-0.135017 0.21348,-0.21348 0.32022,-0.32022 0.106741,-0.10674 0.213481,-0.213481 0.320221,-0.320221 0.205314,-0.205314 0.303888,-0.454841 0.640441,-0.32022 0.443214,0.177285 0.803525,0.640441 1.280882,0.640441 0.384857,0 0.587295,-0.5471 0.960661,-0.640441 0.146447,-0.03661 0.236487,0.194619 0.320221,0.32022 0.132395,0.198593 0.262332,0.408889 0.32022,0.640441 0.05178,0.207107 0,0.426961 0,0.640441"
     id="path4206"
     inkscape:connector-curvature="0" />
  <path
     style="fill:#ccfa7d;fill-rule:evenodd;stroke:#000000;stroke-width:0.5;stroke-linecap:butt;stroke-linejoin:miter;stroke-opacity:1;fill-opacity:1;stroke-miterlimit:4;stroke-dasharray:none"
     d="m 72.369832,39.308475 c 0.999422,1.085096 0.960662,0.951057 0.960662,1.921323 0,0.10674 0.04774,0.224749 0,0.320221 -0.06751,0.135016 -0.213481,0.21348 -0.320221,0.32022 -0.173583,0.173584 -0.326325,0.477279 -0.640441,0.320221 -0.135017,-0.06751 -0.185203,-0.252712 -0.32022,-0.320221 -0.09547,-0.04774 -0.213481,0 -0.320221,0 -0.10674,-0.10674 -0.194619,-0.236486 -0.32022,-0.32022 -0.198593,-0.132395 -0.441849,-0.187826 -0.640441,-0.320221 -0.133168,-0.08878 -1.223618,-1.166353 -1.280882,-1.280882 -0.0084,-0.01675 -0.0084,-0.943909 0,-0.960661 0.06751,-0.135017 0.21348,-0.213481 0.32022,-0.320221 0.10674,-0.10674 0.185204,-0.252712 0.320221,-0.32022 0.0842,-0.0421 1.113432,0 1.280882,0 0.10674,0 0.21348,0 0.32022,0 0.10674,0 0.261012,-0.08881 0.320221,0 0.187234,0.280852 0.21348,0.640441 0.32022,0.960661 z"
     id="path4208"
     inkscape:connector-curvature="0" />
  <path
     style="fill:#ccfa7d;fill-rule:evenodd;stroke:#000000;stroke-width:0.5;stroke-linecap:butt;stroke-linejoin:miter;stroke-opacity:1;fill-opacity:1;stroke-miterlimit:4;stroke-dasharray:none"
     d="m 82.937109,38.027593 c 0.42696,-0.10674 0.872258,-0.156771 1.280882,-0.32022 0.140156,-0.05606 0.185203,-0.252712 0.32022,-0.320221 0.01675,-0.0084 0.943909,-0.0084 0.960662,0 0.135016,0.06751 0.194619,0.236487 0.32022,0.320221 0.292518,0.195011 0.777108,0.273334 0.960662,0.640441 0.04774,0.09547 0,0.21348 0,0.32022 0,0.10674 0,0.21348 0,0.320221 0,0.61401 0.144674,0.495766 -0.320221,0.960661 -0.10674,0.10674 -0.185204,0.252712 -0.32022,0.320221 -0.09547,0.04773 -0.218958,-0.03375 -0.320221,0 -0.22643,0.07548 -0.414011,0.244743 -0.640441,0.32022 -0.202525,0.06751 -0.449498,-0.09547 -0.640441,0 -0.135017,0.06751 -0.185204,0.252712 -0.32022,0.320221 -0.188937,0.09447 -0.740404,-0.07342 -0.960662,0 -0.22643,0.07548 -0.414011,0.244743 -0.640441,0.32022 -0.180668,0.06022 -0.750242,0 -0.960661,0 -0.640441,0 -1.280882,0 -1.921323,0 -0.226973,0 -1.83853,0.0414 -1.921323,0 -0.395697,-0.197848 -0.320221,-0.309167 -0.320221,-0.640441 0,-0.10674 -0.04773,-0.224749 0,-0.32022 0.04251,-0.08502 0.87564,-0.918151 0.960662,-0.960662 0.09547,-0.04774 0.224749,0.04774 0.32022,0 0.135017,-0.06751 0.185204,-0.252712 0.320221,-0.32022 0.190942,-0.09547 0.437915,0.06751 0.640441,0 0.22643,-0.07548 0.414011,-0.244744 0.640441,-0.320221 0.101262,-0.03375 0.218958,0.03375 0.32022,0 0.22643,-0.07548 0.414011,-0.244744 0.640441,-0.32022 0.101263,-0.03375 0.215553,0.02093 0.320221,0 0.431554,-0.08631 0.853921,-0.213481 1.280882,-0.320221 z"
     id="path4210"
     inkscape:connector-curvature="0" />
</svg>
