<?xml version="1.0" encoding="UTF-8" standalone="no"?>
<!-- Created with Inkscape (http://www.inkscape.org/) -->

<svg
   xmlns:dc="http://purl.org/dc/elements/1.1/"
   xmlns:cc="http://creativecommons.org/ns#"
   xmlns:rdf="http://www.w3.org/1999/02/22-rdf-syntax-ns#"
   xmlns:svg="http://www.w3.org/2000/svg"
   xmlns="http://www.w3.org/2000/svg"
   xmlns:xlink="http://www.w3.org/1999/xlink"
   xmlns:sodipodi="http://sodipodi.sourceforge.net/DTD/sodipodi-0.dtd"
   xmlns:inkscape="http://www.inkscape.org/namespaces/inkscape"
   id="svg2"
   version="1.1"
   inkscape:version="0.91 r13725"
   width="93.75"
   height="75.9375"
   viewBox="0 0 93.75 75.9375"
   sodipodi:docname="shoptitle.svg">
  <metadata
     id="metadata8">
    <rdf:RDF>
      <cc:Work
         rdf:about="">
        <dc:format>image/svg+xml</dc:format>
        <dc:type
           rdf:resource="http://purl.org/dc/dcmitype/StillImage" />
        <dc:title></dc:title>
      </cc:Work>
    </rdf:RDF>
  </metadata>
  <defs
     id="defs6">
    <linearGradient
       inkscape:collect="always"
       id="linearGradient4172">
      <stop
         style="stop-color:#640000;stop-opacity:1;"
         offset="0"
         id="stop4174" />
      <stop
         style="stop-color:#640000;stop-opacity:0;"
         offset="1"
         id="stop4176" />
    </linearGradient>
    <linearGradient
       inkscape:collect="always"
       id="linearGradient4164">
      <stop
         style="stop-color:#1faee9;stop-opacity:1;"
         offset="0"
         id="stop4166" />
      <stop
         style="stop-color:#1faee9;stop-opacity:0;"
         offset="1"
         id="stop4168" />
    </linearGradient>
    <linearGradient
       inkscape:collect="always"
       id="linearGradient4156">
      <stop
         style="stop-color:#1dbbfd;stop-opacity:1;"
         offset="0"
         id="stop4158" />
      <stop
         style="stop-color:#1dbbfd;stop-opacity:0;"
         offset="1"
         id="stop4160" />
    </linearGradient>
    <linearGradient
       inkscape:collect="always"
       id="linearGradient4148">
      <stop
         style="stop-color:#00ffff;stop-opacity:1;"
         offset="0"
         id="stop4150" />
      <stop
         style="stop-color:#00ffff;stop-opacity:0;"
         offset="1"
         id="stop4152" />
    </linearGradient>
    <linearGradient
       inkscape:collect="always"
       xlink:href="#linearGradient4148"
       id="linearGradient4154"
       x1="50"
       y1="-9.0625"
       x2="45"
       y2="95.9375"
       gradientUnits="userSpaceOnUse" />
    <linearGradient
       inkscape:collect="always"
       xlink:href="#linearGradient4156"
       id="linearGradient4162"
       x1="15"
       y1="-9.0625"
       x2="45"
       y2="100.9375"
       gradientUnits="userSpaceOnUse" />
    <linearGradient
       inkscape:collect="always"
       xlink:href="#linearGradient4164"
       id="linearGradient4170"
       x1="100"
       y1="-9.0625"
       x2="45"
       y2="85.9375"
       gradientUnits="userSpaceOnUse" />
    <radialGradient
       inkscape:collect="always"
       xlink:href="#linearGradient4172"
       id="radialGradient4186"
       cx="72.611992"
       cy="38.16135"
       fx="72.611992"
       fy="38.16135"
       r="23.095106"
       gradientTransform="matrix(1,0,0,1.649387,0,-24.781486)"
       gradientUnits="userSpaceOnUse" />
    <radialGradient
       inkscape:collect="always"
       xlink:href="#linearGradient4172"
       id="radialGradient4188"
       cx="24.87306"
       cy="38.186478"
       fx="24.87306"
       fy="38.186478"
       r="25.60128"
       gradientTransform="matrix(1,0,0,1.4877131,0,-18.624044)"
       gradientUnits="userSpaceOnUse" />
    <radialGradient
       inkscape:collect="always"
       xlink:href="#linearGradient4172"
       id="radialGradient4190"
       cx="47.478546"
       cy="39.057934"
       fx="47.478546"
       fy="39.057934"
       r="23.172258"
       gradientTransform="matrix(1,0,0,1.6666667,0,-26.038622)"
       gradientUnits="userSpaceOnUse" />
    <radialGradient
       inkscape:collect="always"
       xlink:href="#linearGradient4172"
       id="radialGradient4192"
       cx="47.5"
       cy="38.507828"
       fx="47.5"
       fy="38.507828"
       r="48.102001"
       gradientTransform="matrix(1,0,0,0.79144994,0,8.0308095)"
       gradientUnits="userSpaceOnUse" />
  </defs>
  <sodipodi:namedview
     pagecolor="#ffffff"
     bordercolor="#666666"
     borderopacity="1"
     objecttolerance="10"
     gridtolerance="10"
     guidetolerance="10"
     inkscape:pageopacity="0"
     inkscape:pageshadow="2"
     inkscape:window-width="1266"
     inkscape:window-height="758"
     id="namedview4"
     showgrid="true"
     inkscape:snap-bbox="true"
     inkscape:bbox-paths="true"
     inkscape:bbox-nodes="true"
     inkscape:snap-bbox-edge-midpoints="true"
     inkscape:snap-bbox-midpoints="true"
     inkscape:object-paths="true"
     inkscape:snap-intersection-paths="true"
     inkscape:object-nodes="true"
     inkscape:snap-smooth-nodes="true"
     inkscape:snap-midpoints="true"
     inkscape:snap-object-midpoints="true"
     inkscape:snap-center="true"
     inkscape:snap-text-baseline="true"
     inkscape:snap-page="true"
     inkscape:snap-grids="true"
     inkscape:zoom="2.1975598"
     inkscape:cx="47.957516"
     inkscape:cy="65.728464"
     inkscape:window-x="7"
     inkscape:window-y="27"
     inkscape:window-maximized="0"
     inkscape:current-layer="svg2">
    <inkscape:grid
       type="xygrid"
       id="grid4138"
       empspacing="1" />
  </sodipodi:namedview>
  <path
     style="fill:url(#linearGradient4154);fill-rule:evenodd;stroke:url(#radialGradient4192);stroke-width:1.8;stroke-linecap:butt;stroke-linejoin:miter;stroke-opacity:1;fill-opacity:1;stroke-miterlimit:4;stroke-dasharray:none"
     d="m 0,20.9375 25,-20 45,0 25,20 -10,25 -35,30 -40,-30 z"
     id="path4140"
     inkscape:connector-curvature="0"
     sodipodi:nodetypes="cccccccc" />
  <path
     style="fill:none;fill-rule:evenodd;stroke:url(#radialGradient4190);stroke-width:1.8;stroke-linecap:butt;stroke-linejoin:miter;stroke-opacity:1;stroke-miterlimit:4;stroke-dasharray:none"
     d="m 25,0.9375 25,75 20,-75 z"
     id="path4142"
     inkscape:connector-curvature="0"
     sodipodi:nodetypes="cccc" />
  <path
     style="fill:url(#linearGradient4162);fill-rule:evenodd;stroke:url(#radialGradient4188);stroke-width:1.8;stroke-linecap:butt;stroke-linejoin:miter;stroke-opacity:1;fill-opacity:1;stroke-miterlimit:4;stroke-dasharray:none"
     d="m 0,20.9375 50,55 -25,-75 z"
     id="path4144"
     inkscape:connector-curvature="0"
     sodipodi:nodetypes="cccc" />
  <path
     style="fill:url(#linearGradient4170);fill-rule:evenodd;stroke:url(#radialGradient4186);stroke-width:1.8;stroke-linecap:butt;stroke-linejoin:miter;stroke-opacity:1;fill-opacity:1;stroke-miterlimit:4;stroke-dasharray:none"
     d="m 70,0.9375 -20,75 45,-55 z"
     id="path4146"
     inkscape:connector-curvature="0"
     sodipodi:nodetypes="cccc" />
  <path
     style="fill:#b6d3dd;fill-opacity:1;fill-rule:evenodd;stroke:#fbfbfc;stroke-width:1px;stroke-linecap:butt;stroke-linejoin:miter;stroke-opacity:1"
     d="m 23,11.9375 c -0.341839,-0.0161 -0.683765,-0.06616 -1.025518,-0.04831 -0.08468,0.0044 -0.151683,0.07584 -0.227525,0.113763 -0.07584,0.03792 -0.156973,0.06673 -0.227525,0.113762 -0.04462,0.02975 -0.06914,0.08402 -0.113763,0.113763 -0.290685,0.19379 -0.209022,0.01325 -0.45505,0.341287 -0.05088,0.06784 -0.07584,0.151684 -0.113762,0.227526 -0.03792,0.07584 -0.07584,0.151683 -0.113763,0.227525 -0.07584,0.151683 -0.151683,0.303366 -0.227525,0.45505 -0.03792,0.07584 -0.0932,0.145263 -0.113763,0.227525 -0.01839,0.07358 0,0.151683 0,0.227525 0,0.07584 0,0.151683 0,0.227525 0,0.189604 -0.03718,0.382891 0,0.568813 0.01663,0.08315 0.07584,0.151683 0.113763,0.227525 0.03792,0.07584 0.07584,0.151683 0.113763,0.227525 0.0381,0.07619 0.189429,0.37886 0.227525,0.45505 0.03792,0.07584 0.06289,0.15969 0.113762,0.227525 0.09653,0.128708 0.252045,0.207424 0.341288,0.341288 0.04704,0.07055 0.0538,0.167567 0.113762,0.227525 0.05996,0.05996 0.156973,0.06673 0.227525,0.113763 0.260324,0.173548 -0.07113,0.09005 0.341288,0.227525 0.07195,0.02398 0.151684,0 0.227525,0 0.113763,0 0.227525,0 0.341288,0 0.03792,0 0.07697,0.0092 0.113762,0 0.148003,-0.037 0.427586,-0.133374 0.568813,-0.227525 0.04462,-0.02975 0.06914,-0.08402 0.113763,-0.113763 0.141105,-0.09407 0.30963,-0.140273 0.45505,-0.227525 0.117241,-0.07034 0.224046,-0.15718 0.341287,-0.227525 0.07271,-0.04363 0.151684,-0.07584 0.227526,-0.113763 0.113762,-0.07584 0.224046,-0.15718 0.341287,-0.227525 0.14542,-0.08725 0.319381,-0.125773 0.45505,-0.227525 0.128708,-0.09653 0.227525,-0.227525 0.341288,-0.341288 0.03792,-0.03792 0.07584,-0.07584 0.113763,-0.113762 0.03792,-0.03792 0.08978,-0.0658 0.113762,-0.113763 0.01731,-0.03462 0,-0.290053 0,-0.341287 0,-0.113763 0,-0.227525 0,-0.341288 0,-0.07584 0.01839,-0.153948 0,-0.227525 -0.02057,-0.08226 -0.07584,-0.151683 -0.113762,-0.227525 -0.07584,-0.151684 -0.164542,-0.297593 -0.227526,-0.45505 -0.04453,-0.11134 -0.06923,-0.229948 -0.113762,-0.341288 -0.06298,-0.157458 -0.151683,-0.303367 -0.227525,-0.45505 -0.07584,-0.151684 -0.133455,-0.313945 -0.227525,-0.45505 -0.02975,-0.04462 -0.08402,-0.06914 -0.113763,-0.113763 -0.04703,-0.07055 -0.06673,-0.156972 -0.113762,-0.227525 -0.03116,-0.04674 -0.294551,-0.31013 -0.341288,-0.341288 -0.07055,-0.04703 -0.156973,-0.06673 -0.227525,-0.113762 -0.04462,-0.02975 -0.06914,-0.08401 -0.113763,-0.113763 -0.07055,-0.04703 -0.151683,-0.07584 -0.227525,-0.113762 -0.07584,-0.03792 -0.147083,-0.08695 -0.227525,-0.113763 -0.03598,-0.01199 -0.07584,0 -0.113762,0 -0.113763,0 -0.227525,0 -0.341288,0 -0.09158,0 -0.383647,-0.0238 -0.45505,0 -0.206619,0.06887 -0.211126,0.09736 -0.341288,0.227525 -0.03792,0.03792 -0.06914,0.08402 -0.113762,0.113763 -0.07055,0.04704 -0.156973,0.06673 -0.227525,0.113762 -0.04462,0.02975 -0.07584,0.07584 -0.113763,0.113763 -0.03792,0.03792 -0.08978,0.0658 -0.113763,0.113763 -0.03635,0.0727 0.03052,0.363482 0,0.45505 -0.02681,0.08044 -0.08695,0.147083 -0.113762,0.227525 -0.01884,0.05651 -0.0096,0.331691 0,0.341287 C 21.661934,12.713947 21.839811,12.815587 22,12.9375"
     id="path4194"
     inkscape:connector-curvature="0" />
  <path
     style="fill:#b6d3dd;fill-opacity:1;fill-rule:evenodd;stroke:#fbfbfc;stroke-width:1px;stroke-linecap:butt;stroke-linejoin:miter;stroke-opacity:1"
     d="m 21,16.9375 c -0.130223,0.02367 -0.258628,0.08013 -0.390668,0.071 -0.08459,-0.0059 -0.145264,-0.0932 -0.227526,-0.113763 -0.07358,-0.01839 -0.151683,0 -0.227525,0 -0.07584,0 -0.151683,0 -0.227525,0 -0.227525,0 -0.45505,0 -0.682575,0 -0.07584,0 -0.155575,-0.02398 -0.227525,0 -0.25894,0.25894 0.02356,0.03007 -0.227525,0.113763 -0.412422,0.137474 -0.08096,0.05398 -0.341288,0.227525 -0.298208,0.198805 -0.198805,0.04252 -0.568813,0.227525 -0.05268,0.02634 -0.388141,0.388141 -0.45505,0.45505 -0.05989,0.05989 -0.310908,0.280529 -0.341287,0.341288 -0.0047,0.0094 -0.0049,0.32665 0,0.341287 0.02681,0.08044 0.07584,0.151684 0.113762,0.227525 0.03792,0.07584 0.06673,0.156973 0.113763,0.227526 0.03677,0.05516 0.513656,0.532041 0.568812,0.568812 0.141106,0.09407 0.303367,0.151684 0.455051,0.227525 0.07584,0.03792 0.145263,0.0932 0.227525,0.113763 0.07358,0.01839 0.153948,-0.01839 0.227525,0 0.08226,0.02056 0.145263,0.0932 0.227525,0.113762 0.07358,0.0184 0.151683,0 0.227525,0 0.07584,0 0.151683,0 0.227525,0 0.227525,0 0.45505,0 0.682575,0 0.379209,0 0.758417,0 1.137626,0 0.113762,0 0.229734,0.02231 0.341287,0 0.08315,-0.01663 0.144379,-0.09713 0.227526,-0.113762 0.111553,-0.02231 0.229073,0.0187 0.341287,0 0.118285,-0.01971 0.223003,-0.09405 0.341288,-0.113763 0.112215,-0.0187 0.229734,0.02231 0.341287,0 0.08315,-0.01663 0.144379,-0.09713 0.227526,-0.113762 0.111553,-0.02231 0.229734,0.02231 0.341287,0 0.08315,-0.01663 0.145263,-0.0932 0.227525,-0.113763 0.07358,-0.01839 0.153948,0.0184 0.227525,0 0.08226,-0.02056 0.144379,-0.09713 0.227525,-0.113762 0.111554,-0.02231 0.229735,0.02231 0.341288,0 0.08315,-0.01663 0.145263,-0.0932 0.227525,-0.113763 0.147155,-0.03679 0.307896,0.03679 0.45505,0 0.08226,-0.02056 0.145264,-0.0932 0.227525,-0.113762 0.178452,-0.04461 0.390362,0.04461 0.568813,0 0.05203,-0.01301 0.06289,-0.0968 0.113763,-0.113763 0.07195,-0.02398 0.153948,0.01839 0.227525,0 0.08226,-0.02056 0.145263,-0.0932 0.227525,-0.113762 0.07358,-0.0184 0.153948,0.01839 0.227525,0 0.08226,-0.02057 0.145263,-0.0932 0.227525,-0.113763 0.147155,-0.03679 0.307896,0.03679 0.45505,0 0.246667,-0.06167 0.322146,-0.279621 0.568813,-0.341288 0.754606,0 -0.160885,0.05363 0.341288,-0.113762 0.07195,-0.02398 0.155575,0.02398 0.227525,0 0.06157,-0.02052 0.266548,-0.291462 0.341287,-0.341288 0.07055,-0.04704 0.156973,-0.06673 0.227525,-0.113762 0.04822,-0.03215 0.317753,-0.294219 0.341288,-0.341288 0.01696,-0.03392 0,-0.07584 0,-0.113763 0,-0.03792 0,-0.07584 0,-0.113762 0,-0.113763 0,-0.227525 0,-0.341288 0,-0.07584 0.01839,-0.153948 0,-0.227525 -0.02057,-0.08226 -0.07584,-0.151683 -0.113762,-0.227525 -0.03792,-0.07584 -0.06673,-0.156972 -0.113763,-0.227525 -0.03116,-0.04674 -0.294551,-0.31013 -0.341288,-0.341288 -0.07055,-0.04703 -0.156972,-0.06673 -0.227525,-0.113762 -0.04462,-0.02975 -0.06173,-0.100756 -0.113762,-0.113763 -0.110366,-0.02759 -0.227525,0 -0.341288,0 -0.303367,0 -0.606733,0 -0.9101,0 -0.265446,0 -0.530892,0 -0.796338,0 -0.07584,0 -0.151683,0 -0.227525,0 -0.07584,0 -0.153948,-0.01839 -0.227525,0 -0.08226,0.02057 -0.144378,0.09713 -0.227525,0.113763 -0.867854,0 0.08974,-0.05088 -0.568813,0.113762 -0.147155,0.03679 -0.307896,-0.03679 -0.45505,0 -0.08226,0.02057 -0.144378,0.09713 -0.227525,0.113763 -0.111554,0.02231 -0.230922,-0.02759 -0.341288,0 -0.05203,0.01301 -0.0658,0.08978 -0.113763,0.113762 -0.03392,0.01696 -0.07697,-0.0092 -0.113762,0 -0.116336,0.02908 -0.234031,0.06014 -0.341288,0.113763 -0.04797,0.02398 -0.0658,0.08978 -0.113762,0.113763 -0.03392,0.01696 -0.07779,-0.01199 -0.113763,0 -0.08044,0.02681 -0.147083,0.08695 -0.227525,0.113762 -0.03598,0.01199 -0.07779,-0.01199 -0.113762,0 -0.08044,0.02681 -0.147083,0.08695 -0.227526,0.113763 -0.100956,0.03365 -0.494319,-0.03725 -0.568812,0 -0.04797,0.02398 -0.0658,0.08978 -0.113763,0.113762 -0.07177,0.03589 -0.497043,-0.03589 -0.568813,0 -0.04797,0.02398 -0.0658,0.08978 -0.113762,0.113763 -0.03392,0.01696 -0.07619,0.0051 -0.113763,0 C 21.269656,16.98991 20.976333,17.07272 21,16.9375 c 0.02367,-0.135223 0.270446,0.04733 0,0 z"
     id="path4196"
     inkscape:connector-curvature="0" />
  <path
     style="fill:#b6d3dd;fill-opacity:1;fill-rule:evenodd;stroke:#fbfbfc;stroke-width:1px;stroke-linecap:butt;stroke-linejoin:miter;stroke-opacity:1"
     d="m 21,19.9375 c 0.186021,0.575804 -0.612734,0.803329 -0.731956,1.280216 -0.01839,0.07358 0,0.151683 0,0.227525 0,0.07584 0,0.151683 0,0.227525 0,0.151683 0,0.303367 0,0.45505 0,0.07584 -0.01839,0.153948 0,0.227525 0.02908,0.116336 0.06013,0.234032 0.113762,0.341288 0.05042,0.100832 0.272248,0.237728 0.341288,0.341288 0.04704,0.07055 0.05381,0.167567 0.113763,0.227525 0.05996,0.05996 0.156972,0.06673 0.227525,0.113762 0.04462,0.02975 0.06914,0.08401 0.113762,0.113763 0.07055,0.04704 0.156973,0.06673 0.227525,0.113762 0.04462,0.02975 0.0658,0.08978 0.113763,0.113763 0.0094,0.0047 0.32665,0.0049 0.341288,0 0.195021,-0.06501 0.297949,-0.124597 0.341287,-0.341288 0.02231,-0.111553 -0.02759,-0.230922 0,-0.341287 0.01301,-0.05203 0.100756,-0.06174 0.113763,-0.113763 0.02759,-0.110366 0,-0.227525 0,-0.341288 0,-0.113762 0,-0.227525 0,-0.341287 0,-0.09158 0.0238,-0.383647 0,-0.45505 -0.05363,-0.160885 -0.151684,-0.303367 -0.227525,-0.455051 -0.07584,-0.151683 -0.133455,-0.313945 -0.227525,-0.45505 -0.06544,-0.09817 -0.25243,-0.252429 -0.341288,-0.341287 C 21.323954,20.339662 21.177757,20.162883 21,19.9375 Z"
     id="path4198"
     inkscape:connector-curvature="0" />
  <path
     style="fill:#b6d3dd;fill-opacity:1;fill-rule:evenodd;stroke:#fbfbfc;stroke-width:1px;stroke-linecap:butt;stroke-linejoin:miter;stroke-opacity:1"
     d="m 24,19.9375 c -0.09523,0.97667 -0.09155,0.624468 -0.09155,1.052691 0,0.03792 0.01199,0.07779 0,0.113762 -0.02681,0.08044 -0.0932,0.145264 -0.113762,0.227525 -0.01839,0.07358 0,0.151684 0,0.227525 0,0.113763 -0.02231,0.229735 0,0.341288 0.01663,0.08315 0.0932,0.145263 0.113762,0.227525 0.01839,0.07358 -0.01839,0.153948 0,0.227525 0.02057,0.08226 0.07584,0.151684 0.113763,0.227525 0.03792,0.07584 0.07584,0.151684 0.113762,0.227525 0.137916,0.275831 0.260114,0.552667 0.455051,0.796338 0.428664,0.535831 0.03487,-0.131489 0.45505,0.568813 0.04363,0.07271 0.06673,0.156973 0.113762,0.227525 0.03215,0.04822 0.294219,0.317753 0.341288,0.341288 0.03392,0.01696 0.07779,0.01199 0.113763,0 0.412422,-0.137474 0.08096,-0.05398 0.341287,-0.227525 0.07055,-0.04703 0.167567,-0.05381 0.227525,-0.113763 0.05226,-0.05226 0.293016,-0.586031 0.341288,-0.682575 0.07584,-0.151684 0.133455,-0.313945 0.227525,-0.45505 0.02975,-0.04462 0.0968,-0.06289 0.113763,-0.113763 0.02398,-0.07195 0,-0.151683 0,-0.227525 0,-0.189604 0,-0.379208 0,-0.568813 0,-0.189604 0,-0.379208 0,-0.568812 0,-0.113763 0.02759,-0.230922 0,-0.341288 -0.01301,-0.05203 -0.0968,-0.06289 -0.113763,-0.113763 -0.02398,-0.07195 0.01839,-0.153947 0,-0.227525 -0.02057,-0.08226 -0.07584,-0.151683 -0.113763,-0.227525 -0.03792,-0.07584 -0.07584,-0.151683 -0.113762,-0.227525 -0.07584,-0.151683 -0.133455,-0.313945 -0.227525,-0.45505 -0.02975,-0.04462 -0.08402,-0.06914 -0.113763,-0.113763 -0.04704,-0.07055 -0.06673,-0.156972 -0.113762,-0.227525 -0.03154,-0.04731 -0.414363,-0.434706 -0.45505,-0.45505 -0.03392,-0.01696 -0.07584,0 -0.113763,0 -0.03792,0 -0.07584,0 -0.113763,0 -0.102541,0 -0.49721,-0.02387 -0.568812,0 -0.08044,0.02681 -0.156973,0.06673 -0.227525,0.113763 -0.08924,0.05949 -0.13779,0.168775 -0.227525,0.227525 -0.115529,0.07564 -0.277234,0.09087 -0.363496,0.198697 -0.07939,0.09924 -0.04191,0.253121 -0.09155,0.370115 -0.0419,0.09874 -0.16803,0.138283 -0.227525,0.227526 -0.09407,0.141105 -0.133455,0.313945 -0.227525,0.45505 -0.02975,0.04462 -0.07584,0.07584 -0.113762,0.113762 -0.03792,0.03792 -0.06561,0.137364 -0.113763,0.113763 C 23.118141,21.164918 23.07529,21.030905 23,20.9375"
     id="path4200"
     inkscape:connector-curvature="0" />
  <path
     style="fill:#b6d3dd;fill-opacity:1;fill-rule:evenodd;stroke:#fbfbfc;stroke-width:1px;stroke-linecap:butt;stroke-linejoin:miter;stroke-opacity:1"
     d="m 14,50.9375 c -0.06202,0.02097 -0.165078,0.124912 -0.186043,0.0629 C 13.792991,50.938383 14,51.002963 14,50.9375 c 0,-0.254836 -0.147755,-0.489582 -0.186043,-0.741525 -0.02417,-0.159059 0,-0.32177 0,-0.482654 0,-0.58991 0,-1.17982 0,-1.76973 0,-0.858051 0,-1.716102 0,-2.574152 0,-1.897426 0.05203,0.629127 -0.160885,-1.287077 -0.02961,-0.266501 0,-0.536282 0,-0.804422 0,-0.750795 0,-1.501589 0,-2.252384 0,-0.750794 0,-1.501589 0,-2.252383 0,-2.520525 0,-5.041049 0,-7.561573 0,-0.804423 0,-1.608846 0,-2.413268 0,-0.375398 0,-0.750795 0,-1.126192 0,-0.107257 -0.03392,-0.220017 0,-0.321769 0.02398,-0.07195 0.126967,-0.09305 0.160885,-0.160885 0.0514,-0.102809 -0.04317,-0.514042 0,-0.643538 0.03792,-0.113762 0.122963,-0.208006 0.160884,-0.321769 0.04827,-0.144796 -0.04826,-0.337858 0,-0.482654 0.03792,-0.113762 0.122964,-0.208006 0.160885,-0.321769 0.03392,-0.101752 -0.04797,-0.225836 0,-0.321769 0.02136,-0.04272 0.439937,-0.461295 0.482653,-0.482653 0.04797,-0.02398 0.110009,0.01696 0.160885,0 0.113762,-0.03792 0.208006,-0.122964 0.321769,-0.160885 0.05088,-0.01696 0.112918,0.02398 0.160884,0 0.06783,-0.03392 0.09305,-0.126967 0.160885,-0.160884 0.04797,-0.02398 0.110008,0.01696 0.160884,0 0.113763,-0.03792 0.208007,-0.122964 0.32177,-0.160885 0.05088,-0.01696 0.107256,0 0.160884,0 0.160885,0 0.321769,0 0.482654,0 0.429025,0 0.85805,0 1.287076,0 1.17982,0 2.35964,0 3.53946,0 3.861228,0 7.722457,0 11.583686,0 0.536282,0 1.072564,0 1.608845,0 0.107257,0 0.214513,0 0.32177,0 0.107256,0 0.217715,-0.02601 0.321769,0 0.116335,0.02908 0.208006,0.122964 0.321769,0.160885 0.101752,0.03392 0.225836,-0.04797 0.321769,0 0.06783,0.03392 0.107256,0.107256 0.160884,0.160884 0.05363,0.05363 0.126967,0.09305 0.160885,0.160885 0.02398,0.04797 -0.01696,0.110008 0,0.160884 0.03792,0.113763 0.122963,0.208007 0.160884,0.321769 0.01696,0.05088 0,0.107257 0,0.160885 0,0.268141 0,0.536282 0,0.804422 0,0.750795 0,1.501589 0,2.252384 0,1.555217 0,3.110434 0,4.665651 0,0.536282 0,1.072564 0,1.608846 0,0.214512 0.02661,0.430682 0,0.643538 -0.02743,0.219407 -0.133458,0.424131 -0.160884,0.643538 -0.02661,0.212856 0.05203,0.43543 0,0.643538 -0.393719,1.574875 -0.321769,-0.124523 -0.321769,1.126192 0,3.432203 0,6.864407 0,10.29661 0,1.072564 0,2.145127 0,3.217691 0,0.321769 0,0.643538 0,0.965307 0,0.07246 0.02448,0.433691 0,0.482654 -0.23014,0.460278 -0.629339,-0.216719 -0.804423,-0.321769 -0.14542,-0.08725 -0.321769,-0.107257 -0.482654,-0.160885 -0.160884,-0.05363 -0.325195,-0.0979 -0.482653,-0.160885 -0.222679,-0.08907 -0.429026,-0.214512 -0.643538,-0.321769 -0.107257,-0.05363 -0.221993,-0.09437 -0.321769,-0.160884 -0.126209,-0.08414 -0.195561,-0.23763 -0.321769,-0.321769 -0.09978,-0.06652 -0.221993,-0.09437 -0.321769,-0.160885 -0.185636,-0.123757 -0.297018,-0.358896 -0.482654,-0.482653 -0.297018,-0.198012 -0.66829,-0.284642 -0.965307,-0.482654 -0.0631,-0.04207 -0.09778,-0.118815 -0.160885,-0.160885 -0.09978,-0.06652 -0.221993,-0.09437 -0.321769,-0.160884 -0.126208,-0.08414 -0.195561,-0.23763 -0.321769,-0.321769 -0.199553,-0.133035 -0.443985,-0.188734 -0.643538,-0.321769 -0.126208,-0.08414 -0.214513,-0.214513 -0.321769,-0.321769 -0.107257,-0.107257 -0.195561,-0.237631 -0.321769,-0.321769 -0.09978,-0.06652 -0.221993,-0.09437 -0.321769,-0.160885 -0.138828,-0.09255 -0.356989,-0.356989 -0.482654,-0.482653 -0.05363,-0.05363 -0.184868,-0.08893 -0.160884,-0.160885 0.08131,-0.243938 0.443232,-0.382501 0.643538,-0.482654 0.107256,-0.05363 0.204181,-0.137367 0.321769,-0.160884 0.15776,-0.03155 0.323958,0.02645 0.482653,0 0.16728,-0.02788 0.315374,-0.133005 0.482654,-0.160885 0.158695,-0.02645 0.324893,0.03155 0.482654,0 0.117587,-0.02352 0.205433,-0.1318 0.321769,-0.160884 0.267666,-0.06692 0.64151,0.16494 0.804422,-0.160885 0.02398,-0.04797 0,-0.107256 0,-0.160884 0,-0.05363 0,-0.107257 0,-0.160885 0,-0.160884 0,-0.321769 0,-0.482653 0,-0.375398 0,-0.750795 0,-1.126192 0,-1.76973 0,-3.53946 0,-5.30919 0,-0.643538 0,-1.287076 0,-1.930614 0,-0.129518 -0.03366,-0.542559 0,-0.643538 0.03792,-0.113763 0.131801,-0.205434 0.160885,-0.321769 0.03138,-0.125518 0,-0.777527 0,-0.965308 0,-0.05363 -0.01696,-0.110008 0,-0.160884 0.232834,-0.698503 0.160884,0.110527 0.160884,-0.804423 0,-0.05363 0,-0.107256 0,-0.160884 0,-0.05363 0.02398,-0.112918 0,-0.160885 -0.122672,-0.245345 -0.422785,-0.160884 -0.643538,-0.160884 -0.05363,0 -0.110008,0.01696 -0.160884,0 -0.113763,-0.03792 -0.214513,-0.107257 -0.321769,-0.160885 -1.166507,-0.583253 0.25438,0.169587 -0.482654,-0.321769 -0.199553,-0.133035 -0.443985,-0.188734 -0.643538,-0.321769 -0.126208,-0.08414 -0.195561,-0.23763 -0.321769,-0.321769 -0.199553,-0.133035 -0.443986,-0.188734 -0.643538,-0.321769 -0.0631,-0.04207 -0.09778,-0.118815 -0.160885,-0.160885 -0.199553,-0.133035 -0.443985,-0.188734 -0.643538,-0.321769 -0.0661,-0.04406 -0.43859,-0.416558 -0.482654,-0.482653 -0.06652,-0.09978 -0.09437,-0.221993 -0.160884,-0.321769 -0.04207,-0.06311 -0.126967,-0.09305 -0.160885,-0.160885 -0.02398,-0.04797 0.02398,-0.112918 0,-0.160885 -0.368152,-0.736305 0.06668,0.682701 -0.321769,-0.482653 -0.01696,-0.05088 0.02398,-0.112918 0,-0.160885 -0.03392,-0.06783 -0.126967,-0.09305 -0.160884,-0.160884 -0.04797,-0.09593 0.04797,-0.225836 0,-0.321769 -0.03392,-0.06784 -0.126967,-0.09305 -0.160885,-0.160885 -0.04797,-0.09593 0.04797,-0.225836 0,-0.321769 -0.03392,-0.06784 -0.126967,-0.09305 -0.160884,-0.160884 -0.04797,-0.09593 0.03392,-0.220017 0,-0.321769 -0.02464,-0.07392 -0.183712,-0.436635 -0.321769,-0.482654 -0.375785,-0.125261 -0.299516,0.09208 -0.643539,0.160884 -0.15776,0.03155 -0.324893,-0.03155 -0.482653,0 -0.117588,0.02352 -0.205433,0.131801 -0.321769,0.160885 -0.219147,0.05479 -0.770671,-0.06488 -0.965307,0 -0.07195,0.02398 -0.09305,0.126967 -0.160885,0.160885 -0.0423,0.02115 -0.559408,0 -0.643538,0 -0.648122,0 -0.96893,-0.07773 -1.287076,0.160884 -0.280468,0.210351 -0.09683,0.387313 -0.160885,0.643538 -0.02908,0.116336 -0.1318,0.205433 -0.160884,0.321769 -0.02601,0.104054 0,0.214513 0,0.321769 0,0.107257 0.02601,0.217715 0,0.321769 -0.02908,0.116336 -0.122964,0.208007 -0.160885,0.321769 -0.03392,0.101753 0.03392,0.220017 0,0.32177 -0.03792,0.113762 -0.122964,0.208006 -0.160884,0.321769 -0.04827,0.144796 0.04826,0.337857 0,0.482653 -0.03792,0.113763 -0.122964,0.208007 -0.160885,0.321769 -0.03689,0.110662 0.04746,0.387729 0,0.482654 -0.03392,0.06784 -0.126967,0.09305 -0.160885,0.160884 -0.02398,0.04797 0.01696,0.110009 0,0.160885 -0.03792,0.113763 -0.122963,0.208006 -0.160884,0.321769 -0.04317,0.129496 0.0514,0.540729 0,0.643538 -0.03392,0.06784 -0.126967,0.09305 -0.160885,0.160885 -0.02398,0.04797 0.02398,0.112918 0,0.160884 -0.06783,0.13567 -0.23763,0.195561 -0.321769,0.321769 -0.156302,0.234454 -0.10044,0.335101 -0.321769,0.482654 -0.08102,0.354455 -0.33097,0.08504 -0.482653,0.160884 -0.06784,0.03392 -0.09305,0.126968 -0.160885,0.160885 -0.04797,0.02398 -0.110008,-0.01696 -0.160884,0 -0.07392,0.02464 -0.436635,0.183712 -0.482654,0.321769 -0.03392,0.101752 0,0.214513 0,0.321769 0,0.107256 0,0.214513 0,0.321769 0,0.321769 0,0.643538 0,0.965307 0,0.160885 0,0.321769 0,0.482654 0,0.107256 0.02601,0.217715 0,0.321769 -0.02908,0.116336 -0.131801,0.205433 -0.160885,0.321769 -0.03164,0.126555 0,0.798 0,0.965307 0,0.750795 0,1.501589 0,2.252384 0,0.266406 0.03632,0.908261 0,1.126192 -0.02788,0.167279 -0.133004,0.315373 -0.160884,0.482653 -0.02645,0.158696 0.03155,0.324893 0,0.482654 -0.02352,0.117587 -0.131801,0.205433 -0.160885,0.321769 -0.05203,0.208108 0.06783,0.440033 0,0.643538 -0.02398,0.07195 -0.136901,0.08893 -0.160884,0.160884 -0.03392,0.101753 0.02601,0.217716 0,0.32177 -0.02908,0.116335 -0.131801,0.205433 -0.160885,0.321769 -0.02601,0.104054 0.02601,0.217715 0,0.321769 -0.02908,0.116336 -0.1318,0.205433 -0.160884,0.321769 -0.06503,0.260135 0.06503,0.544288 0,0.804422 -0.01839,0.07358 -0.14249,0.08731 -0.160885,0.160885 -0.03902,0.156081 0.03155,0.324893 0,0.482654 -0.02352,0.117587 -0.137367,0.204181 -0.160884,0.321769 -0.01093,0.05463 0.03959,0.685638 0,0.804422 -0.03792,0.113763 -0.122964,0.208007 -0.160885,0.321769 -0.03026,0.09077 0,0.376936 0,0.482654 0,0.429025 0,0.858051 0,1.287076 0,0.239021 0.03916,0.443491 -0.160884,0.643538 -0.03792,0.03792 -0.160885,0.05363 -0.160885,0 0,-0.05363 0.214513,0 0.160885,0 -0.05481,0 -0.556467,0.02902 -0.643538,0 -0.583254,-0.194417 -0.114501,-0.07633 -0.482654,-0.321769 -0.09978,-0.06652 -0.214513,-0.107256 -0.321769,-0.160884 -0.107257,-0.05363 -0.221993,-0.09437 -0.321769,-0.160885 -0.0631,-0.04207 -0.08529,-0.154783 -0.160885,-0.160884 C 14.410358,50.822723 14.206126,50.904838 14,50.9375 Z"
     id="path4206"
     inkscape:connector-curvature="0" />
  <path
     style="fill:#b6d3dd;fill-opacity:1;fill-rule:evenodd;stroke:#fbfbfc;stroke-width:1px;stroke-linecap:butt;stroke-linejoin:miter;stroke-opacity:1"
     d="m 17.353416,28.637447 c -0.160884,0.214513 -0.321769,0.429025 -0.482653,0.643538 0,0.05363 0.02398,0.112918 0,0.160885 -0.245314,0.490627 -0.127544,-0.294249 -0.321769,0.482653 -0.06063,0.242536 0.06063,0.561887 0,0.804423 -0.01839,0.07358 -0.126967,0.09305 -0.160885,0.160884 -0.02398,0.04797 0,0.107257 0,0.160885 0,0.160885 0,0.321769 0,0.482654 0,0.05363 -0.02398,0.112918 0,0.160884 0.146479,0.292957 0.122044,0.09431 0.321769,0.160885 0.113763,0.03792 0.208007,0.122963 0.321769,0.160884 0.05088,0.01696 0.107257,0 0.160885,0 0.160884,0 0.321769,0 0.482653,0 0.136534,0 0.876615,0.02956 0.965308,0 0.07195,-0.02398 0.09778,-0.118815 0.160884,-0.160884 0.146966,-0.09798 0.390433,-0.137329 0.482654,-0.321769 0.02398,-0.04797 0,-0.107257 0,-0.160885 0,-0.05363 0.01696,-0.110008 0,-0.160884 -0.03792,-0.113763 -0.116349,-0.21043 -0.160885,-0.32177 -0.06298,-0.157457 -0.08504,-0.33097 -0.160884,-0.482653 -0.03392,-0.06784 -0.126967,-0.09305 -0.160885,-0.160885 -0.02398,-0.04797 0.02398,-0.112918 0,-0.160884 -0.03392,-0.06784 -0.126967,-0.09305 -0.160884,-0.160885 -0.02398,-0.04797 0,-0.107256 0,-0.160884 -0.05363,-0.107257 -0.09437,-0.221993 -0.160885,-0.321769 -0.09764,-0.146456 -0.411355,-0.340056 -0.482654,-0.482654 -0.02398,-0.04797 0.04797,-0.136901 0,-0.160884 -0.19777,-0.09889 -0.697166,0.05363 -0.643538,-0.160885 0.05363,-0.214513 0.433771,0.09096 0.643538,0.160885 0.78733,0.262443 -0.29515,0.160884 1.003046,0.160884"
     id="path4208"
     inkscape:connector-curvature="0" />
  <path
     style="fill:#b6d3dd;fill-opacity:1;fill-rule:evenodd;stroke:#fbfbfc;stroke-width:1px;stroke-linecap:butt;stroke-linejoin:miter;stroke-opacity:1"
     d="m 29,28.476562 c -0.02097,0.214513 -0.08896,0.429585 -0.0629,0.643539 0.0061,0.04984 0.576265,0.542628 0.643538,0.643538 0.06652,0.09978 0.09437,0.221992 0.160884,0.321769 0.052,0.078 0.72642,0.75242 0.804423,0.804422 0.812758,0.541839 0.0037,0.0012 0.482654,0.160885 0.113762,0.03792 0.201853,0.160885 0.321769,0.160885 0.05363,0 0,-0.107257 0,-0.160885 0,-0.05363 0,-0.107256 0,-0.160885 0,-0.214512 0,-0.429025 0,-0.643538 0,-0.05363 -0.02398,-0.112918 0,-0.160884 0.03392,-0.06784 0.126967,-0.09305 0.160884,-0.160885 0.0208,-0.0416 0,-0.851272 0,-0.965307 0,-0.114035 0.0208,-0.92371 0,-0.965307 -0.03392,-0.06783 -0.09305,-0.126967 -0.160884,-0.160885 -0.04797,-0.02398 -0.107257,0 -0.160885,0 -0.05363,0 -0.107256,0 -0.160884,0 -0.08413,0 -0.601235,-0.02115 -0.643538,0 -0.06783,0.03392 -0.09778,0.118815 -0.160885,0.160885 -0.09978,0.06652 -0.214513,0.107256 -0.321769,0.160884 C 29.401005,28.405496 29.696203,28.283658 29,28.476562 Z"
     id="path4210"
     inkscape:connector-curvature="0" />
  <path
     style="fill:#b6d3dd;fill-opacity:1;fill-rule:evenodd;stroke:#fbfbfc;stroke-width:1px;stroke-linecap:butt;stroke-linejoin:miter;stroke-opacity:1"
     d="m 24,35.9375 c -0.124029,-0.341852 -0.298735,-0.669374 -0.372087,-1.025556 -0.01082,-0.05253 0.107257,0 0.160885,0 0.375397,0 0.750794,0 1.126191,0 0.214513,0 0.429026,0 0.643539,0 0.107256,0 0.214512,0 0.321769,0 0.05363,0 0.110008,-0.01696 0.160884,0 0.113763,0.03792 0.214513,0.107256 0.321769,0.160884 0.107257,0.05363 0.221993,0.09437 0.321769,0.160885 0.126209,0.08414 0.214513,0.214513 0.321769,0.321769 0.05363,0.05363 0.118815,0.09778 0.160885,0.160885 0.06652,0.09978 0.09437,0.221992 0.160884,0.321769 0.04207,0.0631 0.126968,0.09305 0.160885,0.160884 0.02398,0.04797 0,0.107256 0,0.160885 0,0.05363 0,0.107256 0,0.160884 0,0.268141 0,0.536282 0,0.804423 0,0.804423 0,1.608845 0,2.413268 0,0.536282 0,1.072563 0,1.608845 0,0.241611 0.04264,0.591237 0,0.804423 -0.02352,0.117587 -0.122964,0.208006 -0.160885,0.321769 -0.03392,0.101752 0,0.214513 0,0.321769 0,0.268141 0,0.536282 0,0.804423 0,0.107256 0.03392,0.220016 0,0.321769 -0.03792,0.113762 -0.07609,0.236975 -0.160884,0.321769 -0.08479,0.08479 -0.221993,0.09437 -0.321769,0.160884 -0.0631,0.04207 -0.09778,0.118815 -0.160885,0.160885 -0.09978,0.06652 -0.221992,0.09437 -0.321769,0.160884 -0.0631,0.04207 -0.09305,0.126968 -0.160884,0.160885 -0.04797,0.02398 -0.112918,-0.02398 -0.160885,0 -0.06784,0.03392 -0.09305,0.126967 -0.160884,0.160884 -0.09593,0.04797 -0.220017,-0.03392 -0.321769,0 -0.113763,0.03792 -0.208007,0.122964 -0.32177,0.160885 -0.05088,0.01696 -0.107256,0 -0.160884,0 -0.160885,0 -0.326573,-0.03902 -0.482654,0 -0.07358,0.01839 -0.08893,0.136901 -0.160884,0.160885 -0.101752,0.03392 -0.214513,0 -0.321769,0 -0.160885,0 -0.326573,-0.03902 -0.482654,0 -0.07358,0.01839 -0.08893,0.136901 -0.160884,0.160884 -0.09152,0.03051 -0.652896,0 -0.804423,0 -0.160885,0 -0.321769,0 -0.482654,0 -0.160884,0 -0.326572,0.03902 -0.482653,0 -0.07358,-0.01839 -0.08731,-0.14249 -0.160885,-0.160884 -0.156081,-0.03902 -0.324893,0.03155 -0.482653,0 -0.235176,-0.04704 -0.410867,-0.263602 -0.643539,-0.32177 -0.104053,-0.02601 -0.220016,0.03392 -0.321769,0 -0.07195,-0.02398 -0.09778,-0.118815 -0.160884,-0.160884 -0.199553,-0.133035 -0.443986,-0.188734 -0.643538,-0.321769 -0.0631,-0.04207 -0.107257,-0.107256 -0.160885,-0.160885 -0.245678,-0.245678 -0.126967,-0.09305 -0.321769,-0.482653 -0.05363,-0.107257 -0.09437,-0.221993 -0.160884,-0.321769 -0.04207,-0.0631 -0.136902,-0.08893 -0.160885,-0.160885 -0.03392,-0.101752 0.02103,-0.216595 0,-0.321769 -0.211761,-1.058803 -0.160884,0.08872 -0.160884,-0.965307 0,-0.482654 0,-0.965307 0,-1.447961 0,-0.160884 0,-0.321769 0,-0.482654 0,-0.160884 -0.03902,-0.326572 0,-0.482653 0.01839,-0.07358 0.136901,-0.08893 0.160884,-0.160885 0.06783,-0.203504 -0.06784,-0.440033 0,-0.643538 0.02398,-0.07195 0.126967,-0.09305 0.160885,-0.160884 0.02398,-0.04797 -0.01696,-0.110009 0,-0.160885 0.112619,-0.337857 0.370034,-0.62745 0.482653,-0.965307 0.159642,-0.478926 -0.380954,0.330104 0.160885,-0.482654 0.09255,-0.138827 0.356989,-0.356989 0.482653,-0.482653 0.160885,-0.160885 0.321769,-0.321769 0.482654,-0.482654 0.05363,-0.05363 0.09778,-0.118815 0.160884,-0.160884 0.09978,-0.06652 0.214513,-0.107257 0.32177,-0.160885 0.107256,-0.05363 0.214512,-0.107256 0.321769,-0.160884 0.05363,0 0.110008,0.01696 0.160884,0 0.113763,-0.03792 0.208007,-0.122964 0.321769,-0.160885 0.05088,-0.01696 0.110009,0.01696 0.160885,0 0.113762,-0.03792 0.208006,-0.122964 0.321769,-0.160885 0.05088,-0.01696 0.110008,0.01696 0.160884,0 0.113763,-0.03792 0.208007,-0.122963 0.321769,-0.160884 0.09593,-0.03198 0.809432,0 0.965308,0 0.139053,0 0.7884,-0.06322 0.804422,0.160884 C 24.28588,35.59641 24.090484,35.756532 24,35.9375"
     id="path4212"
     inkscape:connector-curvature="0" />
  <path
     style="fill:#b6d3dd;fill-opacity:1;fill-rule:evenodd;stroke:#fbfbfc;stroke-width:1px;stroke-linecap:butt;stroke-linejoin:miter;stroke-opacity:1"
     d="m 24,37.96875 c -0.0704,-0.05363 -0.197529,-0.07345 -0.211202,-0.160885 -0.01172,-0.07493 0.100553,-0.206842 0.160884,-0.160884 0.08636,0.06578 -0.05824,0.321769 0.05032,0.321769 0.224956,0 0.371663,-0.282812 0.59322,-0.321769 0.118105,-0.02077 0.214513,0.107256 0.321769,0.160884 0.107257,0.05363 0.221993,0.09437 0.321769,0.160885 0.195705,0.13047 0.411629,0.430462 0.482654,0.643538 0.03366,0.10098 0,0.514021 0,0.643538 0,0.540157 -0.265057,0.478028 -0.482654,0.804423 -0.06652,0.09978 -0.09437,0.221993 -0.160884,0.321769 -0.123757,0.185636 -0.358896,0.297018 -0.482654,0.482654 -0.09798,0.146966 -0.137328,0.390433 -0.321769,0.482653 -0.04797,0.02398 -0.110008,-0.01696 -0.160884,0 -0.227525,0.07584 -0.416013,0.245928 -0.643538,0.321769 -0.101753,0.03392 -0.214513,0 -0.321769,0 -0.107257,0 -0.220017,0.03392 -0.32177,0 -0.345062,-0.11502 -0.557109,-0.396225 -0.804422,-0.643538 -0.05363,-0.05363 -0.107257,-0.107256 -0.160885,-0.160884 -0.05363,-0.05363 -0.126967,-0.09305 -0.160884,-0.160885 -0.02398,-0.04797 0,-0.107256 0,-0.160884 0,-0.280801 -0.02398,-0.112919 0.160884,-0.482654 0.107257,-0.214513 0.188734,-0.443986 0.321769,-0.643538 0.04207,-0.0631 0.118815,-0.09778 0.160885,-0.160885 0.06652,-0.09978 0.09437,-0.221992 0.160884,-0.321769 0.04546,-0.06819 0.416088,-0.44937 0.482654,-0.482653 0.04797,-0.02398 0.107256,0 0.160885,0 0.442623,0 0.11686,0.03062 0.85474,-0.482654 z"
     id="path4214"
     inkscape:connector-curvature="0" />
  <path
     style="fill:#b6d3dd;fill-opacity:1;fill-rule:evenodd;stroke:#fbfbfc;stroke-width:1px;stroke-linecap:butt;stroke-linejoin:miter;stroke-opacity:1"
     d="m 64,10.9375 c 0.05952,2.156989 0.192486,1.911592 -0.794492,2.89857 -0.368152,0.368153 -0.448736,0.380901 -0.643538,0.965307 -0.06732,0.20196 0,1.028041 0,1.287076 0,0.107257 -0.03392,0.220017 0,0.321769 0.07584,0.227526 0.188734,0.443986 0.321769,0.643539 0.104758,0.157136 1.12994,1.182318 1.287077,1.287076 1.230769,0.820513 0.05631,-0.176975 1.287076,0.643538 0.126208,0.08414 0.186099,0.253934 0.321769,0.321769 0.02665,0.01332 0.923905,0.0138 0.965307,0 0.227525,-0.07584 0.429026,-0.214513 0.643538,-0.321769 0.214513,-0.107256 0.443986,-0.188734 0.643538,-0.321769 0.371272,-0.247515 0.594036,-0.717793 0.965308,-0.965307 0.199552,-0.133035 0.473951,-0.152182 0.643538,-0.321769 0.482747,-0.482748 0.321769,-1.320284 0.321769,-1.930615 0,-0.311751 0.06395,-1.738753 0,-1.930614 -0.07584,-0.227525 -0.245927,-0.416013 -0.321769,-0.643538 -0.06784,-0.203505 0.09593,-0.451672 0,-0.643538 -0.06784,-0.13567 -0.23763,-0.195561 -0.321769,-0.321769 -0.133035,-0.199553 -0.188734,-0.443986 -0.321769,-0.643539 -0.295106,-0.442658 -0.4964,-0.330932 -0.965308,-0.643538 -0.252416,-0.168277 -0.372198,-0.507868 -0.643538,-0.6435379 -0.09593,-0.047967 -0.214512,0 -0.321769,0 -0.366582,0 -1.781958,-0.068099 -1.930614,0 C 64.684846,10.18157 64.45624,10.741969 64,10.9375 c -0.342003,0.146573 -0.753295,-0.07924 -1.116261,0.0026 -0.543977,0.122721 -0.222031,0.666096 -0.321769,0.965308 -0.04797,0.143899 -0.23763,0.19556 -0.321769,0.321769 -0.133035,0.199552 -0.214512,0.429025 -0.321769,0.643538 -0.107256,0.214512 -0.45646,0.445099 -0.321769,0.643538 C 62.235566,14.455585 63.198888,15.129767 64,15.9375"
     id="path4216"
     inkscape:connector-curvature="0" />
  <path
     style="fill:#b6d3dd;fill-opacity:1;fill-rule:evenodd;stroke:#fbfbfc;stroke-width:1px;stroke-linecap:butt;stroke-linejoin:miter;stroke-opacity:1"
     d="m 49,20.9375 c 0.956793,-0.714543 2.608588,1.267874 3.908898,0.942797 0.465344,-0.116336 0.816726,-0.549468 1.287077,-0.643539 0.31552,-0.0631 0.649786,0.06311 0.965307,0 0.235175,-0.04703 0.408363,-0.274734 0.643538,-0.321769 2.45466,0 -0.253829,0.1439 1.608845,-0.321769 0.416216,-0.104054 0.870861,0.104054 1.287077,0 0.232671,-0.05817 0.410866,-0.263601 0.643538,-0.321769 0.208108,-0.05203 0.433191,0.04207 0.643538,0 0.332588,-0.06652 0.632719,-0.255251 0.965307,-0.321769 0.210347,-0.04207 0.433191,0.04207 0.643538,0 0.332588,-0.06652 0.632719,-0.255251 0.965307,-0.321769 0.210347,-0.04207 0.435431,0.05203 0.643538,0 0.232672,-0.05817 0.410867,-0.263601 0.643539,-0.321769 0.208108,-0.05203 0.43543,0.05203 0.643538,0 0.232671,-0.05817 0.416013,-0.245927 0.643538,-0.321769 0.101752,-0.03392 0.214513,0 0.321769,0 0.643538,0 1.287076,0 1.930614,0 0.321769,0 0.647917,0.0529 0.965308,0 0.334559,-0.05576 0.632719,-0.255251 0.965307,-0.321769 0.210347,-0.04207 0.43543,0.05203 0.643538,0 0.232672,-0.05817 0.410866,-0.263601 0.643538,-0.321769 0.208108,-0.05203 0.429025,0 0.643538,0 0.214513,-0.107256 0.416013,-0.245928 0.643538,-0.321769 0.101753,-0.03392 0.214513,0 0.321769,0 0.321769,0 0.643539,0 0.965308,0 0.214512,0 0.43543,0.05203 0.643538,0 0.232671,-0.05817 0.410866,-0.263601 0.643538,-0.321769 0.28727,-0.07182 1.236389,0 1.608845,0 0.461946,0 1.226546,-0.09558 1.608846,0 0.147154,0.03679 0.19556,0.23763 0.321769,0.321769 0.199552,0.133035 0.429025,0.214513 0.643538,0.321769 0.261273,0.130636 0.801522,0.315967 0.965307,0.643538 0.04797,0.09593 0,0.214513 0,0.321769 0,0.107256 0,0.214513 0,0.321769 0,0.321769 0,0.643538 0,0.965307 0,0.321769 0.0631,0.649787 0,0.965308 -0.04703,0.235175 -0.274734,0.408363 -0.321769,0.643538 -0.0631,0.31552 0.07804,0.653145 0,0.965307 -0.03679,0.147154 -0.253934,0.186099 -0.321769,0.321769 -0.09493,0.18985 0.07377,0.743984 0,0.965307 -0.07584,0.227525 -0.188734,0.443986 -0.321769,0.643538 -0.104005,0.156007 -1.452839,1.504841 -1.608846,1.608846 -0.199552,0.133035 -0.429025,0.214512 -0.643538,0.321769 -0.214512,0.107256 -0.410866,0.263601 -0.643538,0.321769 -0.208108,0.05203 -0.433191,-0.04207 -0.643538,0 -0.332588,0.06652 -0.630748,0.266009 -0.965307,0.321769 -0.317391,0.0529 -0.649787,-0.0631 -0.965307,0 -0.235176,0.04704 -0.410867,0.263601 -0.643539,0.321769 -0.208107,0.05203 -0.429025,0 -0.643538,0 -0.214512,0 -0.429025,0 -0.643538,0 -1.17982,0 -2.35964,0 -3.53946,0 -1.608845,0 -3.21769,0 -4.826536,0 -0.334615,0 -1.677505,-0.06328 -1.930614,0 -0.232672,0.05817 -0.410866,0.263601 -0.643538,0.321769 -0.208108,0.05203 -0.433191,-0.04207 -0.643538,0 -0.332588,0.06652 -0.63272,0.255251 -0.965307,0.321769 -0.210347,0.04207 -0.429026,0 -0.643539,0 -0.429025,0 -0.85805,0 -1.287076,0 -0.214513,0 -0.43543,-0.05203 -0.643538,0 -0.232672,0.05817 -0.416013,0.245927 -0.643538,0.321769 -0.258992,0.08633 -1.081459,-0.102809 -1.287076,0 -0.13567,0.06783 -0.1861,0.253934 -0.321769,0.321769 -0.09593,0.04797 -0.225837,-0.04797 -0.32177,0 -0.115082,0.05754 -1.197868,1.153264 -1.287076,1.287076 -0.133035,0.199553 -0.214513,0.429026 -0.321769,0.643539 -0.107256,0.214512 -0.245927,0.416013 -0.321769,0.643538 -0.03392,0.101752 0.03392,0.220016 0,0.321769 -0.151683,0.45505 -0.527202,0.821733 -0.643538,1.287076 -0.05203,0.208108 0.06783,0.440034 0,0.643538 -0.04797,0.1439 -0.253934,0.1861 -0.321769,0.321769 -0.04797,0.09593 0.03392,0.220017 0,0.321769 -0.07584,0.227525 -0.245928,0.416013 -0.321769,0.643538 -0.06784,0.203505 0.06783,0.440034 0,0.643539 -0.07584,0.227525 -0.245928,0.416013 -0.321769,0.643538 -0.09653,0.289592 0.09653,0.675715 0,0.965307 -0.07584,0.227525 -0.245928,0.416013 -0.321769,0.643538 -0.06784,0.203505 0,0.429025 0,0.643538 0,0.536282 0,1.072564 0,1.608846 0,0.107256 0.03392,0.220016 0,0.321769 -0.07584,0.227525 -0.245928,0.416013 -0.321769,0.643538 -0.09653,0.289592 0.09653,0.675715 0,0.965307 -0.07584,0.227525 -0.245928,0.416013 -0.32177,0.643538 -0.09653,0.289592 0.09653,0.675715 0,0.965307 -0.07584,0.227525 -0.245927,0.416013 -0.321769,0.643538 -0.03392,0.101753 0.03392,0.220017 0,0.321769 -0.07584,0.227526 -0.263601,0.410867 -0.321769,0.643539 -0.07804,0.312161 0.101753,0.66005 0,0.965307 -0.07584,0.227525 -0.245927,0.416013 -0.321769,0.643538 -0.113972,0.341916 0.113972,0.945161 0,1.287076 -0.07584,0.227525 -0.214512,0.429026 -0.321769,0.643538 0,0.321769 0.0631,0.649787 0,0.965308 -0.04704,0.235175 -0.274734,0.408363 -0.321769,0.643538 -0.0631,0.31552 0.07804,0.653145 0,0.965307 -0.03679,0.147154 -0.253934,0.186099 -0.321769,0.321769 -0.04797,0.09593 0,0.214513 0,0.321769 0,0.321769 0.0631,0.649787 0,0.965307 -0.04704,0.235175 -0.245927,0.416013 -0.321769,0.643538 -0.06783,0.203505 0.06784,0.440034 0,0.643539 -0.776902,2.330707 0.09277,-0.507304 -0.643538,0.965307 -0.04797,0.09593 0.03392,0.220016 0,0.321769 -0.09469,0.284073 -0.795563,1.675997 -0.965307,1.930614 -0.08414,0.126208 -0.237631,0.195561 -0.321769,0.321769 -0.03996,0.05994 -0.62292,1.266458 -0.643539,1.287077 -0.169587,0.169587 -0.443985,0.188733 -0.643538,0.321769 -0.126208,0.08414 -0.214512,0.214512 -0.321769,0.321769 -0.321769,0.321769 -0.643538,0.643538 -0.965307,0.965307 -0.214513,0.214513 -0.391122,0.47526 -0.643538,0.643538 -0.399105,0.26607 -0.858051,0.429025 -1.287076,0.643538 -0.214513,0.107257 -0.410867,0.263601 -0.643538,0.321769 -0.208108,0.05203 -0.440034,-0.06784 -0.643539,0 -0.287799,0.09593 -0.372198,0.507869 -0.643538,0.643538 -0.01683,0.0084 -0.948473,0.0084 -0.965307,0 -0.13567,-0.06784 -0.253934,-0.186099 -0.321769,-0.321769 -0.02392,-0.04784 -0.02355,-1.216422 0,-1.287076 0.07584,-0.227525 0.263601,-0.410866 0.321769,-0.643538 0.05203,-0.208108 -0.06784,-0.440034 0,-0.643538 0.04797,-0.1439 0.23763,-0.195561 0.321769,-0.321769 1.166507,-2.333013 -0.339174,0.508761 0.643538,-0.965308 0.133035,-0.199552 0.188734,-0.443985 0.321769,-0.643538 0.168278,-0.252416 0.475261,-0.391121 0.643538,-0.643538 1.166507,-2.333013 -0.339174,0.508762 0.643539,-0.965307 0.133035,-0.199553 0.214512,-0.429025 0.321769,-0.643538 0.107256,-0.214513 0.245927,-0.416013 0.321769,-0.643538 0.03392,-0.101753 -0.03392,-0.220017 0,-0.321769 0.07584,-0.227525 0.245927,-0.416013 0.321769,-0.643538 0.03392,-0.101753 -0.03392,-0.220017 0,-0.32177 0.07584,-0.227525 0.274734,-0.408363 0.321769,-0.643538 0.0631,-0.31552 0,-0.643538 0,-0.965307 0,-0.214513 -0.06784,-0.440033 0,-0.643538 0.04797,-0.1439 0.273802,-0.17787 0.321769,-0.321769 0.06784,-0.203505 -0.05203,-0.43543 0,-0.643538 0.05817,-0.232672 0.245927,-0.416013 0.321769,-0.643538 0.03392,-0.101753 0,-0.214513 0,-0.321769 0,-0.321769 -0.07804,-0.653146 0,-0.965308 0.03679,-0.147154 0.253934,-0.186099 0.321769,-0.321769 0.09492,-0.18985 -0.07377,-0.743984 0,-0.965307 0.07584,-0.227525 0.245927,-0.416013 0.321769,-0.643538 0.03392,-0.101752 0,-0.214513 0,-0.321769 0,-0.321769 -0.0631,-0.649787 0,-0.965307 0.04704,-0.235175 0.245928,-0.416013 0.321769,-0.643538 0.06783,-0.203505 -0.06784,-0.440034 0,-0.643539 0.07584,-0.227525 0.263601,-0.410866 0.321769,-0.643538 0.104054,-0.416216 -0.08414,-0.866382 0,-1.287076 0.06652,-0.332588 0.255252,-0.632719 0.321769,-0.965307 0.08414,-0.420694 -0.104054,-0.870861 0,-1.287076 0.05817,-0.232672 0.263601,-0.410867 0.321769,-0.643539 0.05203,-0.208107 -0.05203,-0.43543 0,-0.643538 0.05817,-0.232671 0.263602,-0.410866 0.321769,-0.643538 0.05203,-0.208108 -0.05203,-0.43543 0,-0.643538 0.05817,-0.232672 0.274735,-0.408363 0.32177,-0.643538 0.0631,-0.315521 0,-0.643538 0,-0.965307 0,-0.321769 0,-0.643538 0,-0.965308 0,-0.321769 -0.07804,-0.653145 0,-0.965307 0.03679,-0.147154 0.273802,-0.177869 0.321769,-0.321769 0.135669,-0.407009 -0.13567,-0.880067 0,-1.287076 0.04797,-0.1439 0.253934,-0.186099 0.321769,-0.321769 0.09492,-0.18985 -0.07378,-0.743984 0,-0.965307 0.07584,-0.227525 0.214512,-0.429026 0.321769,-0.643538 0,-0.32177 -0.0631,-0.649787 0,-0.965308 0.04704,-0.235175 0.274734,-0.408363 0.321769,-0.643538 0.0631,-0.31552 -0.0631,-0.649787 0,-0.965307 0.04704,-0.235175 0.274734,-0.408363 0.321769,-0.643538 0.0631,-0.315521 -0.0631,-0.649787 0,-0.965307 0.04704,-0.235175 0.245927,-0.416013 0.321769,-0.643539 0.06784,-0.203504 -0.06784,-0.440033 0,-0.643538 0.07584,-0.227525 0.245927,-0.416013 0.321769,-0.643538 0.03392,-0.101752 -0.03392,-0.220017 0,-0.321769 0.151683,-0.45505 0.491855,-0.832026 0.643538,-1.287076 0.03392,-0.101752 -0.04797,-0.225836 0,-0.321769 0.06784,-0.13567 0.253934,-0.1861 0.321769,-0.321769 0.09593,-0.191866 -0.150152,-0.490339 0,-0.643538 C 48.123932,21.509583 48.586864,21.251766 49,20.9375 Z"
     id="path4218"
     inkscape:connector-curvature="0" />
  <path
     style="fill:#b6d3dd;fill-opacity:1;fill-rule:evenodd;stroke:#fbfbfc;stroke-width:1px;stroke-linecap:butt;stroke-linejoin:miter;stroke-opacity:1"
     d="m 64,30.9375 c -0.801112,0.520392 -1.651352,0.972018 -2.403337,1.561176 -0.0029,0.0022 0,0.891948 0,0.965307 0,0.858051 0,1.716102 0,2.574153 0,0.31816 -0.06992,1.007387 0,1.287076 0.08226,0.329047 0.239507,0.63626 0.321769,0.965307 0.02601,0.104054 -0.03392,0.220017 0,0.321769 0.07584,0.227525 0.245928,0.416013 0.321769,0.643538 0.06751,0.202521 0,1.318814 0,1.608846 0,0.144911 0.04896,0.867382 0,0.965307 -0.292957,0.585914 -0.244087,0.188619 -0.643538,0.321769 -2.330707,0.776902 0.507304,-0.09277 -0.965307,0.643538 -0.08461,0.0423 -1.118817,0 -1.287076,0 -0.311752,0 -1.738753,0.06395 -1.930615,0 -0.227525,-0.07584 -0.443985,-0.188734 -0.643538,-0.321769 -0.421731,-0.281154 -0.677631,-0.965307 -1.287076,-0.965307 -0.239833,0 -0.443986,0.188734 -0.643538,0.321769 -0.800381,0.533587 -0.03697,0.07394 -0.321769,0.643538 -0.06784,0.13567 -0.253935,0.186099 -0.321769,0.321769 -0.04797,0.09593 0.04797,0.225836 0,0.321769 -0.06783,0.13567 -0.253935,0.186099 -0.321769,0.321769 -0.04797,0.09593 0,0.214513 0,0.321769 0,0.107257 0,0.214513 0,0.321769 0,0.536282 0,1.072564 0,1.608846 0,0.214512 0.06783,0.440033 0,0.643538 -0.07584,0.227525 -0.245928,0.416013 -0.32177,0.643538 -0.06051,0.181542 0,0.75387 0,0.965307 0,0.750795 0,1.501589 0,2.252384 0,0.22807 0.0416,1.84742 0,1.930614 -0.06783,0.13567 -0.253934,0.186099 -0.321769,0.321769 -0.09492,0.18985 0.07378,0.743984 0,0.965307 -0.07584,0.227525 -0.245927,0.416013 -0.321769,0.643538 -0.06395,0.191862 0,1.618863 0,1.930615 0,0.168259 -0.0423,1.20247 0,1.287076 0.06784,0.13567 0.214513,0.214513 0.321769,0.321769 0.107257,0.107256 0.174615,0.284981 0.321769,0.321769 0.312162,0.07804 0.643539,0 0.965308,0 0.214512,0 0.429025,0 0.643538,0 0.965307,0 1.930614,0 2.895921,0 1.8299,0 0.21184,0.1439 1.608846,-0.321769 0.310586,-0.103529 1.251003,0.08946 1.608845,0 0.329048,-0.08226 0.63626,-0.239507 0.965307,-0.321769 0.104054,-0.02601 0.220017,0.03392 0.321769,0 0.227525,-0.07584 0.416013,-0.245927 0.643538,-0.321769 0.20196,-0.06732 1.028041,0 1.287077,0 1.287076,0 2.574152,0 3.861229,0 3.646716,0 7.293432,0 10.940148,0 0.536282,0 1.072563,0 1.608845,0 0.211437,0 0.783766,0.06051 0.965307,0 0.227525,-0.07584 0.473951,-0.152182 0.643539,-0.321769 0.07584,-0.07584 0,-0.214513 0,-0.321769 0,-0.107256 0,-0.214513 0,-0.321769 0,-0.429026 0,-0.858051 0,-1.287076 0,-0.214513 0,-0.429026 0,-0.643539 0,-0.214512 -0.05203,-0.43543 0,-0.643538 0.05817,-0.232671 0.263601,-0.410866 0.321769,-0.643538 0.130067,-0.52027 -0.130068,-1.088575 0,-1.608845 0.03679,-0.147155 0.273802,-0.17787 0.321769,-0.321769 0.101752,-0.305257 0,-0.643538 0,-0.965307 0,-0.536282 0,-1.072564 0,-1.608846 0,-0.321769 -0.0631,-0.649787 0,-0.965307 0.04703,-0.235175 0.245927,-0.416013 0.321769,-0.643538 0.03392,-0.101752 0,-0.214513 0,-0.321769 0,-0.556277 0.03363,-0.753978 -0.321769,-1.287077 -0.08414,-0.126208 -0.1861,-0.253934 -0.321769,-0.321769 -0.09593,-0.04797 -0.220017,0.03392 -0.321769,0 -0.227526,-0.07584 -0.416014,-0.245927 -0.643539,-0.321769 -0.181541,-0.06051 -0.75387,0 -0.965307,0 -0.858051,0 -1.716101,0 -2.574152,0 -2.037871,0 -4.075742,0 -6.113613,0 -0.536281,0 -1.072563,0 -1.608845,0 -0.321769,0 -0.649787,0.0631 -0.965307,0 -0.235175,-0.04704 -0.443986,-0.188734 -0.643538,-0.321769 -0.549294,-0.366196 -0.321769,-0.558495 -0.321769,-1.287076 0,-0.214513 0,-0.429025 0,-0.643538 0,-0.536282 0,-1.072564 0,-1.608845 0,-0.107257 0,-0.214513 0,-0.32177 0,-0.107256 -0.04797,-0.225836 0,-0.321769 0.06784,-0.135669 0.214512,-0.214512 0.321769,-0.321769 0.107256,-0.107256 0.186099,-0.253934 0.321769,-0.321769 0.09593,-0.04797 0.214512,0 0.321769,0 0.107256,0 0.214513,0 0.321769,0 0.290031,0 1.406324,-0.06751 1.608845,0 0.227525,0.07584 0.416013,0.245928 0.643538,0.321769 0.101753,0.03392 0.220017,-0.03392 0.321769,0 0.650244,0.216748 0.880465,0.643538 1.608846,0.643538 0.107256,0 0.225836,0.04797 0.321769,0 0.13567,-0.06783 0.253934,-0.186099 0.321769,-0.321769 0.06343,-0.126854 0,-1.29103 0,-1.608845 0,-0.144911 0.04896,-0.867382 0,-0.965307 -0.217065,-0.43413 -0.948277,-0.558838 -1.287076,-0.643538 -0.266649,-0.06666 -1.270017,0 -1.608846,0 -0.643538,0 -1.287076,0 -1.930614,0 -0.107256,0 -0.321769,0.107256 -0.321769,0 0,-0.107257 0.214513,0 0.321769,0 -0.321769,-0.107257 -0.661941,-0.170086 -0.965307,-0.321769 -0.616168,-0.308084 -0.321769,-1.058783 -0.321769,-1.608846 0,-0.107256 0.03392,-0.220016 0,-0.321769 -0.07584,-0.227525 -0.245928,-0.416013 -0.321769,-0.643538 -0.06784,-0.203505 0.09593,-0.451672 0,-0.643538 -0.06784,-0.13567 -0.429026,-0.214513 -0.32177,-0.321769 0.107257,-0.107256 0.429026,0.429025 0.32177,0.321769 -0.214513,-0.214513 -0.429026,-0.429025 -0.643539,-0.643538 -0.107256,-0.107257 -0.214512,-0.214513 -0.321769,-0.321769 -0.107256,-0.107257 -0.186099,-0.253934 -0.321769,-0.321769 -0.18985,-0.09492 -0.743984,0.07377 -0.965307,0 -0.227525,-0.07584 -0.416013,-0.245928 -0.643538,-0.321769 -0.101752,-0.03392 -0.222485,0.04058 -0.321769,0 C 64.740276,31.371579 64.405689,30.80227 64,30.9375 63.534452,31.092683 63.618644,32.441737 63.205508,32.176907 62.792373,31.912076 63.735169,31.350636 64,30.9375"
     id="path4220"
     inkscape:connector-curvature="0" />
  <path
     style="fill:#b6d3dd;fill-opacity:1;fill-rule:evenodd;stroke:#fbfbfc;stroke-width:1px;stroke-linecap:butt;stroke-linejoin:miter;stroke-opacity:1"
     d="m 64,45.9375 c 0.05694,0.775953 0.0097,1.566675 0.170816,2.32786 0.0222,0.104933 0.214512,0 0.321769,0 0.107256,0 0.214512,0 0.321769,0 0.536282,0 1.072563,0 1.608845,0 0.643538,0 1.287076,0 1.930615,0 0.211436,0 0.783765,-0.06051 0.965307,0 1.253106,0.417702 0.0301,0.321769 1.287076,0.321769 0.643686,0 1.766853,-0.163761 2.252384,0.321769 0.07584,0.07584 0,0.214513 0,0.321769 0,1.8299 0.143899,0.21184 -0.32177,1.608846 -0.03392,0.101752 0.04797,0.225836 0,0.321769 -0.06783,0.13567 -0.214512,0.214512 -0.321769,0.321769 -0.107256,0.107256 -0.186099,0.253934 -0.321769,0.321769 -0.09593,0.04797 -0.220016,-0.03392 -0.321769,0 -0.227525,0.07584 -0.416013,0.245927 -0.643538,0.321769 -0.181542,0.06051 -0.75387,0 -0.965307,0 -0.643538,0 -1.287076,0 -1.930615,0 -0.965307,0 -1.930614,0 -2.895921,0 -0.179781,0 -1.418961,0.06329 -1.608845,0 -0.227526,-0.07584 -0.416014,-0.245927 -0.643539,-0.321769 -0.203504,-0.06784 -0.440033,0.06784 -0.643538,0 -2.330707,-0.776903 0.507304,0.09277 -0.965307,-0.643538 -0.09593,-0.04797 -0.214513,0 -0.321769,0 -0.214513,-0.107257 -0.443985,-0.188734 -0.643538,-0.321769 -0.126208,-0.08414 -0.214513,-0.214513 -0.321769,-0.321769 -0.107257,-0.107257 -0.253934,-0.1861 -0.321769,-0.321769 -0.04896,-0.09793 0,-0.820396 0,-0.965308 0,-0.311751 -0.06395,-1.738752 0,-1.930614 0.194802,-0.584406 0.275385,-0.597155 0.643538,-0.965307 0.107256,-0.107257 0.186099,-0.253934 0.321769,-0.321769 0.08461,-0.0423 1.118817,0 1.287076,0 0.702817,0 1.374601,-0.02768 2.081568,-0.07548 z"
     id="path4222"
     inkscape:connector-curvature="0" />
</svg>
