<?xml version="1.0" encoding="UTF-8" standalone="no"?>
<!-- Created with Inkscape (http://www.inkscape.org/) -->

<svg
   xmlns:dc="http://purl.org/dc/elements/1.1/"
   xmlns:cc="http://creativecommons.org/ns#"
   xmlns:rdf="http://www.w3.org/1999/02/22-rdf-syntax-ns#"
   xmlns:svg="http://www.w3.org/2000/svg"
   xmlns="http://www.w3.org/2000/svg"
   xmlns:sodipodi="http://sodipodi.sourceforge.net/DTD/sodipodi-0.dtd"
   xmlns:inkscape="http://www.inkscape.org/namespaces/inkscape"
   id="svg2"
   version="1.1"
   inkscape:version="0.91 r13725"
   width="167.8125"
   height="53.4375"
   viewBox="0 0 167.8125 53.4375"
   sodipodi:docname="victory.svg">
  <metadata
     id="metadata8">
    <rdf:RDF>
      <cc:Work
         rdf:about="">
        <dc:format>image/svg+xml</dc:format>
        <dc:type
           rdf:resource="http://purl.org/dc/dcmitype/StillImage" />
        <dc:title></dc:title>
      </cc:Work>
    </rdf:RDF>
  </metadata>
  <defs
     id="defs6" />
  <sodipodi:namedview
     pagecolor="#ffffff"
     bordercolor="#666666"
     borderopacity="1"
     objecttolerance="10"
     gridtolerance="10"
     guidetolerance="10"
     inkscape:pageopacity="0"
     inkscape:pageshadow="2"
     inkscape:window-width="1237"
     inkscape:window-height="681"
     id="namedview4"
     showgrid="true"
     inkscape:zoom="3.3370577"
     inkscape:cx="95.706183"
     inkscape:cy="10.863237"
     inkscape:window-x="37"
     inkscape:window-y="44"
     inkscape:window-maximized="0"
     inkscape:current-layer="svg2">
    <inkscape:grid
       type="xygrid"
       id="grid4138"
       empspacing="1" />
  </sodipodi:namedview>
  <path
     style="fill:#f6ec00;fill-opacity:1;fill-rule:evenodd;stroke:#000000;stroke-width:1px;stroke-linecap:butt;stroke-linejoin:miter;stroke-opacity:1"
     d="m 0,0.4375 10,45 15,0 5,-45 -10,0 -5,30 0,-30 z"
     id="path4140"
     inkscape:connector-curvature="0" />
  <path
     style="fill:#f6ec00;fill-opacity:1;fill-rule:evenodd;stroke:#000000;stroke-width:1px;stroke-linecap:butt;stroke-linejoin:miter;stroke-opacity:1"
     d="m 32,2.4375 0,5 11,1 0,-6 z"
     id="path4142"
     inkscape:connector-curvature="0" />
  <path
     style="fill:#f6ec00;fill-opacity:1;fill-rule:evenodd;stroke:#000000;stroke-width:1px;stroke-linecap:butt;stroke-linejoin:miter;stroke-opacity:1"
     d="m 33,9.4375 10,0 1,36 -12,0 0,-36 z"
     id="path4144"
     inkscape:connector-curvature="0" />
  <path
     style="fill:#f6ec00;fill-opacity:1;fill-rule:evenodd;stroke:#000000;stroke-width:1px;stroke-linecap:butt;stroke-linejoin:miter;stroke-opacity:1"
     d="m 63,23.4375 10,0 -1,-7 -12,-8 -12,9 1,22 7,8 10,0 6,-8 0,-9 -9,0 -1,7 -2,2 -1,-3 0,-19 1,-2 3,3 -1,5 z"
     id="path4146"
     inkscape:connector-curvature="0" />
  <path
     style="fill:#f6ec00;fill-opacity:1;fill-rule:evenodd;stroke:#000000;stroke-width:1px;stroke-linecap:butt;stroke-linejoin:miter;stroke-opacity:1"
     d="m 77,16.4375 -3,0 0,-6 2,0 1,-6 11,1 0,5 2,0 0,5 -2,1 0,24 3,0 0,6 -10,0 -4,-5 z"
     id="path4148"
     inkscape:connector-curvature="0" />
  <path
     style="fill:#f6ec00;fill-opacity:1;fill-rule:evenodd;stroke:#000000;stroke-width:1px;stroke-linecap:butt;stroke-linejoin:miter;stroke-opacity:1"
     d="m 110,9.4375 -11,1 -6,7 1,22 7,7 9,0 8,-6 -1,-24 -7,-7 z m -5,7 2,2 0,18 -1,3 -2,-3 -1,-19 2,-1 z"
     id="path4150"
     inkscape:connector-curvature="0" />
  <path
     style="fill:#f6ec00;fill-opacity:1;fill-rule:evenodd;stroke:#000000;stroke-width:1px;stroke-linecap:butt;stroke-linejoin:miter;stroke-opacity:1"
     d="m 121,9.4375 11,0 0,4 4,-4 3,0 0,14 -4,1 -2,3 -1,19 -11,0 z"
     id="path4154"
     inkscape:connector-curvature="0" />
  <path
     style="fill:#f6ec00;fill-opacity:1;fill-rule:evenodd;stroke:#000000;stroke-width:1px;stroke-linecap:butt;stroke-linejoin:miter;stroke-opacity:1"
     d="m 140,9.4375 7,35 -1,2 -4,0 0,5 14,1 6,-8 3,-35 -10,0 c 0,0 -2,24 -2,23 0,-1 -4,-23 -4,-23 z"
     id="path4156"
     inkscape:connector-curvature="0" />
</svg>
